<mxfile host="Electron" agent="Mozilla/5.0 (Macintosh; Intel Mac OS X 10_15_7) AppleWebKit/537.36 (KHTML, like Gecko) draw.io/24.7.17 Chrome/128.0.6613.36 Electron/32.0.1 Safari/537.36" version="24.7.17">
  <diagram name="Page-1" id="-AiUMZavRV89a2tr3wu7">
    <mxGraphModel dx="1853" dy="743" grid="1" gridSize="10" guides="1" tooltips="1" connect="1" arrows="1" fold="1" page="1" pageScale="1" pageWidth="827" pageHeight="1169" math="0" shadow="0">
      <root>
        <mxCell id="0" />
        <mxCell id="1" parent="0" />
        <mxCell id="272sHSoe-_pz2Ps7QQTc-29" value="" style="rounded=1;whiteSpace=wrap;html=1;" parent="1" vertex="1">
          <mxGeometry x="-370" y="10" width="1240" height="690" as="geometry" />
        </mxCell>
        <mxCell id="272sHSoe-_pz2Ps7QQTc-2" value="Basket Service" style="rounded=1;whiteSpace=wrap;html=1;" parent="1" vertex="1">
          <mxGeometry x="240" y="95" width="110" height="60" as="geometry" />
        </mxCell>
        <mxCell id="272sHSoe-_pz2Ps7QQTc-20" style="edgeStyle=orthogonalEdgeStyle;rounded=0;orthogonalLoop=1;jettySize=auto;html=1;flowAnimation=1;" parent="1" source="272sHSoe-_pz2Ps7QQTc-4" target="272sHSoe-_pz2Ps7QQTc-15" edge="1">
          <mxGeometry relative="1" as="geometry" />
        </mxCell>
        <mxCell id="272sHSoe-_pz2Ps7QQTc-4" value="Order Service" style="rounded=1;whiteSpace=wrap;html=1;" parent="1" vertex="1">
          <mxGeometry x="240" y="205" width="120" height="60" as="geometry" />
        </mxCell>
        <mxCell id="272sHSoe-_pz2Ps7QQTc-5" value="Product Service" style="rounded=1;whiteSpace=wrap;html=1;" parent="1" vertex="1">
          <mxGeometry x="240" y="305" width="120" height="60" as="geometry" />
        </mxCell>
        <mxCell id="272sHSoe-_pz2Ps7QQTc-6" value="Report Service" style="rounded=1;whiteSpace=wrap;html=1;" parent="1" vertex="1">
          <mxGeometry x="240" y="405" width="120" height="60" as="geometry" />
        </mxCell>
        <mxCell id="272sHSoe-_pz2Ps7QQTc-7" value="" style="shape=cylinder3;whiteSpace=wrap;html=1;boundedLbl=1;backgroundOutline=1;size=15;" parent="1" vertex="1">
          <mxGeometry x="720" y="80" width="80" height="110" as="geometry" />
        </mxCell>
        <mxCell id="272sHSoe-_pz2Ps7QQTc-8" value="" style="image;sketch=0;aspect=fixed;html=1;points=[];align=center;fontSize=12;image=img/lib/mscae/Cache_Redis_Product.svg;" parent="1" vertex="1">
          <mxGeometry x="735" y="130" width="50" height="42" as="geometry" />
        </mxCell>
        <mxCell id="272sHSoe-_pz2Ps7QQTc-10" value="" style="shape=cylinder3;whiteSpace=wrap;html=1;boundedLbl=1;backgroundOutline=1;size=15;" parent="1" vertex="1">
          <mxGeometry x="720" y="220" width="80" height="120" as="geometry" />
        </mxCell>
        <mxCell id="272sHSoe-_pz2Ps7QQTc-11" value="" style="image;aspect=fixed;html=1;points=[];align=center;fontSize=12;image=img/lib/azure2/databases/Azure_Database_PostgreSQL_Server.svg;" parent="1" vertex="1">
          <mxGeometry x="737" y="260" width="48" height="64" as="geometry" />
        </mxCell>
        <mxCell id="272sHSoe-_pz2Ps7QQTc-12" value="" style="shape=cylinder3;whiteSpace=wrap;html=1;boundedLbl=1;backgroundOutline=1;size=15;" parent="1" vertex="1">
          <mxGeometry x="721" y="390" width="80" height="110" as="geometry" />
        </mxCell>
        <mxCell id="272sHSoe-_pz2Ps7QQTc-13" value="" style="dashed=0;outlineConnect=0;html=1;align=center;labelPosition=center;verticalLabelPosition=bottom;verticalAlign=top;shape=mxgraph.weblogos.mongodb" parent="1" vertex="1">
          <mxGeometry x="742.9" y="420" width="36.2" height="66.2" as="geometry" />
        </mxCell>
        <mxCell id="272sHSoe-_pz2Ps7QQTc-21" style="edgeStyle=orthogonalEdgeStyle;rounded=0;orthogonalLoop=1;jettySize=auto;html=1;flowAnimation=1;" parent="1" source="272sHSoe-_pz2Ps7QQTc-15" target="272sHSoe-_pz2Ps7QQTc-6" edge="1">
          <mxGeometry relative="1" as="geometry" />
        </mxCell>
        <mxCell id="272sHSoe-_pz2Ps7QQTc-15" value="" style="rounded=1;whiteSpace=wrap;html=1;" parent="1" vertex="1">
          <mxGeometry x="384" y="550" width="160" height="90" as="geometry" />
        </mxCell>
        <mxCell id="272sHSoe-_pz2Ps7QQTc-14" value="" style="image;aspect=fixed;html=1;points=[];align=center;fontSize=12;image=img/lib/azure2/integration/Service_Bus.svg;" parent="1" vertex="1">
          <mxGeometry x="430" y="565" width="68" height="60" as="geometry" />
        </mxCell>
        <mxCell id="272sHSoe-_pz2Ps7QQTc-16" style="edgeStyle=orthogonalEdgeStyle;rounded=0;orthogonalLoop=1;jettySize=auto;html=1;entryX=-0.025;entryY=0.6;entryDx=0;entryDy=0;entryPerimeter=0;flowAnimation=1;" parent="1" source="272sHSoe-_pz2Ps7QQTc-2" target="272sHSoe-_pz2Ps7QQTc-7" edge="1">
          <mxGeometry relative="1" as="geometry" />
        </mxCell>
        <mxCell id="272sHSoe-_pz2Ps7QQTc-17" style="edgeStyle=orthogonalEdgeStyle;rounded=0;orthogonalLoop=1;jettySize=auto;html=1;entryX=-0.037;entryY=0.558;entryDx=0;entryDy=0;entryPerimeter=0;flowAnimation=1;" parent="1" source="272sHSoe-_pz2Ps7QQTc-4" target="272sHSoe-_pz2Ps7QQTc-10" edge="1">
          <mxGeometry relative="1" as="geometry" />
        </mxCell>
        <mxCell id="272sHSoe-_pz2Ps7QQTc-18" style="edgeStyle=orthogonalEdgeStyle;rounded=0;orthogonalLoop=1;jettySize=auto;html=1;entryX=-0.037;entryY=0.567;entryDx=0;entryDy=0;entryPerimeter=0;flowAnimation=1;" parent="1" source="272sHSoe-_pz2Ps7QQTc-5" target="272sHSoe-_pz2Ps7QQTc-10" edge="1">
          <mxGeometry relative="1" as="geometry" />
        </mxCell>
        <mxCell id="272sHSoe-_pz2Ps7QQTc-19" style="edgeStyle=orthogonalEdgeStyle;rounded=0;orthogonalLoop=1;jettySize=auto;html=1;entryX=0;entryY=0.5;entryDx=0;entryDy=0;entryPerimeter=0;flowAnimation=1;" parent="1" source="272sHSoe-_pz2Ps7QQTc-6" target="272sHSoe-_pz2Ps7QQTc-12" edge="1">
          <mxGeometry relative="1" as="geometry" />
        </mxCell>
        <mxCell id="272sHSoe-_pz2Ps7QQTc-23" style="edgeStyle=orthogonalEdgeStyle;rounded=0;orthogonalLoop=1;jettySize=auto;html=1;entryX=0;entryY=0.5;entryDx=0;entryDy=0;flowAnimation=1;" parent="1" source="272sHSoe-_pz2Ps7QQTc-22" target="272sHSoe-_pz2Ps7QQTc-2" edge="1">
          <mxGeometry relative="1" as="geometry" />
        </mxCell>
        <mxCell id="272sHSoe-_pz2Ps7QQTc-24" style="edgeStyle=orthogonalEdgeStyle;rounded=0;orthogonalLoop=1;jettySize=auto;html=1;entryX=0;entryY=0.5;entryDx=0;entryDy=0;flowAnimation=1;" parent="1" source="272sHSoe-_pz2Ps7QQTc-22" target="272sHSoe-_pz2Ps7QQTc-4" edge="1">
          <mxGeometry relative="1" as="geometry" />
        </mxCell>
        <mxCell id="272sHSoe-_pz2Ps7QQTc-25" style="edgeStyle=orthogonalEdgeStyle;rounded=0;orthogonalLoop=1;jettySize=auto;html=1;entryX=0;entryY=0.5;entryDx=0;entryDy=0;flowAnimation=1;" parent="1" source="272sHSoe-_pz2Ps7QQTc-22" target="272sHSoe-_pz2Ps7QQTc-5" edge="1">
          <mxGeometry relative="1" as="geometry" />
        </mxCell>
        <mxCell id="272sHSoe-_pz2Ps7QQTc-26" style="edgeStyle=orthogonalEdgeStyle;rounded=0;orthogonalLoop=1;jettySize=auto;html=1;entryX=0;entryY=0.5;entryDx=0;entryDy=0;flowAnimation=1;" parent="1" source="272sHSoe-_pz2Ps7QQTc-22" target="272sHSoe-_pz2Ps7QQTc-6" edge="1">
          <mxGeometry relative="1" as="geometry" />
        </mxCell>
        <mxCell id="272sHSoe-_pz2Ps7QQTc-22" value="YARP Reverse Proxy" style="rounded=1;whiteSpace=wrap;html=1;" parent="1" vertex="1">
          <mxGeometry x="-70" y="250" width="130" height="60" as="geometry" />
        </mxCell>
        <mxCell id="272sHSoe-_pz2Ps7QQTc-28" style="edgeStyle=orthogonalEdgeStyle;rounded=0;orthogonalLoop=1;jettySize=auto;html=1;entryX=0;entryY=0.5;entryDx=0;entryDy=0;flowAnimation=1;" parent="1" source="272sHSoe-_pz2Ps7QQTc-27" target="272sHSoe-_pz2Ps7QQTc-22" edge="1">
          <mxGeometry relative="1" as="geometry" />
        </mxCell>
        <mxCell id="272sHSoe-_pz2Ps7QQTc-27" value="Shop Website" style="rounded=1;whiteSpace=wrap;html=1;" parent="1" vertex="1">
          <mxGeometry x="-340" y="250" width="130" height="60" as="geometry" />
        </mxCell>
        <mxCell id="272sHSoe-_pz2Ps7QQTc-30" value="" style="image;sketch=0;aspect=fixed;html=1;points=[];align=center;fontSize=12;image=img/lib/mscae/Docker.svg;" parent="1" vertex="1">
          <mxGeometry x="-310" y="40" width="85.37" height="70" as="geometry" />
        </mxCell>
        <mxCell id="272sHSoe-_pz2Ps7QQTc-36" value="" style="shape=image;aspect=fixed;image=data:image/png,iVBORw0KGgoAAAANSUhEUgAACAAAAAgACAMAAACFeSMCAAAABGdBTUEAALGPC/xhBQAAACBjSFJNAAB6JgAAgIQAAPoAAACA6AAAdTAAAOpgAAA6mAAAF3CculE8AAAC+lBMVEVRK9SIbuH///+FauH+/v/v6/tZNNbd1fexoOyzouzq5fqunOv8/P5yVNzb0/ZTLdWahOb18/1jQdnGuvGGbOHr5vpZNdb9/f50Vd3f2PdULtWdiOf39v1nRtnNwfOJb+Lu6vtcONe1pO3+/f94Wt7g2vdUL9WhjOj49/1oR9rOw/OMc+NdOde5qe55XN7i2/hVMNWkkOn6+f5sS9vTyvRSLNSQd+Tx7vxfPNe8ru5+Yt/l3/lWMtWoleltTdvVy/WTfOTz8PxgPdjAsu9/ZN/m4flXMtarmer7+v5uT9vZ0fZSLdSXgOX18/xjQdjDtvCuneuyoey1pe2vnuuxn+xmRdnWzfWXgeXy7/xxUtyOdePNwvOGa+F9YN/r5/qReeSplurCtPBaNtbXz/W4qe3o4/luTtv5+P3VzPVbN9eKcOJsTNvi3Ph3Wd2YgeachuekkOhYM9bw7fulkem7re7Hu/GnlOnv7Pve1/e5qu7n4vl6Xd6NdOPc1faAZOBbN9bQxvPRxvRqStprS9pzVdx7Xt6McuJ8X99/Y9+DaeDp5PrUy/SCZ+CVfuXCtfCfiueUfOXRx/T6+P6smuumkul2WN26q+62pu2+sO/s6PqEaeHIvPFiQNj08vyZgubXzvXZ0Paql+pkQtna0vZWMdXj3fh7X96HbeG7rO7e1vft6fvKvvJlRNn39f1oRtrk3vjY0PVwUdz8+/59Yd9eO9fx7vvt6frPxPOjj+h1V92zo+zk3/jo5PlqSdrEt/BhP9jz8fyWf+VfPNjSyPTIvPKbheZvUNusmuq9ru9dOteOduPLwPKfi+eBZuCijej29P2dh+dwUNyoleq/se+QeOTPxfN0Vt2DaOBhPtimk+m3qO2eiefKv/Kwn+vBs/CTe+TGufHAs++LcuLJvfKtm+vMwfKVfeW3p+2Zg+aqmOqSeuS0pOzFuPF3Wt15W96bhuaKceKPd+O9r++gi+iijuhlQ9nTyfTm4PlpSNqIbuLc1Pbg2ffh2viBZeBlDZ11AAAAAWJLR0QCZgt8ZAAAAAd0SU1FB+gHCwgFHtqJ8MAAADAiSURBVHja7d2Lu5Z1mejxZ15XONKCBTqCLFFkliB4SASXouABESSWoOIhEcVCDWWk0jI842HSdGcpjZUlmg5mmnhA1MzjaJqMecxG02amzJmx0Wp32jPtaV/XNk0F5LDAdb/vjb/P5w947odXn/v9Xj/WeqgqAAAAAAAAAAAAAAAAAAAAAAAAAAAAAAAAAAAAAAAAAAAAAAAAAAAAAAAAAAAAAAAAAAAAAAAAAAAAAAAAAAAAAAAAAAAAAAAAAAAAAAAAAAAAAAAAAAAAAAAAAAAAAAAAAAAAAAAAAAAAAAAAAAAAAAAAAAAAAAAAAAAAAAAAAAAAAAAAAAAAAAAAAAAAAAAAAAAAAAAAAAAAAAAAAAAAAAAAAAAAAAAAAAAAAAAAAAAAAAAAAAAAAAAAAAAAAAAAAAAAAAAAAAAAAAAAAAAAAAAAAAAAAAAAAAAAAAAAAAAAAAAAAAAAAAAAAAAAAAAAAAAAAAAAAAAAAAAAAAAAAAAAAAAAAAAAAAAAAAAAAAAAAAAAAAAAAAAAAAAAAAAAAAAAAAAAAAAAAAAAAAAAAAAAAAAAAAAAAAAAAAAAAAAAAAAAAAAAAAAAAAAAAAAAAAAAAAAAAAAAAAAAAAAAAAAAAAAAAAAAAAAAAAAAAAAAAAAAAAAAAAAAAAAAAAAAAAAAAAAAAAAAAAAAAAAAAAAAAAAAAAAAAAAAAAAAAAAAAAAAAAAAAAAAAAAAAAAAAAAAAAAAAAAAAAAAAAAAAAAAAAAAAAAAAAAAAAAAAAAAAAAAAAAAAAAAAAAAAAAAAAAAAAAAAAAAAAAAAAAAAAAAAAAAAAAAAAAAAAAAAAAAAAAAAAAAAAAAAAAAAAAAAAAAAAAAAAAAAAAAAAAAAAAAAAAAAAAAAAAAAAAAAAAAAAAAAAAAAAAAAAAAAAAAAAAAAAAAAAAAAAAAAAAAAAAAAAAAAAAAAAAAAAAAAAAAAAAAAAAAAAAAAAAAAAAAAAAAAAAAAAAAAAAAAAAAAAAAAAAAAAAAAAAAAAAAAAAAAAAAAAAAAAAAAAAAAAAAAAAAAAAAAAAAAAAAAAAAAAAAAAAAAAAAAAAAAAAAAAAAAAAAAAAAAAAAAAAAAAAAAAAAAAAAAAAAAAAAAAAAAAAAAAAAAAAAAAAAAAAAAAAAAAAAAAAAAAAAAAAAAAAAAAAAAAAAAAAAAAAAAAAAAAAAAAAAAAAAAAAAAAAAAAAAAAAAAAAAAAAAAAAAAAAAAAAAAAAAAAAAAAAAAAAAAAAAAAAAAAAAAAAAAAAAAAAAAAAAAAAAAAAAAAAAAAAAAAAAAAAAAAAAAAAAAAAAAAAAAAAAAAAAAAAAAAAAAAAAAAAAAAAAAAAAAAAAAAAAAAAAAAAAAAAAAAAAAAAAAAAAAAAAAAAAAAAAAAAAAAAAAAAAAAAAAAAAAAAAAAAAAAAAAAAAAAAAAAAAAAAAAAAAAAAAAAAAAAAAAAAAAAAAAAAAAAAAAAAAAAAAAAAAAAAAAAAAAAAAAAAAAAAAAAAAAAAAAAAAAAAAAAAAAAAAAAAAAAAAAAAAAAAAAAAAAAAAAAAAAAAAAAAAAAAAAAAAAAAAAAAAAAAAAAAAAAAAAAAAAAAAAAAAAAAAAAAAAAAAAAAAAAAAAAAAAAAAAAAAAAAAAAAAAAAAAAAAAAAAAAAAAAAAAAAAAAAAAAAAAAAAAAAAAAAAAAAAAAAAAAAAAAAAAAAAAAAAAAAAAAAAAAAAAAAAAAAAAAAAAAAAAAAAAAAAAAAAAAAAAAAAAAAAAAAAAAAAAAAAAAAAAAAAAAAAAAAAAAAAAAAAAAAAAAAAAAAAAAAAAAAAAAAAAAAAAAAAAAAAAAAAAAAAAAAAAAAAAAAAAAAAAAAAAAAAAAAAAAAAAAAAAAAAAAAAAAAAAAAAAAAAAAAAAAAAAAAAAAAAAAAAAAAAAAAAAAAAAAAAAAAAAAAAAAAAAAAAAAAAAAAAAAAAAAAAAAAAAAAAAAAAAAAAAAAAAAAAAAAAAAAAAAAAAAAAAAAAAAAAAAAAAAAAAAAAAAAAAAAAAAAAAAAAAAAAAAAAAAAAAAAAAAAAAAAAAAAAAAAAAAAAAAAAAAAAAAAAAAAAAAAAAAAAAAAAAAAAAAAAAAAAAAAAAAAAAAAAAAAAAAAAAAAAAAAAAAAAAAAAAAAAAAAAAAAAAAAAALrSX9TqYL3SP+WmLv9I31f3P0O3Giuyfqc/wb/0YTXUBtY9NCAAuncTAAJAAPiwBAAUFwC19wsAASAAfFgCAMoLgOYeAkAACAAEABQXALWeLQJAAAgABAAUFwC1XgJAAAgABACUFwC9NxQAAkAAIACguACobSQABIAAQABAeQFQ+ysBIAAEAAIAyguAjfsIAAEgABAAUFwA1P5SAAgAAYAAgPICoO8mAkAACAAEABQXALV+rQJAAAgABAAUFwC1TQWAABAACAAoLwD6byYABIAAQABAcQFQ21wACAABgACA8gKgNkAACAABgACA8gJgi4ECQAAIAAQAFBcAtb8WAAJAACAAoLwAaNtSAAgAAYAAgOICoDZosAAQAAIAAQDFBUBtKwEgAAQAAgDKC4AhQwWAABAACAAoLgBqWwsAASAAEABQXgDUthEAAkAAIACgvAB437YCQAAIAAQAFBcAte0EgAAQAAgAKC8A2j4gAASAAEAAQHEBUNt+mAAQAAIAAQDFBUBtBwEgAAQAAgDKC4DhIwSAABAACAAoLgBqO7YLAAEgABAAUFwA1HYSAAJAACAAoLwA2HmkABAAAgABAMUFQG0XASAABAACAMoLgKZdBYAAEAAIACguAGqjRgsAASAAEABQXADUdhMAAkAAIACgvAAYvrsAEAACAAEAxQVAbY9SXgYgAASAABAAIACWsqcAEAACAAEA5QXAmL0EgAAQAAgAKC4AamMFgAAQAAgAKC8AansLAAEgABAAUF4AjBsvAASAAEAAQHEBUNtHAAgAAYAAgPICYMIHBYAAEAAIACguAGoTOwSAABAACAAoLgBq+woAASAAEABQXgBMmiwABIAAQABAcQFQ208ACAABgACA8gKgtp4AEAACAAEA5QVA924CQAAIAAQAFBcAtf0FgAAQAAgAKC8AmnsIAAEgABAAUFwA1Hq2CAABIAAQAFBcANR6CQABIAAQAFBeAPTeUAAIAAGAAIDiAqC2kQAQAAIAAQDlBUDtrwSAABAACAAoLwA27iMABIAAQABAcQFQO0AACAABgACA8gKg7yYCQAAIAAQAFBcAtX6tAkAACAAEABQXALVNBYAAEAAIACgvAIZsJgAEgABAAEBxAVDbXAAIAAGAAIDyAqA2QAAIAAGAAIDyAmCLgQJAAAgABAAUFwC1KQJAAAgABACUFwBtWwoAASAAEABQXADUBg0WAAJAACAAoLgAqG0lAASAAEAAQHkBMGSoABAAAgABAMUFQG1rAVBQADSv6yZ2+hM8MOPtN4X8V23L+Ec9yLqH9AFQ20YAlBMAB3sGG+qQkP+qH/LBggBYuy+3bQWAAEAAAMUFQG07ASAAEABAeQHQ9gEBIAAQAEBxAVDbfpgAEAAIAKC4AKjtIAAEAAIAKC8Aho8QAAIAAQAUFwC1HdsFgABAAADFBUBtJwEgABAAQHkBcOhIASAAEABAcQFQ20UACAAEAFBeADTtKgAEAAIAKC4AaqNGCwABgAAAiguA2m4CQAAgAIDyAmDC7gJAACAAgOICoLbHe+VlAAJAAAgAQACsgT0FgABAAADlBcCYvQSAAEAAAMUFQG2sABAACACgvACo7S0ABAACACgvAMaNFwACAAEAFBcAtX0EgABAAADlBUDzVAEgABAAQHEBUJvYIQAEAAIAKC4AavsKAAGAAADKC4BJkwWAAEAAAMUFQG0/ASAAEABAeQFQW08ACAAEAFBeAHTvJgAEAAIAKC4AavsLAAGAAADKC4DmHgJAACAAgOICoNazRQAIAAQAUFwA1HoJAAGAAADKC4DeGwoAAYAAAIoLgNpGAkAAIACAvAFw2N7TYr4pDhcAAgABAKQNgA9UR8R8U0zvIwAEAAIAyBoAR1bVoJivigMEgABAAABZA+DDVdUr5qui7yYCQAAgAICkAfCRqprRO+a7ol+rABAACAAgZwAc9dpFjw76TYBNBYAAQAAAOQPgmNcu+tGmmC+LIZsJAAGAAABSBsDMP1312KAjgM0FgABAAAApA6B23GtXnRX1OqBZAkAAIACAlAHwN69dteP4oADYYqAAEAAIACBjABzxp8vuGXUEMEUACAAEAJAxALb502UHbxwUAG2zBYAAQAAACQPgY69f9+NRRwCDBgsAAYAAAPIFwCdev+4JJ0YVwFYCQAAgAIB8AXDgGxf+ZFQADBkqAAQAAgBIFwCfeuPCA3tHFcA0ASAAEABAugA46c9X/nRUALzxY4YCQAAgAIBMAbDjn6/c531RATBnWwEgABAAQLIAOPnNS/cKOwI4RQAIAAQAkCwATn3z0oPHRQVA22kCQAAgAIBcATDnrWufHnYEsP0wASAAEABAqgDo/9a1288IK4AdBIAAQAAAqQKgqeWti58ZFgDDRwgAAYAAADIFQG3u21c/K6wAzhYAAgABAKQKgMlvX/2c4WEFsJMAEAAIACBTAJy71OX3DwuAQ0cKAAGAAAASBcDfLnX5E7qHFcAuAkAAIACARAHwmaWvf15YADSdLwAEAAIAyBMAn11mwNZhBTBqtAAQAAgAIE0AXLDMgMCfA9xNAAgABACQJgD+YtkJ7w8LgAm7CwABgAAAsgTAcv9ab7cLwwrgf7ULAAGAAACSBMCRy434XFgA1PYUAAIAAQAkCYCLlp/x+bAAGLOXABAACAAgRwD0Wn7GyJ3DCmCsABAACAAgRwB84R1DLo77S4AzBYAAQAAAKQLgE+8Y0n5JWACMGy8ABAACAMgQACv49fxz5oUVwD4CQAAgAIAMAfDFFYz5u7AAaJ4qAAQAAgBIEAAHrWBM68lhBTCxQwAIAAQA0PgAmLKiOZf2DSuAfQWAAEAAAI0PgC+tcNCXwwJg0mQBIAAQAEDDA+ArKxw097KwAthPAAgABADQ8ABYyffxV+NeBrCeABAACACg0QHwtZWMOiksALp3EwACAAEANDgANl/JqMvnhxXA/gJAACAAgAYHwNkrm3VF3MsAeggAAYAAABobAMeubFbHlaW+DEAACAABALz3A+ColQ4bMTysAHoJAAGAAAAaGgBfX/m0q8ICoPfVAkAAIACARgbA36982oJrwgpgIwEgABAAQCMDoOcqxn2jKawArhUAAgABADQwAM5Y1bxvhgXA9D4CQAAgAIDGBcB1q5p33PVhBXCAABAACACgcQHQb5UDtwkLgL6bCAABgAAAGhYAg1Y98VthBdCvVQAIAAQA0KgA2H7VE29YGFYAmwoAAYAAABoVAMevZuSmYQEw5EYBIAAQAECDAuCm1YzsuDmsAKYJAAGAAAAaFACjVjfzlkVhBTBAAAgABADQmAAYt9qh+4cFwBYDBYAAQAAADQmAY1Y7dPypYQUwRQAIAAQA0JAAuHD1U28NeyNw25YCQAAgAIBGBED3TowdG3YEMGiwABAACACgAQEwvRNjF98WVgBbCQABgAAAGhAAt3dm7pFxLwMYKgAEAAIAqH8AbNGpwWeFFcAdAkAAIACA+gfAnE4N3qx/WAFsIwAEAAIAqHsA3Na5yd8OC4A52woAAYAAAOodADt3bnLrdWEFsJ0AEAAIAKDeATCmk6Pv7Bv2MoDTBIAAQAAAdQ6A+Z2d/Z2wI4C7FggAAYAAAOobAL07/ZVyd1gB7CAABAACAKhvACzs9PD1wgJg3j0CQAAgAICkAVDdG1YAO7YLAAGAAACSBsB994cVwE4CQAAgAICkAVD9Q1gAHPqAABAACAAgaQC0PxhWALsIAAGAAACSBkB17ryoAGjaVQAIAAQAkDQAqt3CjgBGjRYAAgABACQNgGHbhxXAbgJAACAAgKQBUM1uiwqACbsLAAGAAACSBkB1dNgRwB5ZXgYgAASAAAAEwPLm3h5WAHsKAAGAAACSBkA1KywAxuwlAAQAAgBIGgDVd8MKYKwAEAAIACBrAEyeFFYAZwoAAYAAAJIGQPVQWACMGy8ABAACAEgaAB1HhRXAPgJAACAAgKQBUD28KCoAmqcKAAGAAACSBkD1vbAjgIkdAkAAIACApAGw4KawAthXAAgABACQNACq85uiAmDSZAEgABAAQNIAqB4JOwLYTwAIAAQAkDUAlpwYVgDrCQABgAAAkgZA9Y9hAdC9jwAQAAgAIGkAVI+GFcD+AkAAIACArAFw8MKwlwH0EAACAAEAJA2A6vthRwA9WwSAAEAAAEkDoOWMsALoJQAEAAIASBoA1dRFUQHQ+2oBIAAQAEDSAKgOCjsC2EgACAAEAJA1AE44JqwArhUAAgABACQNgOqxsACYPkMACAAEAJA0AKqPhBXAAQJAACAAgKwBMHLnqADou4kAEAAIACBpAFR7hh0B9GsVAAIAAQAkDYD2s8MKYFMBIAAQAEDSAKjOmRkVAENuFAACAAEAJA2AaoewI4BpAkAAIACArAHQenJYAQwQAAIAAQAkDYDq0r5RAbDFQAEgABAAQNIAqKaEHQFMEQACAAEAZA2AGdOjAqBtSwEgABAAQNIAqC4IOwIYNFgACAAEAJA0AKqNwgrgcQGQKQA+NGBd00MACAAQAIEBcN/8sJcBDBUAiQJg3XOKABAAIAACA6D6WNgCv0MACAABIABAAGQNgI5Dwjb4NgJAAAgAAQACIGkAVCOGR23wOdsKAAEgAAQACICkAVB9OGyFbycABIAAEAAgALIGwILjo1Z422kCQAAIAAEAAiBpAFSfaYra4XctEAACQAAIABAASQOg+lLYEv+kABAAAkAAgADIGgDH3R61xIePEAACQAAIABAASQOgOi9si+/YLgAEgAAQACAAkgZA9a2wNb6TABAAAkAAgADIGgA3PBG1xg99QAAIAAEgAEAAJA2A6smwPb6LABAAAkAAgADIGgAdN0ft8aZdBYAAEAACAARA0gConloUtchHjRYAAkAACAAQAEkDoHp/2CZ/WgAIAAEgAEAAZA2A8eOiNvmE3QWAABAAAgAEQNIAqI4IeyPwHvV6GYAAEAACABAAa+wHYbv8YgEgAASAAAABkDUAFp8YtcvH7CUABIAAEAAgAJIGQPVM2DIfKwAEgAAQACAAsgZA9cOwbX6mABAAAkAAgADIGgCb9Y/a5uPGCwABIAAEAAiApAFQPR62zvcRAAJAAAgAEABZA6B1/ah13jxVAAgAASAAQAAkDYDqn/pG7fOJHQJAAAgAAQACIGkAVBuELfQ6LCsBIAAEACAA1s4Jd0ct9EmTBYAAEAACAARA0gCong3b6PsJAAEgAAQACICsAVDdG7bS1xMAAkAACAAQAFkD4Ln7o1Z69z4CQAAIAAEAAiBpAFQXhe30/QWAABAAAgAEQNYAaH8waqc39xAAAkAACAAQAEkDoDp3XtRS79kiAASAABAAIACSBkD1o7Ct/pAAEAACQACAAMgaAMO2j9rqva8WAAJAAAgAEABJA6Ca3Ra11k8SAAJAAAgAEABZA6B6PmyvXysABIAAEAAgALIGwNzLovb69BkCQAAIAAEAAiBpAFQDwhb7AQJAAAgAAQACIGsAVN+NWuxtswWAABAAAgAEQNYAuHx+1Gbv1yoABIAAEAAgAJIGQNUrbLW/IAAEgAAQACAAsgZAx5VRq33IjQJAAAgAAQACIGkAVA9PiNrt0wSAABAAAgAEQNYAqPYJW+6zBIAAEAACAARA1gBYcE3Uct9ioAAQAAJAAIAASBoA1flNUdt9igAQAAJAAIAAyBoA1S5R271tSwEgAASAAAABkDUAlsyJWu+DBgsAASAABAAIgKQBUB0Wtt8fFwACQAAIABAAWQOg+nHUfh8yVAAIAAEgAEAAZA2AGxZGLfg7BIAAEAACAARA1gCovhC24U8XAAJAAAgAEABZA6DljKgNP2dbASAABIAAAAGQNACqWxatMyteAAgAAQAIgC7zz1Ervuk0ASAABIAAAAGQNQBOODVqx9+1QAAIAAEgAEAAJA2A6rGwJf9JASAABIAAAAGQNQCqf4la8sNHCAABIAAEAAiArAEw8raoLb9juwAQAAJAAIAASBoA1b+GrflnBIAAEAACAARA1gCozo5a84c+IAAEgAAQACAAsgbAPTOj9vwjAkAACAABAAIgawBUn4ja8027CgABIAAEAAiArAHQel3Uoh81WgAIAAEgAEAAJA2A6s6+UZv+aQEgAASAAAABkDUAqr+O2vQTdhcAAkAACAAQAFkDYMb0qFW/R1e9DEAACAABAAiALndB2K6/WAAIAAEgAEAAZA2A6idRu37MXgJAAAgAAQACIGsA3Hd/1LL/qQAQAAJAAIAAyBoA1YfCtv2ZAkAACAABAAIgawC0HxK17ceNFwACQAAIABAASQOgGjEvat1/TwCEBsC/XrCueVgACAAQAHkCoHo6KgCapwqAyAA42DMoAAAB8C4MOz6qACZ2CAABIAAEAAiApAFQfaYpqgC6YJkJAAEgAAABEOSUqACYNFkACAABIABAAGQNgONujyqAewWAABAAAgAEQNYAqF4M+8Wv9QSAABAAAgAEQNYAqH4WFQDd+wgAASAABAAIgKwBMHlSVAEcKAAEgAAQACAAsgZA9fGwlwH0EAACQAAIABAAWQOg4+aoAujZIgAEgAAQACAAkgZA9dSiqAJ4SAAIAAEgAEAAZA2A6qWoAOh9tQAQAAJAAIAAyBoAC+6KKoCTBIAAEAACAARA1gCojgh7I/C1AkAACAABAAIgawBUX4kKgOkzBIAAEAACAARA1gBYfGJUAWwgAASAABAAIACyBkC1U1QAtM0WAAJAAAgAEABZA6D6t6gC6NcqAASAABAAIACyBsDB/aMK4AUBIAAEgAAAAZA1AKqtogJgyI0CQAAIAAEAAiBrALSuH1UA0wSAABAAAgAEQNYAqKY2RxXALAEgAASAAAABkDUAqgOiAmCLgQJAAAgAAQACIGsAnHBMVAF8WQAIAAEgAEAAZA2A6nNhLwPYUgAIAAEgAEAAZA2Aar+oAhg0WAAIAAEgAEAAZA2AkTtHFcDjAkAACAABAAIgawBU/x4VADOHCgABIAAEAAiArAHQfklUAdwhAASAABAAIACyBkB1zryoAjhdAAgAASAAQABkDYDq76ICYM62AkAACAABAAIgawC09osqgFMEgAAQAAIABEDWAKhmtwUFQNNpAkAACAABAAIgawBU/xF1BHDXAgEgAASAAAABkDUA5l4WVQCfFAACQAAIABAAWQOg+mpUAAwfIQAEgAAQACAAsgZA9bWoAtixXQAIAAEgAEAAZA2Ay+dHFcAzAkAACAABAAIgawBUL0cFwKEPCAABIAAEAAiArAHQcWVUATwiAASAABAAIACyBkD1N8OjXgawqwAQAAJAAIAAyBoA1c+jjgBGjRYAAkAACAAQAFkDYME1UQXwdKfvoU0ACAABAAiAOvtGU1AATNi9s7fQLAAEgAAABEC9fSrqCGCPzr4MYIIAEAACABAA9Xbc9VEFcHEn72CmABAAAgAQAHV3elQAjNmrczfQXwAIAAEACID6+3FUAfy0c/N7CwABIAAAAVB/NyyMKoAzOzV/vgAQAAIAEAAN8EJUAFzYrTPjDxUAAkAAAAKgATq+HlUA3+vM+NsEgAAQAIAAaIRbFgUFQPPUTkyfIwAEgAAABEBDHBh1BDCxY/XDrxcAAkAAAAKgIcafGlUAnVh2lwkAASAAAAHQGLdGvRG49+TVzu4uAASAAAAEQIP8NOoI4N7Vjr5bAAgAAQAIgAZZfFtUARy+utHjBIAAEACAAGiU/4wKgI37rGbyKAEgAAQAIAAa5qyoAjhwNYOvEQACQAAAAqBhNusfFADNPVY9eHsBIAAEACAAGufbUUcAPVtWOXeQABAAAgAQAI3Tel1UATy0yrknCwABIAAAAdBAd/YNCoAnrl7V2PUFgAAQAIAAaKRXoo4ATlrV1J4CQAAIAEAANFK3u6MK4NpVTJ0oAASAAAAEQEOtFxUA02esfOiVAkAACABAADTWq1EFsMHKZ14iAASAAAAEQGPdd39QALTNXunMRwWAABAAgABosH2jjgD6tdbv1EEAIAAAAbBm2h+MKoAXVjZyrAAQAAIAEACNdu68oAAYcuNKJp4iAASAAAAEQMPtFnUEMG0lA78jAASAAAAEQMMNOz6qAGateOBLAkAACABAADTeL9qCAuB9A+t05CAAEACAAFhz20UdAXx5heMeFwACQAAAAiCBubdHvQzglysa9ysBIAAEACAAMvjfUUcAgwavYNpFAkAACABAAKTws6gCeHwFw34tAASAAAAEQAqTJwUFwMyh7xw2QAAIAAEACIAcfhV1BHDHO2ddIAAEgAAABEAOHV+PKoDD3jHrCAEgAAQAIACSeGpRUADM2Xb5Ub8QAAJAAAACIIsvRh0BfHP5SVMFgAAQAIAAyGLBTUEB0LTrcpPOFQACQAAAAiCN85uCCmDU6GUH3SAABIAAAARAHr+J+kuADy87Z4kAEAACABAAeSw5MSgAJnx0mTmtTQJAAAgAQADk8euoI4CvdywzZ6EAEAACABAAiTwaVQDLrsDbBYAAEACAAEjk4IVBAdB7w6XHHC8ABIAAAARAJr+NOgJ4dekpNwsAASAAAAGQSev6UQVw+FJTpgkAASAAAAGQytTmoADYuM/bQ/YTAAJAAAACIJeDoo4A3v/2jO0EgAAQAIAAyOWEY4ICoPmWt2bsIwAEgAAABEAyn4s6Aji2/c0RTwoAASAAAAGQzeejCuDINyccJgAEgAAABEA2I3cOCoCdF/95wt4CQAAIAEAApHNx1BHA838eMFUACAABAAiAdNovCQqAtl+8MWCyABAAAgAQAPmcMzOoANZvef36g5sEgAAQAIAAyGeHqL8EuOKN6x8qAASAAAAEQD6tJwcFwJg3fg6wnwAQAAIAEAAJXdo3qACmvH75fxMAAkAAAAIgoy8HBUDf198HuJ0AEAACABAAGc24LKgAHvzT1X8kAASAAAAEQEpfjfo5wAGvXXxPASAABAAgAHI6KSgA7h5dVWcKAAEgAAABkNPkSUEF8LuqGioABIAAAARAUlcEBcD8JVXLcAEgAAQAIABy6jgkqABeqqprBIAAEACAAEhqxPCYb7mZV1c/EwACQAAAAiCrq4KOAJ6vDhQAAkAAAAIgqwV3xXzNLfrV5wWAABAAgABI6xtNtXWCAEAAAAKgK31TAAgAASAAQACUFwDHXS8ABIAAEAAgAIoLgGobASAABIAAAAFQXgBU3xIAAkAACAAQAOUFwA1PCAABIAAEAAiA4gKg2lQACAABIABAAJQXAB03CwABIAAEAAiA4gKgumWRABAAAkAAgAAoLgCq/QWAABAAAgAEQHkBMP5UASAABIAAAAFQXABUtzYJAAEgAAQACIDiAqAaKwAEgAAQACAAyguAxScKAAEgAAQACIDiAqA6UgAIAAEgAEAAlBcA1VkCQAAIAAEAAqC8ANisvwAQAAJAAIAAKC4Aqt8JAAEgAAQACIDyAqD1OgEgAASAAAABUFwAVHf2FQACQAAIABAAxQVA9R0BIAAEgAAAAVBeAJxwtwAQAAJAAIAAKC4AqmcFgAAQAAIABEB5AVDdKwAEgAAQACAAyguA++4XAAJAAAgAeLfaf3/ExVc9/8ir0x78P1u/+pvt9vnQ3kNbBUBu/yAABIAAEADwbgx95pRBw9/5oDSP+5eXb2kRAHmj7UEBIAAEgACAtTTs8J9ev6qnpfe0i5YIgKTOnScABIAAEACwFlr2/lQn/h550eZHzhUAKX1aAAgAASAAYI0tOPKmTn9vvnKDAMh4frO9ABAAAkAAwJqZ++T1a/LULHr1TgGQz+w2ASAABIAAgDXQ+uSkNX5wHq33KYAAWL2jBYAAEAACADrviEFr8+QMeXq0AMh2kHO7ABAAAkAAQCfttdbvkPuvzwqAZGYJAAEgAAQAdM6t16/9w9P0yjABkMt3BYAAEAACADqh9el39y/J9/xvAZDK5PkCQAAIAAEAq/+6OOrdPj+T/iAAUnlIAAgAASAAYHX+e9y7f4CathIAmXQcJQAEgAAQALBql97WJY/QKx0CIJGHJwgAASAABACsyuFDuugZ+kldfh9QAHTSPgJAAAgAAQCrMKC5yx6iHw8WAHksuEkACAABIABgpT47rwufopNaBUAe5zcJAAEgAAQArMQvFnbpYzQ2/ucABECnPSIAAlzx4nvIZgJAAFCsqV396+JHC4A8lswRAKzSvwsAAUCpllzY5Q/S9wVAHv8oABAAAgBWoGPrrn+Q+j4mAPJ4VAAgAAQAvNNVEU/SmBsFQBoHLxQACAABAMt7ti3kUfq/sa8DEABr4vsCAAEgAGA5Yf9o/PcEQBotZwgABIAAgGUdHbVUmnsIgDSmLhIACAABAEu7tC1sq/RsEQBpHCQAEAACAJbSenLgWvmCAEjjhGMEAAJAAMDbPha5Vp5YLADSeEwAIAAEALxl8N2heyXw5wAFwJr6iABAAAgAeNPFsXtl4QMCII2RtwkABIAAgDe0jApeLF8UAHnsKQAQAAIA3nBe9GJZOFcApNF+tgBAAAgAeN3W6+5mEQBr7pyZAgABIADgNc81h2+WYwVAIjsIAASAAIDX/LYOq2WEAMgj9K0PAkAACABYZ/Srw2r5uQBI5NK+AgABIADg9/VYLf8jADKZIgAQAAIA/rMeq6XpOQGQyIzpAgABIAAo3iN12S3nCYBMLhAACAABQPHurstuOVoApLKRAEAACAAK9/v67Ja7BEAq990vABAAAoCyPVuf3dI2WgCk8jEBgAAQAJTt43VaLh8UAKl0HCIAEAACgKJNqdNy+YMAyGXEPAGAABAAlOyOOi2X3wmAZJ4WAAgAAUDJ/qtOy+WbAiCZYccLAASAAKBgO9dpufxEAGTzmSYBgAAQAJSrXn8TvLUASOdLAgABIAAoVku9lsshAiCd424XAAgAAUCpjqvXcuknAPI5TwAgAAQApbq8XsvlVAGQ0LcEAAJAAFCokfVaLscLgIRueEIAIAAEAGUaXa/lMlEAZPSkAEAACAAKtahOy+USAZBRx80CAAEgACjT/Dotl+8KgJSeWiQAEAACgCJNr9NyGSsAcnpJACAABABFqtc/CneVAMhp/DgBgAAQAJRolzotl18LgKSOaBIACAABQIG+XaflcqcAyOoHAgABIAAo0Kw6LZeBAiCrxScKAASAAKA8H63Pbrk+5u4FQFd4RgAgAAQA5Wmvz78H/HkBkNgPBQACQABQno3qslsuEgCJbdZfACAABADF6VWX3XKjAMjscQGAABAAFKcuPwTQPejmBUDXaF1fACAABAClab+wDqtligDI7Z/6CgABIAAEAKW5qg6r5W8FQHIbCAABIAAEAKW5J/5NcH+MuncB0FVOuFsACAABIAAozZXhm+UFAZDeswJAAAgAAUBpLopeLBP2EgD53SsABIAAEAAUZvTtwYvlP8JuXQB0nefuFwACQAAIAAqzaexeGX61AHASJAAEgACAhEcA14fulVfi7lwAdKH2BwWAABAAAoDCfD9yrczbUACsG86dJwAEgAAQAJRl/LjAtfLpwBsXAF3qRwJAAAgAAUBhjoh7F8BNCwTAumLY9gJAAAgAAUBhfhC1VNp+GXnbAqBrzW4TAAJAAPhCoCyLbwtaKhuE3rYA6GLPCwABIAB8IVCYWTF/CfDHbgJgXTL3MgEgAAQAFOafI56k+++JvWkB0NUGCAABIACgMC1nBfwAwFeDb1oAdLmvCQABIACgMM91/RuBd4i+ZwHQ5S6fLwAEgACAwtz5RBc/R79pFwDrnl4CQAAIACjNL/t36WN0Umv4HQuArtdxpQAQAAIASvP/JnThU7T1gvgbFgABHp4gAASAAIDSzOrbZQ/R2aPrcL8CIMLPBYAAEABQnD8M6aJnaKPx9bhdARBhwTUCQAAIACjO7BO75BF6paMudysAQpzfJAAEgACA4gy9690/QH1frtPNCoAYuwgAASAAoDyLt363z8+cvet1rwIgxpI5AkAACAAoT/u+7+4HAX54ed1uVQAEOUwACAABACX64P+s/cMz78n2+t2oAIjyYwEgAAQAlGj8S8PX8tm55KP1vM8H9u5yt/qvH/TJLuUbdf/ztDzG6my47v1vemnIB3G155/C/X7s2nz9j3vRJwcA67TPnrymX/9jfjvMxwYA67rTHl2T3wc/5sluPjIAeC+45SszO/ft33TsgA4fFwC8V4w/fOzq/43A45++xycFAO8tM07f7o9tK/3y7/6Rl/3QLAC8Nw284Kr9/n7nZb/6J1130oEvbuizAYD3uLlP3fq5F/e84uWLX7xg16lLfB4AAAAAAAAAAAAAAAAAAAAAAAAAAAAAAAAAAAAAAAAAAAAAAAAAAAAAAAAAAAAAAAAAAAAAAAAAAAAAAAAAAAAAAAAAAAAAAAAAAAAAAAAAAAAAAAAAAAAAAAAAAAAAAAAAAAAAAAAAAAAAAAAAAAAAAAAAAAAAAAAAAAAAAAAAAAAAAAAAAAAAAAAAAAAAAAAAAAAAAAAAAAAAAAAAAAAAAAAAAAAAAAAAAAAAAAAAAAAAAAAAAAAAAAAAAAAAAAAAAAAAAAAAAAAAAAAAAAAAAAAAAAAAAAAAAAAAAAAAAAAAAAAAAAAAAAAAAAAAAAAAAAAAAAAAAAAAAAAAAAAAAAAAAAAAAAAAAAAAAAAAAAAAAAAAAAAAAAAAAAAAAAAAAAAAAAAAAAAAAAAAAAAAAAAAAAAAAAAAAAAAAAAAAAAAAAAAAAAAAAAAAAAAAAAAAAAAAAAAAAAAAAAAAAAAAAAAAAAAAAAAAAAAAAAAAAAAAAAAAAAAAAAAAAAAAAAAAAAAAAAAAAAAAAAAAAAAAAAAAAAAAAAAAAAAAAAAAAAAAAAAAAAAAAAAAAAAAAAAAAAAAAAAAAAAAAAAAAAAAAAAAAAAAAAAAAAAAAAAAAAAAAAAAAAAAAAAAAAAAAAAAAAAAAAAAAAAAAAAAAAAAAAAAAAAAAAAAAAAAAAAAAAAAAAAAAAAAAAAAAAAAAAAAAAAAAAAAAAAAAAAAAAAAAAAAAAAAAAAAAAAAAAAAAAAAAAAAAAAAAAAAAAAAAAAAAAAAAAAAAAAAAAAAAAAAAAAAAAAAAAAAAAAAAAAAAAAAAAAAAAAAAAAAAAAAAAAAAAAAAAAAAAAAAAAAAAAAAAAAAAAAAAAAAAAAAAAAAAAAAAAAAAAAAAAAAAAAAAAAAAAAAAAAAAAAAAAAAAAAAAAAAAAAAAAAAAAAAAAAAAAAAAAAAAAAAAAAAAAAAAAAAAAAAAAAAAAAAAAAAAAAAAAAAAAAAAAAAAAAAAAAAAAAAAAAAAAAAAAAAAAAAAAAAAAAAAAAAAAAAAAAAAAAAAAAAAAAAAAAAAAAAAAAAAAAAAAAAAAAAAAAAAAAAAAAAAAAAAAAAAAAAAAAAAAAAAAAAAAAAAAAAAAAAAAAAAAAAAAAAAAAAAAAAAAAAAAAAAAAAAAAAAAAAAAAAAAAAAAAAAAAAAAAAAAAAAAAAAAAAAAAAAAAAAAAAAAAAAAAAAAAAAAAAAAAAAAAAAAAAAAAAAAAAAAAAAAAAAAAAAAAAAAAAAAAAAAAAAAAAAAAAAAAAAAAAAAAAAAAAAAAAAAAAAAAAAAAAAAAAAAAAAAAAAAAAAAAAAAAAAAAAAAAAAAAAAAAAAAAAAAAAAAAAAAAAAAAAAAAAAAAAAAAAAAAAAAAAAAAAAAAAAAAAAAAAAAAAAAAAAAAAAAAAAAAAAAAAAAAAAAAAAAAAAAAAAAAAAAAAAAAAAAAAAAAAAAAAAAAAAAAAAAAAAAAAAAAAAAAAAAAAAAAAAAAAAAAAAAAAAAAAAAAAAAAAAAAAAAAAAAAAAAAAAAAAAAAAAAAAAAAAAAAAAAAAAAAAAAAAAAAAAAAAAAAAAAAAAAAAAAAAAAAAAAAAAAAAAAAAAAAAAAAAAAAAAAAAAAAAAAAAAAAAAAAAAAAAAAAAAAAAAAAAAAAAAAAAAAAAAAAAAAAAAAAAAAAAAAAAAAAAAAAAAAAAAAAAAAAAAAAAAAAAAAAAAAAAAAAAAAAAAAAAAAAAAAAAAAAAAAAAAAAAAAAAAAAAAAAAAAAAAAAAAAAAAAAAAAAAAAAAAAAAAAAAAAAAAAAAAAAAAAAAAAAAAAAAAAAAAAAAAAAAAAAAAAAAAAAAAAAAAAAAAAAAAAAAAAAAAAAAAAAAAAAAAAAAAAAAAAAAAAAAAAAAAAAAAAAAAAAAAAAAAAAAAAAAAAAAAAAAAAAAAAAAAAAAAAkMb/B1e+V0B3UNUyAAAAJXRFWHRkYXRlOmNyZWF0ZQAyMDI0LTA3LTExVDA4OjA1OjI5KzAwOjAwWFp+7AAAACV0RVh0ZGF0ZTptb2RpZnkAMjAyNC0wNy0xMVQwODowNToyOSswMDowMCkHxlAAAAAASUVORK5CYII=;" parent="1" vertex="1">
          <mxGeometry x="340" y="350" width="30" height="30" as="geometry" />
        </mxCell>
        <mxCell id="272sHSoe-_pz2Ps7QQTc-37" value="" style="shape=image;aspect=fixed;image=data:image/png,iVBORw0KGgoAAAANSUhEUgAACAAAAAgACAMAAACFeSMCAAAABGdBTUEAALGPC/xhBQAAACBjSFJNAAB6JgAAgIQAAPoAAACA6AAAdTAAAOpgAAA6mAAAF3CculE8AAAC+lBMVEVRK9SIbuH///+FauH+/v/v6/tZNNbd1fexoOyzouzq5fqunOv8/P5yVNzb0/ZTLdWahOb18/1jQdnGuvGGbOHr5vpZNdb9/f50Vd3f2PdULtWdiOf39v1nRtnNwfOJb+Lu6vtcONe1pO3+/f94Wt7g2vdUL9WhjOj49/1oR9rOw/OMc+NdOde5qe55XN7i2/hVMNWkkOn6+f5sS9vTyvRSLNSQd+Tx7vxfPNe8ru5+Yt/l3/lWMtWoleltTdvVy/WTfOTz8PxgPdjAsu9/ZN/m4flXMtarmer7+v5uT9vZ0fZSLdSXgOX18/xjQdjDtvCuneuyoey1pe2vnuuxn+xmRdnWzfWXgeXy7/xxUtyOdePNwvOGa+F9YN/r5/qReeSplurCtPBaNtbXz/W4qe3o4/luTtv5+P3VzPVbN9eKcOJsTNvi3Ph3Wd2YgeachuekkOhYM9bw7fulkem7re7Hu/GnlOnv7Pve1/e5qu7n4vl6Xd6NdOPc1faAZOBbN9bQxvPRxvRqStprS9pzVdx7Xt6McuJ8X99/Y9+DaeDp5PrUy/SCZ+CVfuXCtfCfiueUfOXRx/T6+P6smuumkul2WN26q+62pu2+sO/s6PqEaeHIvPFiQNj08vyZgubXzvXZ0Paql+pkQtna0vZWMdXj3fh7X96HbeG7rO7e1vft6fvKvvJlRNn39f1oRtrk3vjY0PVwUdz8+/59Yd9eO9fx7vvt6frPxPOjj+h1V92zo+zk3/jo5PlqSdrEt/BhP9jz8fyWf+VfPNjSyPTIvPKbheZvUNusmuq9ru9dOteOduPLwPKfi+eBZuCijej29P2dh+dwUNyoleq/se+QeOTPxfN0Vt2DaOBhPtimk+m3qO2eiefKv/Kwn+vBs/CTe+TGufHAs++LcuLJvfKtm+vMwfKVfeW3p+2Zg+aqmOqSeuS0pOzFuPF3Wt15W96bhuaKceKPd+O9r++gi+iijuhlQ9nTyfTm4PlpSNqIbuLc1Pbg2ffh2viBZeBlDZ11AAAAAWJLR0QCZgt8ZAAAAAd0SU1FB+gHCwgFHtqJ8MAAADAiSURBVHja7d2Lu5Z1mejxZ15XONKCBTqCLFFkliB4SASXouABESSWoOIhEcVCDWWk0jI842HSdGcpjZUlmg5mmnhA1MzjaJqMecxG02amzJmx0Wp32jPtaV/XNk0F5LDAdb/vjb/P5w947odXn/v9Xj/WeqgqAAAAAAAAAAAAAAAAAAAAAAAAAAAAAAAAAAAAAAAAAAAAAAAAAAAAAAAAAAAAAAAAAAAAAAAAAAAAAAAAAAAAAAAAAAAAAAAAAAAAAAAAAAAAAAAAAAAAAAAAAAAAAAAAAAAAAAAAAAAAAAAAAAAAAAAAAAAAAAAAAAAAAAAAAAAAAAAAAAAAAAAAAAAAAAAAAAAAAAAAAAAAAAAAAAAAAAAAAAAAAAAAAAAAAAAAAAAAAAAAAAAAAAAAAAAAAAAAAAAAAAAAAAAAAAAAAAAAAAAAAAAAAAAAAAAAAAAAAAAAAAAAAAAAAAAAAAAAAAAAAAAAAAAAAAAAAAAAAAAAAAAAAAAAAAAAAAAAAAAAAAAAAAAAAAAAAAAAAAAAAAAAAAAAAAAAAAAAAAAAAAAAAAAAAAAAAAAAAAAAAAAAAAAAAAAAAAAAAAAAAAAAAAAAAAAAAAAAAAAAAAAAAAAAAAAAAAAAAAAAAAAAAAAAAAAAAAAAAAAAAAAAAAAAAAAAAAAAAAAAAAAAAAAAAAAAAAAAAAAAAAAAAAAAAAAAAAAAAAAAAAAAAAAAAAAAAAAAAAAAAAAAAAAAAAAAAAAAAAAAAAAAAAAAAAAAAAAAAAAAAAAAAAAAAAAAAAAAAAAAAAAAAAAAAAAAAAAAAAAAAAAAAAAAAAAAAAAAAAAAAAAAAAAAAAAAAAAAAAAAAAAAAAAAAAAAAAAAAAAAAAAAAAAAAAAAAAAAAAAAAAAAAAAAAAAAAAAAAAAAAAAAAAAAAAAAAAAAAAAAAAAAAAAAAAAAAAAAAAAAAAAAAAAAAAAAAAAAAAAAAAAAAAAAAAAAAAAAAAAAAAAAAAAAAAAAAAAAAAAAAAAAAAAAAAAAAAAAAAAAAAAAAAAAAAAAAAAAAAAAAAAAAAAAAAAAAAAAAAAAAAAAAAAAAAAAAAAAAAAAAAAAAAAAAAAAAAAAAAAAAAAAAAAAAAAAAAAAAAAAAAAAAAAAAAAAAAAAAAAAAAAAAAAAAAAAAAAAAAAAAAAAAAAAAAAAAAAAAAAAAAAAAAAAAAAAAAAAAAAAAAAAAAAAAAAAAAAAAAAAAAAAAAAAAAAAAAAAAAAAAAAAAAAAAAAAAAAAAAAAAAAAAAAAAAAAAAAAAAAAAAAAAAAAAAAAAAAAAAAAAAAAAAAAAAAAAAAAAAAAAAAAAAAAAAAAAAAAAAAAAAAAAAAAAAAAAAAAAAAAAAAAAAAAAAAAAAAAAAAAAAAAAAAAAAAAAAAAAAAAAAAAAAAAAAAAAAAAAAAAAAAAAAAAAAAAAAAAAAAAAAAAAAAAAAAAAAAAAAAAAAAAAAAAAAAAAAAAAAAAAAAAAAAAAAAAAAAAAAAAAAAAAAAAAAAAAAAAAAAAAAAAAAAAAAAAAAAAAAAAAAAAAAAAAAAAAAAAAAAAAAAAAAAAAAAAAAAAAAAAAAAAAAAAAAAAAAAAAAAAAAAAAAAAAAAAAAAAAAAAAAAAAAAAAAAAAAAAAAAAAAAAAAAAAAAAAAAAAAAAAAAAAAAAAAAAAAAAAAAAAAAAAAAAAAAAAAAAAAAAAAAAAAAAAAAAAAAAAAAAAAAAAAAAAAAAAAAAAAAAAAAAAAAAAAAAAAAAAAAAAAAAAAAAAAAAAAAAAAAAAAAAAAAAAAAAAAAAAAAAAAAAAAAAAAAAAAAAAAAAAAAAAAAAAAAAAAAAAAAAAAAAAAAAAAAAAAAAAAAAAAAAAAAAAAAAAAAAAAAAAAAAAAAAAAAAAAAAAAAAAAAAAAAAAAAAAAAAAAAAAAAAAAAAAAAAAAAAAAAAAAAAAAAAAAAAAAAAAAAAAAAAAAAAAAAAAAAAAAAAAAAAAAAAAAAAAAAAAAAAAAAAAAAAAAAAAAAAAAAAAAAAAAAAAAAAAAAAAAAAAAAAAAAAAAAAAAAAAAAAAAAAAAAAAAAAAAAAAAAAAAAAAAAAAAAAAAAAAAAAAAAAAAAAAAAAAAAAAAAAAAAAAAAAAAAAAAAAAAAAAAAAAAAAAAAAAAAAAAAAAAAAAAAAAAAAALrSX9TqYL3SP+WmLv9I31f3P0O3Giuyfqc/wb/0YTXUBtY9NCAAuncTAAJAAPiwBAAUFwC19wsAASAAfFgCAMoLgOYeAkAACAAEABQXALWeLQJAAAgABAAUFwC1XgJAAAgABACUFwC9NxQAAkAAIACguACobSQABIAAQABAeQFQ+ysBIAAEAAIAyguAjfsIAAEgABAAUFwA1P5SAAgAAYAAgPICoO8mAkAACAAEABQXALV+rQJAAAgABAAUFwC1TQWAABAACAAoLwD6byYABIAAQABAcQFQ21wACAABgACA8gKgNkAACAABgACA8gJgi4ECQAAIAAQAFBcAtb8WAAJAACAAoLwAaNtSAAgAAYAAgOICoDZosAAQAAIAAQDFBUBtKwEgAAQAAgDKC4AhQwWAABAACAAoLgBqWwsAASAAEABQXgDUthEAAkAAIACgvAB437YCQAAIAAQAFBcAte0EgAAQAAgAKC8A2j4gAASAAEAAQHEBUNt+mAAQAAIAAQDFBUBtBwEgAAQAAgDKC4DhIwSAABAACAAoLgBqO7YLAAEgABAAUFwA1HYSAAJAACAAoLwA2HmkABAAAgABAMUFQG0XASAABAACAMoLgKZdBYAAEAAIACguAGqjRgsAASAAEABQXADUdhMAAkAAIACgvAAYvrsAEAACAAEAxQVAbY9SXgYgAASAABAAIACWsqcAEAACAAEA5QXAmL0EgAAQAAgAKC4AamMFgAAQAAgAKC8AansLAAEgABAAUF4AjBsvAASAAEAAQHEBUNtHAAgAAYAAgPICYMIHBYAAEAAIACguAGoTOwSAABAACAAoLgBq+woAASAAEABQXgBMmiwABIAAQABAcQFQ208ACAABgACA8gKgtp4AEAACAAEA5QVA924CQAAIAAQAFBcAtf0FgAAQAAgAKC8AmnsIAAEgABAAUFwA1Hq2CAABIAAQAFBcANR6CQABIAAQAFBeAPTeUAAIAAGAAIDiAqC2kQAQAAIAAQDlBUDtrwSAABAACAAoLwA27iMABIAAQABAcQFQO0AACAABgACA8gKg7yYCQAAIAAQAFBcAtX6tAkAACAAEABQXALVNBYAAEAAIACgvAIZsJgAEgABAAEBxAVDbXAAIAAGAAIDyAqA2QAAIAAGAAIDyAmCLgQJAAAgABAAUFwC1KQJAAAgABACUFwBtWwoAASAAEABQXADUBg0WAAJAACAAoLgAqG0lAASAAEAAQHkBMGSoABAAAgABAMUFQG1rAVBQADSv6yZ2+hM8MOPtN4X8V23L+Ec9yLqH9AFQ20YAlBMAB3sGG+qQkP+qH/LBggBYuy+3bQWAAEAAAMUFQG07ASAAEABAeQHQ9gEBIAAQAEBxAVDbfpgAEAAIAKC4AKjtIAAEAAIAKC8Aho8QAAIAAQAUFwC1HdsFgABAAADFBUBtJwEgABAAQHkBcOhIASAAEABAcQFQ20UACAAEAFBeADTtKgAEAAIAKC4AaqNGCwABgAAAiguA2m4CQAAgAIDyAmDC7gJAACAAgOICoLbHe+VlAAJAAAgAQACsgT0FgABAAADlBcCYvQSAAEAAAMUFQG2sABAACACgvACo7S0ABAACACgvAMaNFwACAAEAFBcAtX0EgABAAADlBUDzVAEgABAAQHEBUJvYIQAEAAIAKC4AavsKAAGAAADKC4BJkwWAAEAAAMUFQG0/ASAAEABAeQFQW08ACAAEAFBeAHTvJgAEAAIAKC4AavsLAAGAAADKC4DmHgJAACAAgOICoNazRQAIAAQAUFwA1HoJAAGAAADKC4DeGwoAAYAAAIoLgNpGAkAAIACAvAFw2N7TYr4pDhcAAgABAKQNgA9UR8R8U0zvIwAEAAIAyBoAR1bVoJivigMEgABAAABZA+DDVdUr5qui7yYCQAAgAICkAfCRqprRO+a7ol+rABAACAAgZwAc9dpFjw76TYBNBYAAQAAAOQPgmNcu+tGmmC+LIZsJAAGAAABSBsDMP1312KAjgM0FgABAAAApA6B23GtXnRX1OqBZAkAAIACAlAHwN69dteP4oADYYqAAEAAIACBjABzxp8vuGXUEMEUACAAEAJAxALb502UHbxwUAG2zBYAAQAAACQPgY69f9+NRRwCDBgsAAYAAAPIFwCdev+4JJ0YVwFYCQAAgAIB8AXDgGxf+ZFQADBkqAAQAAgBIFwCfeuPCA3tHFcA0ASAAEABAugA46c9X/nRUALzxY4YCQAAgAIBMAbDjn6/c531RATBnWwEgABAAQLIAOPnNS/cKOwI4RQAIAAQAkCwATn3z0oPHRQVA22kCQAAgAIBcATDnrWufHnYEsP0wASAAEABAqgDo/9a1288IK4AdBIAAQAAAqQKgqeWti58ZFgDDRwgAAYAAADIFQG3u21c/K6wAzhYAAgABAKQKgMlvX/2c4WEFsJMAEAAIACBTAJy71OX3DwuAQ0cKAAGAAAASBcDfLnX5E7qHFcAuAkAAIACARAHwmaWvf15YADSdLwAEAAIAyBMAn11mwNZhBTBqtAAQAAgAIE0AXLDMgMCfA9xNAAgABACQJgD+YtkJ7w8LgAm7CwABgAAAsgTAcv9ab7cLwwrgf7ULAAGAAACSBMCRy434XFgA1PYUAAIAAQAkCYCLlp/x+bAAGLOXABAACAAgRwD0Wn7GyJ3DCmCsABAACAAgRwB84R1DLo77S4AzBYAAQAAAKQLgE+8Y0n5JWACMGy8ABAACAMgQACv49fxz5oUVwD4CQAAgAIAMAfDFFYz5u7AAaJ4qAAQAAgBIEAAHrWBM68lhBTCxQwAIAAQA0PgAmLKiOZf2DSuAfQWAAEAAAI0PgC+tcNCXwwJg0mQBIAAQAEDDA+ArKxw097KwAthPAAgABADQ8ABYyffxV+NeBrCeABAACACg0QHwtZWMOiksALp3EwACAAEANDgANl/JqMvnhxXA/gJAACAAgAYHwNkrm3VF3MsAeggAAYAAABobAMeubFbHlaW+DEAACAABALz3A+ColQ4bMTysAHoJAAGAAAAaGgBfX/m0q8ICoPfVAkAAIACARgbA36982oJrwgpgIwEgABAAQCMDoOcqxn2jKawArhUAAgABADQwAM5Y1bxvhgXA9D4CQAAgAIDGBcB1q5p33PVhBXCAABAACACgcQHQb5UDtwkLgL6bCAABgAAAGhYAg1Y98VthBdCvVQAIAAQA0KgA2H7VE29YGFYAmwoAAYAAABoVAMevZuSmYQEw5EYBIAAQAECDAuCm1YzsuDmsAKYJAAGAAAAaFACjVjfzlkVhBTBAAAgABADQmAAYt9qh+4cFwBYDBYAAQAAADQmAY1Y7dPypYQUwRQAIAAQA0JAAuHD1U28NeyNw25YCQAAgAIBGBED3TowdG3YEMGiwABAACACgAQEwvRNjF98WVgBbCQABgAAAGhAAt3dm7pFxLwMYKgAEAAIAqH8AbNGpwWeFFcAdAkAAIACA+gfAnE4N3qx/WAFsIwAEAAIAqHsA3Na5yd8OC4A52woAAYAAAOodADt3bnLrdWEFsJ0AEAAIAKDeATCmk6Pv7Bv2MoDTBIAAQAAAdQ6A+Z2d/Z2wI4C7FggAAYAAAOobAL07/ZVyd1gB7CAABAACAKhvACzs9PD1wgJg3j0CQAAgAICkAVDdG1YAO7YLAAGAAACSBsB994cVwE4CQAAgAICkAVD9Q1gAHPqAABAACAAgaQC0PxhWALsIAAGAAACSBkB17ryoAGjaVQAIAAQAkDQAqt3CjgBGjRYAAgABACQNgGHbhxXAbgJAACAAgKQBUM1uiwqACbsLAAGAAACSBkB1dNgRwB5ZXgYgAASAAAAEwPLm3h5WAHsKAAGAAACSBkA1KywAxuwlAAQAAgBIGgDVd8MKYKwAEAAIACBrAEyeFFYAZwoAAYAAAJIGQPVQWACMGy8ABAACAEgaAB1HhRXAPgJAACAAgKQBUD28KCoAmqcKAAGAAACSBkD1vbAjgIkdAkAAIACApAGw4KawAthXAAgABACQNACq85uiAmDSZAEgABAAQNIAqB4JOwLYTwAIAAQAkDUAlpwYVgDrCQABgAAAkgZA9Y9hAdC9jwAQAAgAIGkAVI+GFcD+AkAAIACArAFw8MKwlwH0EAACAAEAJA2A6vthRwA9WwSAAEAAAEkDoOWMsALoJQAEAAIASBoA1dRFUQHQ+2oBIAAQAEDSAKgOCjsC2EgACAAEAJA1AE44JqwArhUAAgABACQNgOqxsACYPkMACAAEAJA0AKqPhBXAAQJAACAAgKwBMHLnqADou4kAEAAIACBpAFR7hh0B9GsVAAIAAQAkDYD2s8MKYFMBIAAQAEDSAKjOmRkVAENuFAACAAEAJA2AaoewI4BpAkAAIACArAHQenJYAQwQAAIAAQAkDYDq0r5RAbDFQAEgABAAQNIAqKaEHQFMEQACAAEAZA2AGdOjAqBtSwEgABAAQNIAqC4IOwIYNFgACAAEAJA0AKqNwgrgcQGQKQA+NGBd00MACAAQAIEBcN/8sJcBDBUAiQJg3XOKABAAIAACA6D6WNgCv0MACAABIABAAGQNgI5Dwjb4NgJAAAgAAQACIGkAVCOGR23wOdsKAAEgAAQACICkAVB9OGyFbycABIAAEAAgALIGwILjo1Z422kCQAAIAAEAAiBpAFSfaYra4XctEAACQAAIABAASQOg+lLYEv+kABAAAkAAgADIGgDH3R61xIePEAACQAAIABAASQOgOi9si+/YLgAEgAAQACAAkgZA9a2wNb6TABAAAkAAgADIGgA3PBG1xg99QAAIAAEgAEAAJA2A6smwPb6LABAAAkAAgADIGgAdN0ft8aZdBYAAEAACAARA0gConloUtchHjRYAAkAACAAQAEkDoHp/2CZ/WgAIAAEgAEAAZA2A8eOiNvmE3QWAABAAAgAEQNIAqI4IeyPwHvV6GYAAEAACABAAa+wHYbv8YgEgAASAAAABkDUAFp8YtcvH7CUABIAAEAAgAJIGQPVM2DIfKwAEgAAQACAAsgZA9cOwbX6mABAAAkAAgADIGgCb9Y/a5uPGCwABIAAEAAiApAFQPR62zvcRAAJAAAgAEABZA6B1/ah13jxVAAgAASAAQAAkDYDqn/pG7fOJHQJAAAgAAQACIGkAVBuELfQ6LCsBIAAEACAA1s4Jd0ct9EmTBYAAEAACAARA0gCong3b6PsJAAEgAAQACICsAVDdG7bS1xMAAkAACAAQAFkD4Ln7o1Z69z4CQAAIAAEAAiBpAFQXhe30/QWAABAAAgAEQNYAaH8waqc39xAAAkAACAAQAEkDoDp3XtRS79kiAASAABAAIACSBkD1o7Ct/pAAEAACQACAAMgaAMO2j9rqva8WAAJAAAgAEABJA6Ca3Ra11k8SAAJAAAgAEABZA6B6PmyvXysABIAAEAAgALIGwNzLovb69BkCQAAIAAEAAiBpAFQDwhb7AQJAAAgAAQACIGsAVN+NWuxtswWAABAAAgAEQNYAuHx+1Gbv1yoABIAAEAAgAJIGQNUrbLW/IAAEgAAQACAAsgZAx5VRq33IjQJAAAgAAQACIGkAVA9PiNrt0wSAABAAAgAEQNYAqPYJW+6zBIAAEAACAARA1gBYcE3Uct9ioAAQAAJAAIAASBoA1flNUdt9igAQAAJAAIAAyBoA1S5R271tSwEgAASAAAABkDUAlsyJWu+DBgsAASAABAAIgKQBUB0Wtt8fFwACQAAIABAAWQOg+nHUfh8yVAAIAAEgAEAAZA2AGxZGLfg7BIAAEAACAARA1gCovhC24U8XAAJAAAgAEABZA6DljKgNP2dbASAABIAAAAGQNACqWxatMyteAAgAAQAIgC7zz1Ervuk0ASAABIAAAAGQNQBOODVqx9+1QAAIAAEgAEAAJA2A6rGwJf9JASAABIAAAAGQNQCqf4la8sNHCAABIAAEAAiArAEw8raoLb9juwAQAAJAAIAASBoA1b+GrflnBIAAEAACAARA1gCozo5a84c+IAAEgAAQACAAsgbAPTOj9vwjAkAACAABAAIgawBUn4ja8027CgABIAAEAAiArAHQel3Uoh81WgAIAAEgAEAAJA2A6s6+UZv+aQEgAASAAAABkDUAqr+O2vQTdhcAAkAACAAQAFkDYMb0qFW/R1e9DEAACAABAAiALndB2K6/WAAIAAEgAEAAZA2A6idRu37MXgJAAAgAAQACIGsA3Hd/1LL/qQAQAAJAAIAAyBoA1YfCtv2ZAkAACAABAAIgawC0HxK17ceNFwACQAAIABAASQOgGjEvat1/TwCEBsC/XrCueVgACAAQAHkCoHo6KgCapwqAyAA42DMoAAAB8C4MOz6qACZ2CAABIAAEAAiApAFQfaYpqgC6YJkJAAEgAAABEOSUqACYNFkACAABIABAAGQNgONujyqAewWAABAAAgAEQNYAqF4M+8Wv9QSAABAAAgAEQNYAqH4WFQDd+wgAASAABAAIgKwBMHlSVAEcKAAEgAAQACAAsgZA9fGwlwH0EAACQAAIABAAWQOg4+aoAujZIgAEgAAQACAAkgZA9dSiqAJ4SAAIAAEgAEAAZA2A6qWoAOh9tQAQAAJAAIAAyBoAC+6KKoCTBIAAEAACAARA1gCojgh7I/C1AkAACAABAAIgawBUX4kKgOkzBIAAEAACAARA1gBYfGJUAWwgAASAABAAIACyBkC1U1QAtM0WAAJAAAgAEABZA6D6t6gC6NcqAASAABAAIACyBsDB/aMK4AUBIAAEgAAAAZA1AKqtogJgyI0CQAAIAAEAAiBrALSuH1UA0wSAABAAAgAEQNYAqKY2RxXALAEgAASAAAABkDUAqgOiAmCLgQJAAAgAAQACIGsAnHBMVAF8WQAIAAEgAEAAZA2A6nNhLwPYUgAIAAEgAEAAZA2Aar+oAhg0WAAIAAEgAEAAZA2AkTtHFcDjAkAACAABAAIgawBU/x4VADOHCgABIAAEAAiArAHQfklUAdwhAASAABAAIACyBkB1zryoAjhdAAgAASAAQABkDYDq76ICYM62AkAACAABAAIgawC09osqgFMEgAAQAAIABEDWAKhmtwUFQNNpAkAACAABAAIgawBU/xF1BHDXAgEgAASAAAABkDUA5l4WVQCfFAACQAAIABAAWQOg+mpUAAwfIQAEgAAQACAAsgZA9bWoAtixXQAIAAEgAEAAZA2Ay+dHFcAzAkAACAABAAIgawBUL0cFwKEPCAABIAAEAAiArAHQcWVUATwiAASAABAAIACyBkD1N8OjXgawqwAQAAJAAIAAyBoA1c+jjgBGjRYAAkAACAAQAFkDYME1UQXwdKfvoU0ACAABAAiAOvtGU1AATNi9s7fQLAAEgAAABEC9fSrqCGCPzr4MYIIAEAACABAA9Xbc9VEFcHEn72CmABAAAgAQAHV3elQAjNmrczfQXwAIAAEACID6+3FUAfy0c/N7CwABIAAAAVB/NyyMKoAzOzV/vgAQAAIAEAAN8EJUAFzYrTPjDxUAAkAAAAKgATq+HlUA3+vM+NsEgAAQAIAAaIRbFgUFQPPUTkyfIwAEgAAABEBDHBh1BDCxY/XDrxcAAkAAAAKgIcafGlUAnVh2lwkAASAAAAHQGLdGvRG49+TVzu4uAASAAAAEQIP8NOoI4N7Vjr5bAAgAAQAIgAZZfFtUARy+utHjBIAAEACAAGiU/4wKgI37rGbyKAEgAAQAIAAa5qyoAjhwNYOvEQACQAAAAqBhNusfFADNPVY9eHsBIAAEACAAGufbUUcAPVtWOXeQABAAAgAQAI3Tel1UATy0yrknCwABIAAAAdBAd/YNCoAnrl7V2PUFgAAQAIAAaKRXoo4ATlrV1J4CQAAIAEAANFK3u6MK4NpVTJ0oAASAAAAEQEOtFxUA02esfOiVAkAACABAADTWq1EFsMHKZ14iAASAAAAEQGPdd39QALTNXunMRwWAABAAgABosH2jjgD6tdbv1EEAIAAAAbBm2h+MKoAXVjZyrAAQAAIAEACNdu68oAAYcuNKJp4iAASAAAAEQMPtFnUEMG0lA78jAASAAAAEQMMNOz6qAGateOBLAkAACABAADTeL9qCAuB9A+t05CAAEACAAFhz20UdAXx5heMeFwACQAAAAiCBubdHvQzglysa9ysBIAAEACAAMvjfUUcAgwavYNpFAkAACABAAKTws6gCeHwFw34tAASAAAAEQAqTJwUFwMyh7xw2QAAIAAEACIAcfhV1BHDHO2ddIAAEgAAABEAOHV+PKoDD3jHrCAEgAAQAIACSeGpRUADM2Xb5Ub8QAAJAAAACIIsvRh0BfHP5SVMFgAAQAIAAyGLBTUEB0LTrcpPOFQACQAAAAiCN85uCCmDU6GUH3SAABIAAAARAHr+J+kuADy87Z4kAEAACABAAeSw5MSgAJnx0mTmtTQJAAAgAQADk8euoI4CvdywzZ6EAEAACABAAiTwaVQDLrsDbBYAAEACAAEjk4IVBAdB7w6XHHC8ABIAAAARAJr+NOgJ4dekpNwsAASAAAAGQSev6UQVw+FJTpgkAASAAAAGQytTmoADYuM/bQ/YTAAJAAAACIJeDoo4A3v/2jO0EgAAQAIAAyOWEY4ICoPmWt2bsIwAEgAAABEAyn4s6Aji2/c0RTwoAASAAAAGQzeejCuDINyccJgAEgAAABEA2I3cOCoCdF/95wt4CQAAIAEAApHNx1BHA838eMFUACAABAAiAdNovCQqAtl+8MWCyABAAAgAQAPmcMzOoANZvef36g5sEgAAQAIAAyGeHqL8EuOKN6x8qAASAAAAEQD6tJwcFwJg3fg6wnwAQAAIAEAAJXdo3qACmvH75fxMAAkAAAAIgoy8HBUDf198HuJ0AEAACABAAGc24LKgAHvzT1X8kAASAAAAEQEpfjfo5wAGvXXxPASAABAAgAHI6KSgA7h5dVWcKAAEgAAABkNPkSUEF8LuqGioABIAAAARAUlcEBcD8JVXLcAEgAAQAIABy6jgkqABeqqprBIAAEACAAEhqxPCYb7mZV1c/EwACQAAAAiCrq4KOAJ6vDhQAAkAAAAIgqwV3xXzNLfrV5wWAABAAgABI6xtNtXWCAEAAAAKgK31TAAgAASAAQACUFwDHXS8ABIAAEAAgAIoLgGobASAABIAAAAFQXgBU3xIAAkAACAAQAOUFwA1PCAABIAAEAAiA4gKg2lQACAABIABAAJQXAB03CwABIAAEAAiA4gKgumWRABAAAkAAgAAoLgCq/QWAABAAAgAEQHkBMP5UASAABIAAAAFQXABUtzYJAAEgAAQACIDiAqAaKwAEgAAQACAAyguAxScKAAEgAAQACIDiAqA6UgAIAAEgAEAAlBcA1VkCQAAIAAEAAqC8ANisvwAQAAJAAIAAKC4Aqt8JAAEgAAQACIDyAqD1OgEgAASAAAABUFwAVHf2FQACQAAIABAAxQVA9R0BIAAEgAAAAVBeAJxwtwAQAAJAAIAAKC4AqmcFgAAQAAIABEB5AVDdKwAEgAAQACAAyguA++4XAAJAAAgAeLfaf3/ExVc9/8ir0x78P1u/+pvt9vnQ3kNbBUBu/yAABIAAEADwbgx95pRBw9/5oDSP+5eXb2kRAHmj7UEBIAAEgACAtTTs8J9ev6qnpfe0i5YIgKTOnScABIAAEACwFlr2/lQn/h550eZHzhUAKX1aAAgAASAAYI0tOPKmTn9vvnKDAMh4frO9ABAAAkAAwJqZ++T1a/LULHr1TgGQz+w2ASAABIAAgDXQ+uSkNX5wHq33KYAAWL2jBYAAEAACADrviEFr8+QMeXq0AMh2kHO7ABAAAkAAQCfttdbvkPuvzwqAZGYJAAEgAAQAdM6t16/9w9P0yjABkMt3BYAAEAACADqh9el39y/J9/xvAZDK5PkCQAAIAAEAq/+6OOrdPj+T/iAAUnlIAAgAASAAYHX+e9y7f4CathIAmXQcJQAEgAAQALBql97WJY/QKx0CIJGHJwgAASAABACsyuFDuugZ+kldfh9QAHTSPgJAAAgAAQCrMKC5yx6iHw8WAHksuEkACAABIABgpT47rwufopNaBUAe5zcJAAEgAAQArMQvFnbpYzQ2/ucABECnPSIAAlzx4nvIZgJAAFCsqV396+JHC4A8lswRAKzSvwsAAUCpllzY5Q/S9wVAHv8oABAAAgBWoGPrrn+Q+j4mAPJ4VAAgAAQAvNNVEU/SmBsFQBoHLxQACAABAMt7ti3kUfq/sa8DEABr4vsCAAEgAGA5Yf9o/PcEQBotZwgABIAAgGUdHbVUmnsIgDSmLhIACAABAEu7tC1sq/RsEQBpHCQAEAACAJbSenLgWvmCAEjjhGMEAAJAAMDbPha5Vp5YLADSeEwAIAAEALxl8N2heyXw5wAFwJr6iABAAAgAeNPFsXtl4QMCII2RtwkABIAAgDe0jApeLF8UAHnsKQAQAAIA3nBe9GJZOFcApNF+tgBAAAgAeN3W6+5mEQBr7pyZAgABIADgNc81h2+WYwVAIjsIAASAAIDX/LYOq2WEAMgj9K0PAkAACABYZ/Srw2r5uQBI5NK+AgABIADg9/VYLf8jADKZIgAQAAIA/rMeq6XpOQGQyIzpAgABIAAo3iN12S3nCYBMLhAACAABQPHurstuOVoApLKRAEAACAAK9/v67Ja7BEAq990vABAAAoCyPVuf3dI2WgCk8jEBgAAQAJTt43VaLh8UAKl0HCIAEAACgKJNqdNy+YMAyGXEPAGAABAAlOyOOi2X3wmAZJ4WAAgAAUDJ/qtOy+WbAiCZYccLAASAAKBgO9dpufxEAGTzmSYBgAAQAJSrXn8TvLUASOdLAgABIAAoVku9lsshAiCd424XAAgAAUCpjqvXcuknAPI5TwAgAAQApbq8XsvlVAGQ0LcEAAJAAFCokfVaLscLgIRueEIAIAAEAGUaXa/lMlEAZPSkAEAACAAKtahOy+USAZBRx80CAAEgACjT/Dotl+8KgJSeWiQAEAACgCJNr9NyGSsAcnpJACAABABFqtc/CneVAMhp/DgBgAAQAJRolzotl18LgKSOaBIACAABQIG+XaflcqcAyOoHAgABIAAo0Kw6LZeBAiCrxScKAASAAKA8H63Pbrk+5u4FQFd4RgAgAAQA5Wmvz78H/HkBkNgPBQACQABQno3qslsuEgCJbdZfACAABADF6VWX3XKjAMjscQGAABAAFKcuPwTQPejmBUDXaF1fACAABAClab+wDqtligDI7Z/6CgABIAAEAKW5qg6r5W8FQHIbCAABIAAEAKW5J/5NcH+MuncB0FVOuFsACAABIAAozZXhm+UFAZDeswJAAAgAAUBpLopeLBP2EgD53SsABIAAEAAUZvTtwYvlP8JuXQB0nefuFwACQAAIAAqzaexeGX61AHASJAAEgACAhEcA14fulVfi7lwAdKH2BwWAABAAAoDCfD9yrczbUACsG86dJwAEgAAQAJRl/LjAtfLpwBsXAF3qRwJAAAgAAUBhjoh7F8BNCwTAumLY9gJAAAgAAUBhfhC1VNp+GXnbAqBrzW4TAAJAAPhCoCyLbwtaKhuE3rYA6GLPCwABIAB8IVCYWTF/CfDHbgJgXTL3MgEgAAQAFOafI56k+++JvWkB0NUGCAABIACgMC1nBfwAwFeDb1oAdLmvCQABIACgMM91/RuBd4i+ZwHQ5S6fLwAEgACAwtz5RBc/R79pFwDrnl4CQAAIACjNL/t36WN0Umv4HQuArtdxpQAQAAIASvP/JnThU7T1gvgbFgABHp4gAASAAIDSzOrbZQ/R2aPrcL8CIMLPBYAAEABQnD8M6aJnaKPx9bhdARBhwTUCQAAIACjO7BO75BF6paMudysAQpzfJAAEgACA4gy9690/QH1frtPNCoAYuwgAASAAoDyLt363z8+cvet1rwIgxpI5AkAACAAoT/u+7+4HAX54ed1uVQAEOUwACAABACX64P+s/cMz78n2+t2oAIjyYwEgAAQAlGj8S8PX8tm55KP1vM8H9u5yt/qvH/TJLuUbdf/ztDzG6my47v1vemnIB3G155/C/X7s2nz9j3vRJwcA67TPnrymX/9jfjvMxwYA67rTHl2T3wc/5sluPjIAeC+45SszO/ft33TsgA4fFwC8V4w/fOzq/43A45++xycFAO8tM07f7o9tK/3y7/6Rl/3QLAC8Nw284Kr9/n7nZb/6J1130oEvbuizAYD3uLlP3fq5F/e84uWLX7xg16lLfB4AAAAAAAAAAAAAAAAAAAAAAAAAAAAAAAAAAAAAAAAAAAAAAAAAAAAAAAAAAAAAAAAAAAAAAAAAAAAAAAAAAAAAAAAAAAAAAAAAAAAAAAAAAAAAAAAAAAAAAAAAAAAAAAAAAAAAAAAAAAAAAAAAAAAAAAAAAAAAAAAAAAAAAAAAAAAAAAAAAAAAAAAAAAAAAAAAAAAAAAAAAAAAAAAAAAAAAAAAAAAAAAAAAAAAAAAAAAAAAAAAAAAAAAAAAAAAAAAAAAAAAAAAAAAAAAAAAAAAAAAAAAAAAAAAAAAAAAAAAAAAAAAAAAAAAAAAAAAAAAAAAAAAAAAAAAAAAAAAAAAAAAAAAAAAAAAAAAAAAAAAAAAAAAAAAAAAAAAAAAAAAAAAAAAAAAAAAAAAAAAAAAAAAAAAAAAAAAAAAAAAAAAAAAAAAAAAAAAAAAAAAAAAAAAAAAAAAAAAAAAAAAAAAAAAAAAAAAAAAAAAAAAAAAAAAAAAAAAAAAAAAAAAAAAAAAAAAAAAAAAAAAAAAAAAAAAAAAAAAAAAAAAAAAAAAAAAAAAAAAAAAAAAAAAAAAAAAAAAAAAAAAAAAAAAAAAAAAAAAAAAAAAAAAAAAAAAAAAAAAAAAAAAAAAAAAAAAAAAAAAAAAAAAAAAAAAAAAAAAAAAAAAAAAAAAAAAAAAAAAAAAAAAAAAAAAAAAAAAAAAAAAAAAAAAAAAAAAAAAAAAAAAAAAAAAAAAAAAAAAAAAAAAAAAAAAAAAAAAAAAAAAAAAAAAAAAAAAAAAAAAAAAAAAAAAAAAAAAAAAAAAAAAAAAAAAAAAAAAAAAAAAAAAAAAAAAAAAAAAAAAAAAAAAAAAAAAAAAAAAAAAAAAAAAAAAAAAAAAAAAAAAAAAAAAAAAAAAAAAAAAAAAAAAAAAAAAAAAAAAAAAAAAAAAAAAAAAAAAAAAAAAAAAAAAAAAAAAAAAAAAAAAAAAAAAAAAAAAAAAAAAAAAAAAAAAAAAAAAAAAAAAAAAAAAAAAAAAAAAAAAAAAAAAAAAAAAAAAAAAAAAAAAAAAAAAAAAAAAAAAAAAAAAAAAAAAAAAAAAAAAAAAAAAAAAAAAAAAAAAAAAAAAAAAAAAAAAAAAAAAAAAAAAAAAAAAAAAAAAAAAAAAAAAAAAAAAAAAAAAAAAAAAAAAAAAAAAAAAAAAAAAAAAAAAAAAAAAAAAAAAAAAAAAAAAAAAAAAAAAAAAAAAAAAAAAAAAAAAAAAAAAAAAAAAAAAAAAAAAAAAAAAAAAAAAAAAAAAAAAAAAAAAAAAAAAAAAAAAAAAAAAAAAAAAAAAAAAAAAAAAAAAAAAAAAAAAAAAAAAAAAAAAAAAAAAAAAAAAAAAAAAAAAAAAAAAAAAAAAAAAAAAAAAAAAAAAAAAAAAAAAAAAAAAAAAAAAAAAAAAAAAAAAAAAAAAAAAAAAAAAAAAAAAAAAAAAAAAAAAAAAAAAAAAAAAAAAAAAAAAAAAAAAAAAAAAAAAAAAAAAAAAAAAAAAAAAAAAAAAAAAAAAAAAAAAAAAAAAAAAAAAAAAAAAAAAAAAAAAAAAAAAAAAAAAAAAAAAAAAAAAAAAAAAAAAAAAAAAAAAAAAAAAAAAAAAAAAAAAAAAAAAAAAAAAAAAAAAAAAAAAAAAAAAAAAAAAAAAAAAAAAAAAAAAAAAAAAAAAAAAAAAAAAAAAAAAAAAAAAAAAAAAAAAAAAAAAAAAAAAAAAAAAAAAAAAAAAAAAAAAAAAAAAAAAAAAAAAAAAAAAAAAAAAAAAAAAAAAAAAAAAAAAAAAAAAAAAAAAAAAAAAAAAAAAAAAAAAAAAAAAAAAAAAAAAAAAAAAAAAAAAAAAAAAAAAAAAAAAAAAAAAAAAAAAAAAAAAAAAAAAAAAAAAAAAAAAAAAAAAAAAAAAAAAAAAAAAAAAAAAAAAAAAAAAAAAAAAAAAAAAAAAAAAAAAAAAAAAkMb/B1e+V0B3UNUyAAAAJXRFWHRkYXRlOmNyZWF0ZQAyMDI0LTA3LTExVDA4OjA1OjI5KzAwOjAwWFp+7AAAACV0RVh0ZGF0ZTptb2RpZnkAMjAyNC0wNy0xMVQwODowNToyOSswMDowMCkHxlAAAAAASUVORK5CYII=;" parent="1" vertex="1">
          <mxGeometry x="340" y="450" width="30" height="30" as="geometry" />
        </mxCell>
        <mxCell id="272sHSoe-_pz2Ps7QQTc-38" value="" style="shape=image;aspect=fixed;image=data:image/png,iVBORw0KGgoAAAANSUhEUgAACAAAAAgACAMAAACFeSMCAAAABGdBTUEAALGPC/xhBQAAACBjSFJNAAB6JgAAgIQAAPoAAACA6AAAdTAAAOpgAAA6mAAAF3CculE8AAAC+lBMVEVRK9SIbuH///+FauH+/v/v6/tZNNbd1fexoOyzouzq5fqunOv8/P5yVNzb0/ZTLdWahOb18/1jQdnGuvGGbOHr5vpZNdb9/f50Vd3f2PdULtWdiOf39v1nRtnNwfOJb+Lu6vtcONe1pO3+/f94Wt7g2vdUL9WhjOj49/1oR9rOw/OMc+NdOde5qe55XN7i2/hVMNWkkOn6+f5sS9vTyvRSLNSQd+Tx7vxfPNe8ru5+Yt/l3/lWMtWoleltTdvVy/WTfOTz8PxgPdjAsu9/ZN/m4flXMtarmer7+v5uT9vZ0fZSLdSXgOX18/xjQdjDtvCuneuyoey1pe2vnuuxn+xmRdnWzfWXgeXy7/xxUtyOdePNwvOGa+F9YN/r5/qReeSplurCtPBaNtbXz/W4qe3o4/luTtv5+P3VzPVbN9eKcOJsTNvi3Ph3Wd2YgeachuekkOhYM9bw7fulkem7re7Hu/GnlOnv7Pve1/e5qu7n4vl6Xd6NdOPc1faAZOBbN9bQxvPRxvRqStprS9pzVdx7Xt6McuJ8X99/Y9+DaeDp5PrUy/SCZ+CVfuXCtfCfiueUfOXRx/T6+P6smuumkul2WN26q+62pu2+sO/s6PqEaeHIvPFiQNj08vyZgubXzvXZ0Paql+pkQtna0vZWMdXj3fh7X96HbeG7rO7e1vft6fvKvvJlRNn39f1oRtrk3vjY0PVwUdz8+/59Yd9eO9fx7vvt6frPxPOjj+h1V92zo+zk3/jo5PlqSdrEt/BhP9jz8fyWf+VfPNjSyPTIvPKbheZvUNusmuq9ru9dOteOduPLwPKfi+eBZuCijej29P2dh+dwUNyoleq/se+QeOTPxfN0Vt2DaOBhPtimk+m3qO2eiefKv/Kwn+vBs/CTe+TGufHAs++LcuLJvfKtm+vMwfKVfeW3p+2Zg+aqmOqSeuS0pOzFuPF3Wt15W96bhuaKceKPd+O9r++gi+iijuhlQ9nTyfTm4PlpSNqIbuLc1Pbg2ffh2viBZeBlDZ11AAAAAWJLR0QCZgt8ZAAAAAd0SU1FB+gHCwgFHtqJ8MAAADAiSURBVHja7d2Lu5Z1mejxZ15XONKCBTqCLFFkliB4SASXouABESSWoOIhEcVCDWWk0jI842HSdGcpjZUlmg5mmnhA1MzjaJqMecxG02amzJmx0Wp32jPtaV/XNk0F5LDAdb/vjb/P5w947odXn/v9Xj/WeqgqAAAAAAAAAAAAAAAAAAAAAAAAAAAAAAAAAAAAAAAAAAAAAAAAAAAAAAAAAAAAAAAAAAAAAAAAAAAAAAAAAAAAAAAAAAAAAAAAAAAAAAAAAAAAAAAAAAAAAAAAAAAAAAAAAAAAAAAAAAAAAAAAAAAAAAAAAAAAAAAAAAAAAAAAAAAAAAAAAAAAAAAAAAAAAAAAAAAAAAAAAAAAAAAAAAAAAAAAAAAAAAAAAAAAAAAAAAAAAAAAAAAAAAAAAAAAAAAAAAAAAAAAAAAAAAAAAAAAAAAAAAAAAAAAAAAAAAAAAAAAAAAAAAAAAAAAAAAAAAAAAAAAAAAAAAAAAAAAAAAAAAAAAAAAAAAAAAAAAAAAAAAAAAAAAAAAAAAAAAAAAAAAAAAAAAAAAAAAAAAAAAAAAAAAAAAAAAAAAAAAAAAAAAAAAAAAAAAAAAAAAAAAAAAAAAAAAAAAAAAAAAAAAAAAAAAAAAAAAAAAAAAAAAAAAAAAAAAAAAAAAAAAAAAAAAAAAAAAAAAAAAAAAAAAAAAAAAAAAAAAAAAAAAAAAAAAAAAAAAAAAAAAAAAAAAAAAAAAAAAAAAAAAAAAAAAAAAAAAAAAAAAAAAAAAAAAAAAAAAAAAAAAAAAAAAAAAAAAAAAAAAAAAAAAAAAAAAAAAAAAAAAAAAAAAAAAAAAAAAAAAAAAAAAAAAAAAAAAAAAAAAAAAAAAAAAAAAAAAAAAAAAAAAAAAAAAAAAAAAAAAAAAAAAAAAAAAAAAAAAAAAAAAAAAAAAAAAAAAAAAAAAAAAAAAAAAAAAAAAAAAAAAAAAAAAAAAAAAAAAAAAAAAAAAAAAAAAAAAAAAAAAAAAAAAAAAAAAAAAAAAAAAAAAAAAAAAAAAAAAAAAAAAAAAAAAAAAAAAAAAAAAAAAAAAAAAAAAAAAAAAAAAAAAAAAAAAAAAAAAAAAAAAAAAAAAAAAAAAAAAAAAAAAAAAAAAAAAAAAAAAAAAAAAAAAAAAAAAAAAAAAAAAAAAAAAAAAAAAAAAAAAAAAAAAAAAAAAAAAAAAAAAAAAAAAAAAAAAAAAAAAAAAAAAAAAAAAAAAAAAAAAAAAAAAAAAAAAAAAAAAAAAAAAAAAAAAAAAAAAAAAAAAAAAAAAAAAAAAAAAAAAAAAAAAAAAAAAAAAAAAAAAAAAAAAAAAAAAAAAAAAAAAAAAAAAAAAAAAAAAAAAAAAAAAAAAAAAAAAAAAAAAAAAAAAAAAAAAAAAAAAAAAAAAAAAAAAAAAAAAAAAAAAAAAAAAAAAAAAAAAAAAAAAAAAAAAAAAAAAAAAAAAAAAAAAAAAAAAAAAAAAAAAAAAAAAAAAAAAAAAAAAAAAAAAAAAAAAAAAAAAAAAAAAAAAAAAAAAAAAAAAAAAAAAAAAAAAAAAAAAAAAAAAAAAAAAAAAAAAAAAAAAAAAAAAAAAAAAAAAAAAAAAAAAAAAAAAAAAAAAAAAAAAAAAAAAAAAAAAAAAAAAAAAAAAAAAAAAAAAAAAAAAAAAAAAAAAAAAAAAAAAAAAAAAAAAAAAAAAAAAAAAAAAAAAAAAAAAAAAAAAAAAAAAAAAAAAAAAAAAAAAAAAAAAAAAAAAAAAAAAAAAAAAAAAAAAAAAAAAAAAAAAAAAAAAAAAAAAAAAAAAAAAAAAAAAAAAAAAAAAAAAAAAAAAAAAAAAAAAAAAAAAAAAAAAAAAAAAAAAAAAAAAAAAAAAAAAAAAAAAAAAAAAAAAAAAAAAAAAAAAAAAAAAAAAAAAAAAAAAAAAAAAAAAAAAAAAAAAAAAAAAAAAAAAAAAAAAAAAAAAAAAAAAAAAAAAAAAAAAAAAAAAAAAAAAAAAAAAAAAAAAAAAAAAAAAAAAAAAAAAAAAAAAAAAAAAAAAAAAAAAAAAAAAAAAAAAAAAAAAAAAAAAAAAAAAAAAAAAAAAAAAAAAAAAAAAAAAAAAAAAAAAAAAAAAAAAAAAAAAAAAAAAAAAAAAAAAAAAAAAAAAAAAAAAAAAAAAAAAAAAAAAAAAAAAAAAAAAAAAAAAAAAAAAAALrSX9TqYL3SP+WmLv9I31f3P0O3Giuyfqc/wb/0YTXUBtY9NCAAuncTAAJAAPiwBAAUFwC19wsAASAAfFgCAMoLgOYeAkAACAAEABQXALWeLQJAAAgABAAUFwC1XgJAAAgABACUFwC9NxQAAkAAIACguACobSQABIAAQABAeQFQ+ysBIAAEAAIAyguAjfsIAAEgABAAUFwA1P5SAAgAAYAAgPICoO8mAkAACAAEABQXALV+rQJAAAgABAAUFwC1TQWAABAACAAoLwD6byYABIAAQABAcQFQ21wACAABgACA8gKgNkAACAABgACA8gJgi4ECQAAIAAQAFBcAtb8WAAJAACAAoLwAaNtSAAgAAYAAgOICoDZosAAQAAIAAQDFBUBtKwEgAAQAAgDKC4AhQwWAABAACAAoLgBqWwsAASAAEABQXgDUthEAAkAAIACgvAB437YCQAAIAAQAFBcAte0EgAAQAAgAKC8A2j4gAASAAEAAQHEBUNt+mAAQAAIAAQDFBUBtBwEgAAQAAgDKC4DhIwSAABAACAAoLgBqO7YLAAEgABAAUFwA1HYSAAJAACAAoLwA2HmkABAAAgABAMUFQG0XASAABAACAMoLgKZdBYAAEAAIACguAGqjRgsAASAAEABQXADUdhMAAkAAIACgvAAYvrsAEAACAAEAxQVAbY9SXgYgAASAABAAIACWsqcAEAACAAEA5QXAmL0EgAAQAAgAKC4AamMFgAAQAAgAKC8AansLAAEgABAAUF4AjBsvAASAAEAAQHEBUNtHAAgAAYAAgPICYMIHBYAAEAAIACguAGoTOwSAABAACAAoLgBq+woAASAAEABQXgBMmiwABIAAQABAcQFQ208ACAABgACA8gKgtp4AEAACAAEA5QVA924CQAAIAAQAFBcAtf0FgAAQAAgAKC8AmnsIAAEgABAAUFwA1Hq2CAABIAAQAFBcANR6CQABIAAQAFBeAPTeUAAIAAGAAIDiAqC2kQAQAAIAAQDlBUDtrwSAABAACAAoLwA27iMABIAAQABAcQFQO0AACAABgACA8gKg7yYCQAAIAAQAFBcAtX6tAkAACAAEABQXALVNBYAAEAAIACgvAIZsJgAEgABAAEBxAVDbXAAIAAGAAIDyAqA2QAAIAAGAAIDyAmCLgQJAAAgABAAUFwC1KQJAAAgABACUFwBtWwoAASAAEABQXADUBg0WAAJAACAAoLgAqG0lAASAAEAAQHkBMGSoABAAAgABAMUFQG1rAVBQADSv6yZ2+hM8MOPtN4X8V23L+Ec9yLqH9AFQ20YAlBMAB3sGG+qQkP+qH/LBggBYuy+3bQWAAEAAAMUFQG07ASAAEABAeQHQ9gEBIAAQAEBxAVDbfpgAEAAIAKC4AKjtIAAEAAIAKC8Aho8QAAIAAQAUFwC1HdsFgABAAADFBUBtJwEgABAAQHkBcOhIASAAEABAcQFQ20UACAAEAFBeADTtKgAEAAIAKC4AaqNGCwABgAAAiguA2m4CQAAgAIDyAmDC7gJAACAAgOICoLbHe+VlAAJAAAgAQACsgT0FgABAAADlBcCYvQSAAEAAAMUFQG2sABAACACgvACo7S0ABAACACgvAMaNFwACAAEAFBcAtX0EgABAAADlBUDzVAEgABAAQHEBUJvYIQAEAAIAKC4AavsKAAGAAADKC4BJkwWAAEAAAMUFQG0/ASAAEABAeQFQW08ACAAEAFBeAHTvJgAEAAIAKC4AavsLAAGAAADKC4DmHgJAACAAgOICoNazRQAIAAQAUFwA1HoJAAGAAADKC4DeGwoAAYAAAIoLgNpGAkAAIACAvAFw2N7TYr4pDhcAAgABAKQNgA9UR8R8U0zvIwAEAAIAyBoAR1bVoJivigMEgABAAABZA+DDVdUr5qui7yYCQAAgAICkAfCRqprRO+a7ol+rABAACAAgZwAc9dpFjw76TYBNBYAAQAAAOQPgmNcu+tGmmC+LIZsJAAGAAABSBsDMP1312KAjgM0FgABAAAApA6B23GtXnRX1OqBZAkAAIACAlAHwN69dteP4oADYYqAAEAAIACBjABzxp8vuGXUEMEUACAAEAJAxALb502UHbxwUAG2zBYAAQAAACQPgY69f9+NRRwCDBgsAAYAAAPIFwCdev+4JJ0YVwFYCQAAgAIB8AXDgGxf+ZFQADBkqAAQAAgBIFwCfeuPCA3tHFcA0ASAAEABAugA46c9X/nRUALzxY4YCQAAgAIBMAbDjn6/c531RATBnWwEgABAAQLIAOPnNS/cKOwI4RQAIAAQAkCwATn3z0oPHRQVA22kCQAAgAIBcATDnrWufHnYEsP0wASAAEABAqgDo/9a1288IK4AdBIAAQAAAqQKgqeWti58ZFgDDRwgAAYAAADIFQG3u21c/K6wAzhYAAgABAKQKgMlvX/2c4WEFsJMAEAAIACBTAJy71OX3DwuAQ0cKAAGAAAASBcDfLnX5E7qHFcAuAkAAIACARAHwmaWvf15YADSdLwAEAAIAyBMAn11mwNZhBTBqtAAQAAgAIE0AXLDMgMCfA9xNAAgABACQJgD+YtkJ7w8LgAm7CwABgAAAsgTAcv9ab7cLwwrgf7ULAAGAAACSBMCRy434XFgA1PYUAAIAAQAkCYCLlp/x+bAAGLOXABAACAAgRwD0Wn7GyJ3DCmCsABAACAAgRwB84R1DLo77S4AzBYAAQAAAKQLgE+8Y0n5JWACMGy8ABAACAMgQACv49fxz5oUVwD4CQAAgAIAMAfDFFYz5u7AAaJ4qAAQAAgBIEAAHrWBM68lhBTCxQwAIAAQA0PgAmLKiOZf2DSuAfQWAAEAAAI0PgC+tcNCXwwJg0mQBIAAQAEDDA+ArKxw097KwAthPAAgABADQ8ABYyffxV+NeBrCeABAACACg0QHwtZWMOiksALp3EwACAAEANDgANl/JqMvnhxXA/gJAACAAgAYHwNkrm3VF3MsAeggAAYAAABobAMeubFbHlaW+DEAACAABALz3A+ColQ4bMTysAHoJAAGAAAAaGgBfX/m0q8ICoPfVAkAAIACARgbA36982oJrwgpgIwEgABAAQCMDoOcqxn2jKawArhUAAgABADQwAM5Y1bxvhgXA9D4CQAAgAIDGBcB1q5p33PVhBXCAABAACACgcQHQb5UDtwkLgL6bCAABgAAAGhYAg1Y98VthBdCvVQAIAAQA0KgA2H7VE29YGFYAmwoAAYAAABoVAMevZuSmYQEw5EYBIAAQAECDAuCm1YzsuDmsAKYJAAGAAAAaFACjVjfzlkVhBTBAAAgABADQmAAYt9qh+4cFwBYDBYAAQAAADQmAY1Y7dPypYQUwRQAIAAQA0JAAuHD1U28NeyNw25YCQAAgAIBGBED3TowdG3YEMGiwABAACACgAQEwvRNjF98WVgBbCQABgAAAGhAAt3dm7pFxLwMYKgAEAAIAqH8AbNGpwWeFFcAdAkAAIACA+gfAnE4N3qx/WAFsIwAEAAIAqHsA3Na5yd8OC4A52woAAYAAAOodADt3bnLrdWEFsJ0AEAAIAKDeATCmk6Pv7Bv2MoDTBIAAQAAAdQ6A+Z2d/Z2wI4C7FggAAYAAAOobAL07/ZVyd1gB7CAABAACAKhvACzs9PD1wgJg3j0CQAAgAICkAVDdG1YAO7YLAAGAAACSBsB994cVwE4CQAAgAICkAVD9Q1gAHPqAABAACAAgaQC0PxhWALsIAAGAAACSBkB17ryoAGjaVQAIAAQAkDQAqt3CjgBGjRYAAgABACQNgGHbhxXAbgJAACAAgKQBUM1uiwqACbsLAAGAAACSBkB1dNgRwB5ZXgYgAASAAAAEwPLm3h5WAHsKAAGAAACSBkA1KywAxuwlAAQAAgBIGgDVd8MKYKwAEAAIACBrAEyeFFYAZwoAAYAAAJIGQPVQWACMGy8ABAACAEgaAB1HhRXAPgJAACAAgKQBUD28KCoAmqcKAAGAAACSBkD1vbAjgIkdAkAAIACApAGw4KawAthXAAgABACQNACq85uiAmDSZAEgABAAQNIAqB4JOwLYTwAIAAQAkDUAlpwYVgDrCQABgAAAkgZA9Y9hAdC9jwAQAAgAIGkAVI+GFcD+AkAAIACArAFw8MKwlwH0EAACAAEAJA2A6vthRwA9WwSAAEAAAEkDoOWMsALoJQAEAAIASBoA1dRFUQHQ+2oBIAAQAEDSAKgOCjsC2EgACAAEAJA1AE44JqwArhUAAgABACQNgOqxsACYPkMACAAEAJA0AKqPhBXAAQJAACAAgKwBMHLnqADou4kAEAAIACBpAFR7hh0B9GsVAAIAAQAkDYD2s8MKYFMBIAAQAEDSAKjOmRkVAENuFAACAAEAJA2AaoewI4BpAkAAIACArAHQenJYAQwQAAIAAQAkDYDq0r5RAbDFQAEgABAAQNIAqKaEHQFMEQACAAEAZA2AGdOjAqBtSwEgABAAQNIAqC4IOwIYNFgACAAEAJA0AKqNwgrgcQGQKQA+NGBd00MACAAQAIEBcN/8sJcBDBUAiQJg3XOKABAAIAACA6D6WNgCv0MACAABIABAAGQNgI5Dwjb4NgJAAAgAAQACIGkAVCOGR23wOdsKAAEgAAQACICkAVB9OGyFbycABIAAEAAgALIGwILjo1Z422kCQAAIAAEAAiBpAFSfaYra4XctEAACQAAIABAASQOg+lLYEv+kABAAAkAAgADIGgDH3R61xIePEAACQAAIABAASQOgOi9si+/YLgAEgAAQACAAkgZA9a2wNb6TABAAAkAAgADIGgA3PBG1xg99QAAIAAEgAEAAJA2A6smwPb6LABAAAkAAgADIGgAdN0ft8aZdBYAAEAACAARA0gConloUtchHjRYAAkAACAAQAEkDoHp/2CZ/WgAIAAEgAEAAZA2A8eOiNvmE3QWAABAAAgAEQNIAqI4IeyPwHvV6GYAAEAACABAAa+wHYbv8YgEgAASAAAABkDUAFp8YtcvH7CUABIAAEAAgAJIGQPVM2DIfKwAEgAAQACAAsgZA9cOwbX6mABAAAkAAgADIGgCb9Y/a5uPGCwABIAAEAAiApAFQPR62zvcRAAJAAAgAEABZA6B1/ah13jxVAAgAASAAQAAkDYDqn/pG7fOJHQJAAAgAAQACIGkAVBuELfQ6LCsBIAAEACAA1s4Jd0ct9EmTBYAAEAACAARA0gCong3b6PsJAAEgAAQACICsAVDdG7bS1xMAAkAACAAQAFkD4Ln7o1Z69z4CQAAIAAEAAiBpAFQXhe30/QWAABAAAgAEQNYAaH8waqc39xAAAkAACAAQAEkDoDp3XtRS79kiAASAABAAIACSBkD1o7Ct/pAAEAACQACAAMgaAMO2j9rqva8WAAJAAAgAEABJA6Ca3Ra11k8SAAJAAAgAEABZA6B6PmyvXysABIAAEAAgALIGwNzLovb69BkCQAAIAAEAAiBpAFQDwhb7AQJAAAgAAQACIGsAVN+NWuxtswWAABAAAgAEQNYAuHx+1Gbv1yoABIAAEAAgAJIGQNUrbLW/IAAEgAAQACAAsgZAx5VRq33IjQJAAAgAAQACIGkAVA9PiNrt0wSAABAAAgAEQNYAqPYJW+6zBIAAEAACAARA1gBYcE3Uct9ioAAQAAJAAIAASBoA1flNUdt9igAQAAJAAIAAyBoA1S5R271tSwEgAASAAAABkDUAlsyJWu+DBgsAASAABAAIgKQBUB0Wtt8fFwACQAAIABAAWQOg+nHUfh8yVAAIAAEgAEAAZA2AGxZGLfg7BIAAEAACAARA1gCovhC24U8XAAJAAAgAEABZA6DljKgNP2dbASAABIAAAAGQNACqWxatMyteAAgAAQAIgC7zz1Ervuk0ASAABIAAAAGQNQBOODVqx9+1QAAIAAEgAEAAJA2A6rGwJf9JASAABIAAAAGQNQCqf4la8sNHCAABIAAEAAiArAEw8raoLb9juwAQAAJAAIAASBoA1b+GrflnBIAAEAACAARA1gCozo5a84c+IAAEgAAQACAAsgbAPTOj9vwjAkAACAABAAIgawBUn4ja8027CgABIAAEAAiArAHQel3Uoh81WgAIAAEgAEAAJA2A6s6+UZv+aQEgAASAAAABkDUAqr+O2vQTdhcAAkAACAAQAFkDYMb0qFW/R1e9DEAACAABAAiALndB2K6/WAAIAAEgAEAAZA2A6idRu37MXgJAAAgAAQACIGsA3Hd/1LL/qQAQAAJAAIAAyBoA1YfCtv2ZAkAACAABAAIgawC0HxK17ceNFwACQAAIABAASQOgGjEvat1/TwCEBsC/XrCueVgACAAQAHkCoHo6KgCapwqAyAA42DMoAAAB8C4MOz6qACZ2CAABIAAEAAiApAFQfaYpqgC6YJkJAAEgAAABEOSUqACYNFkACAABIABAAGQNgONujyqAewWAABAAAgAEQNYAqF4M+8Wv9QSAABAAAgAEQNYAqH4WFQDd+wgAASAABAAIgKwBMHlSVAEcKAAEgAAQACAAsgZA9fGwlwH0EAACQAAIABAAWQOg4+aoAujZIgAEgAAQACAAkgZA9dSiqAJ4SAAIAAEgAEAAZA2A6qWoAOh9tQAQAAJAAIAAyBoAC+6KKoCTBIAAEAACAARA1gCojgh7I/C1AkAACAABAAIgawBUX4kKgOkzBIAAEAACAARA1gBYfGJUAWwgAASAABAAIACyBkC1U1QAtM0WAAJAAAgAEABZA6D6t6gC6NcqAASAABAAIACyBsDB/aMK4AUBIAAEgAAAAZA1AKqtogJgyI0CQAAIAAEAAiBrALSuH1UA0wSAABAAAgAEQNYAqKY2RxXALAEgAASAAAABkDUAqgOiAmCLgQJAAAgAAQACIGsAnHBMVAF8WQAIAAEgAEAAZA2A6nNhLwPYUgAIAAEgAEAAZA2Aar+oAhg0WAAIAAEgAEAAZA2AkTtHFcDjAkAACAABAAIgawBU/x4VADOHCgABIAAEAAiArAHQfklUAdwhAASAABAAIACyBkB1zryoAjhdAAgAASAAQABkDYDq76ICYM62AkAACAABAAIgawC09osqgFMEgAAQAAIABEDWAKhmtwUFQNNpAkAACAABAAIgawBU/xF1BHDXAgEgAASAAAABkDUA5l4WVQCfFAACQAAIABAAWQOg+mpUAAwfIQAEgAAQACAAsgZA9bWoAtixXQAIAAEgAEAAZA2Ay+dHFcAzAkAACAABAAIgawBUL0cFwKEPCAABIAAEAAiArAHQcWVUATwiAASAABAAIACyBkD1N8OjXgawqwAQAAJAAIAAyBoA1c+jjgBGjRYAAkAACAAQAFkDYME1UQXwdKfvoU0ACAABAAiAOvtGU1AATNi9s7fQLAAEgAAABEC9fSrqCGCPzr4MYIIAEAACABAA9Xbc9VEFcHEn72CmABAAAgAQAHV3elQAjNmrczfQXwAIAAEACID6+3FUAfy0c/N7CwABIAAAAVB/NyyMKoAzOzV/vgAQAAIAEAAN8EJUAFzYrTPjDxUAAkAAAAKgATq+HlUA3+vM+NsEgAAQAIAAaIRbFgUFQPPUTkyfIwAEgAAABEBDHBh1BDCxY/XDrxcAAkAAAAKgIcafGlUAnVh2lwkAASAAAAHQGLdGvRG49+TVzu4uAASAAAAEQIP8NOoI4N7Vjr5bAAgAAQAIgAZZfFtUARy+utHjBIAAEACAAGiU/4wKgI37rGbyKAEgAAQAIAAa5qyoAjhwNYOvEQACQAAAAqBhNusfFADNPVY9eHsBIAAEACAAGufbUUcAPVtWOXeQABAAAgAQAI3Tel1UATy0yrknCwABIAAAAdBAd/YNCoAnrl7V2PUFgAAQAIAAaKRXoo4ATlrV1J4CQAAIAEAANFK3u6MK4NpVTJ0oAASAAAAEQEOtFxUA02esfOiVAkAACABAADTWq1EFsMHKZ14iAASAAAAEQGPdd39QALTNXunMRwWAABAAgABosH2jjgD6tdbv1EEAIAAAAbBm2h+MKoAXVjZyrAAQAAIAEACNdu68oAAYcuNKJp4iAASAAAAEQMPtFnUEMG0lA78jAASAAAAEQMMNOz6qAGateOBLAkAACABAADTeL9qCAuB9A+t05CAAEACAAFhz20UdAXx5heMeFwACQAAAAiCBubdHvQzglysa9ysBIAAEACAAMvjfUUcAgwavYNpFAkAACABAAKTws6gCeHwFw34tAASAAAAEQAqTJwUFwMyh7xw2QAAIAAEACIAcfhV1BHDHO2ddIAAEgAAABEAOHV+PKoDD3jHrCAEgAAQAIACSeGpRUADM2Xb5Ub8QAAJAAAACIIsvRh0BfHP5SVMFgAAQAIAAyGLBTUEB0LTrcpPOFQACQAAAAiCN85uCCmDU6GUH3SAABIAAAARAHr+J+kuADy87Z4kAEAACABAAeSw5MSgAJnx0mTmtTQJAAAgAQADk8euoI4CvdywzZ6EAEAACABAAiTwaVQDLrsDbBYAAEACAAEjk4IVBAdB7w6XHHC8ABIAAAARAJr+NOgJ4dekpNwsAASAAAAGQSev6UQVw+FJTpgkAASAAAAGQytTmoADYuM/bQ/YTAAJAAAACIJeDoo4A3v/2jO0EgAAQAIAAyOWEY4ICoPmWt2bsIwAEgAAABEAyn4s6Aji2/c0RTwoAASAAAAGQzeejCuDINyccJgAEgAAABEA2I3cOCoCdF/95wt4CQAAIAEAApHNx1BHA838eMFUACAABAAiAdNovCQqAtl+8MWCyABAAAgAQAPmcMzOoANZvef36g5sEgAAQAIAAyGeHqL8EuOKN6x8qAASAAAAEQD6tJwcFwJg3fg6wnwAQAAIAEAAJXdo3qACmvH75fxMAAkAAAAIgoy8HBUDf198HuJ0AEAACABAAGc24LKgAHvzT1X8kAASAAAAEQEpfjfo5wAGvXXxPASAABAAgAHI6KSgA7h5dVWcKAAEgAAABkNPkSUEF8LuqGioABIAAAARAUlcEBcD8JVXLcAEgAAQAIABy6jgkqABeqqprBIAAEACAAEhqxPCYb7mZV1c/EwACQAAAAiCrq4KOAJ6vDhQAAkAAAAIgqwV3xXzNLfrV5wWAABAAgABI6xtNtXWCAEAAAAKgK31TAAgAASAAQACUFwDHXS8ABIAAEAAgAIoLgGobASAABIAAAAFQXgBU3xIAAkAACAAQAOUFwA1PCAABIAAEAAiA4gKg2lQACAABIABAAJQXAB03CwABIAAEAAiA4gKgumWRABAAAkAAgAAoLgCq/QWAABAAAgAEQHkBMP5UASAABIAAAAFQXABUtzYJAAEgAAQACIDiAqAaKwAEgAAQACAAyguAxScKAAEgAAQACIDiAqA6UgAIAAEgAEAAlBcA1VkCQAAIAAEAAqC8ANisvwAQAAJAAIAAKC4Aqt8JAAEgAAQACIDyAqD1OgEgAASAAAABUFwAVHf2FQACQAAIABAAxQVA9R0BIAAEgAAAAVBeAJxwtwAQAAJAAIAAKC4AqmcFgAAQAAIABEB5AVDdKwAEgAAQACAAyguA++4XAAJAAAgAeLfaf3/ExVc9/8ir0x78P1u/+pvt9vnQ3kNbBUBu/yAABIAAEADwbgx95pRBw9/5oDSP+5eXb2kRAHmj7UEBIAAEgACAtTTs8J9ev6qnpfe0i5YIgKTOnScABIAAEACwFlr2/lQn/h550eZHzhUAKX1aAAgAASAAYI0tOPKmTn9vvnKDAMh4frO9ABAAAkAAwJqZ++T1a/LULHr1TgGQz+w2ASAABIAAgDXQ+uSkNX5wHq33KYAAWL2jBYAAEAACADrviEFr8+QMeXq0AMh2kHO7ABAAAkAAQCfttdbvkPuvzwqAZGYJAAEgAAQAdM6t16/9w9P0yjABkMt3BYAAEAACADqh9el39y/J9/xvAZDK5PkCQAAIAAEAq/+6OOrdPj+T/iAAUnlIAAgAASAAYHX+e9y7f4CathIAmXQcJQAEgAAQALBql97WJY/QKx0CIJGHJwgAASAABACsyuFDuugZ+kldfh9QAHTSPgJAAAgAAQCrMKC5yx6iHw8WAHksuEkACAABIABgpT47rwufopNaBUAe5zcJAAEgAAQArMQvFnbpYzQ2/ucABECnPSIAAlzx4nvIZgJAAFCsqV396+JHC4A8lswRAKzSvwsAAUCpllzY5Q/S9wVAHv8oABAAAgBWoGPrrn+Q+j4mAPJ4VAAgAAQAvNNVEU/SmBsFQBoHLxQACAABAMt7ti3kUfq/sa8DEABr4vsCAAEgAGA5Yf9o/PcEQBotZwgABIAAgGUdHbVUmnsIgDSmLhIACAABAEu7tC1sq/RsEQBpHCQAEAACAJbSenLgWvmCAEjjhGMEAAJAAMDbPha5Vp5YLADSeEwAIAAEALxl8N2heyXw5wAFwJr6iABAAAgAeNPFsXtl4QMCII2RtwkABIAAgDe0jApeLF8UAHnsKQAQAAIA3nBe9GJZOFcApNF+tgBAAAgAeN3W6+5mEQBr7pyZAgABIADgNc81h2+WYwVAIjsIAASAAIDX/LYOq2WEAMgj9K0PAkAACABYZ/Srw2r5uQBI5NK+AgABIADg9/VYLf8jADKZIgAQAAIA/rMeq6XpOQGQyIzpAgABIAAo3iN12S3nCYBMLhAACAABQPHurstuOVoApLKRAEAACAAK9/v67Ja7BEAq990vABAAAoCyPVuf3dI2WgCk8jEBgAAQAJTt43VaLh8UAKl0HCIAEAACgKJNqdNy+YMAyGXEPAGAABAAlOyOOi2X3wmAZJ4WAAgAAUDJ/qtOy+WbAiCZYccLAASAAKBgO9dpufxEAGTzmSYBgAAQAJSrXn8TvLUASOdLAgABIAAoVku9lsshAiCd424XAAgAAUCpjqvXcuknAPI5TwAgAAQApbq8XsvlVAGQ0LcEAAJAAFCokfVaLscLgIRueEIAIAAEAGUaXa/lMlEAZPSkAEAACAAKtahOy+USAZBRx80CAAEgACjT/Dotl+8KgJSeWiQAEAACgCJNr9NyGSsAcnpJACAABABFqtc/CneVAMhp/DgBgAAQAJRolzotl18LgKSOaBIACAABQIG+XaflcqcAyOoHAgABIAAo0Kw6LZeBAiCrxScKAASAAKA8H63Pbrk+5u4FQFd4RgAgAAQA5Wmvz78H/HkBkNgPBQACQABQno3qslsuEgCJbdZfACAABADF6VWX3XKjAMjscQGAABAAFKcuPwTQPejmBUDXaF1fACAABAClab+wDqtligDI7Z/6CgABIAAEAKW5qg6r5W8FQHIbCAABIAAEAKW5J/5NcH+MuncB0FVOuFsACAABIAAozZXhm+UFAZDeswJAAAgAAUBpLopeLBP2EgD53SsABIAAEAAUZvTtwYvlP8JuXQB0nefuFwACQAAIAAqzaexeGX61AHASJAAEgACAhEcA14fulVfi7lwAdKH2BwWAABAAAoDCfD9yrczbUACsG86dJwAEgAAQAJRl/LjAtfLpwBsXAF3qRwJAAAgAAUBhjoh7F8BNCwTAumLY9gJAAAgAAUBhfhC1VNp+GXnbAqBrzW4TAAJAAPhCoCyLbwtaKhuE3rYA6GLPCwABIAB8IVCYWTF/CfDHbgJgXTL3MgEgAAQAFOafI56k+++JvWkB0NUGCAABIACgMC1nBfwAwFeDb1oAdLmvCQABIACgMM91/RuBd4i+ZwHQ5S6fLwAEgACAwtz5RBc/R79pFwDrnl4CQAAIACjNL/t36WN0Umv4HQuArtdxpQAQAAIASvP/JnThU7T1gvgbFgABHp4gAASAAIDSzOrbZQ/R2aPrcL8CIMLPBYAAEABQnD8M6aJnaKPx9bhdARBhwTUCQAAIACjO7BO75BF6paMudysAQpzfJAAEgACA4gy9690/QH1frtPNCoAYuwgAASAAoDyLt363z8+cvet1rwIgxpI5AkAACAAoT/u+7+4HAX54ed1uVQAEOUwACAABACX64P+s/cMz78n2+t2oAIjyYwEgAAQAlGj8S8PX8tm55KP1vM8H9u5yt/qvH/TJLuUbdf/ztDzG6my47v1vemnIB3G155/C/X7s2nz9j3vRJwcA67TPnrymX/9jfjvMxwYA67rTHl2T3wc/5sluPjIAeC+45SszO/ft33TsgA4fFwC8V4w/fOzq/43A45++xycFAO8tM07f7o9tK/3y7/6Rl/3QLAC8Nw284Kr9/n7nZb/6J1130oEvbuizAYD3uLlP3fq5F/e84uWLX7xg16lLfB4AAAAAAAAAAAAAAAAAAAAAAAAAAAAAAAAAAAAAAAAAAAAAAAAAAAAAAAAAAAAAAAAAAAAAAAAAAAAAAAAAAAAAAAAAAAAAAAAAAAAAAAAAAAAAAAAAAAAAAAAAAAAAAAAAAAAAAAAAAAAAAAAAAAAAAAAAAAAAAAAAAAAAAAAAAAAAAAAAAAAAAAAAAAAAAAAAAAAAAAAAAAAAAAAAAAAAAAAAAAAAAAAAAAAAAAAAAAAAAAAAAAAAAAAAAAAAAAAAAAAAAAAAAAAAAAAAAAAAAAAAAAAAAAAAAAAAAAAAAAAAAAAAAAAAAAAAAAAAAAAAAAAAAAAAAAAAAAAAAAAAAAAAAAAAAAAAAAAAAAAAAAAAAAAAAAAAAAAAAAAAAAAAAAAAAAAAAAAAAAAAAAAAAAAAAAAAAAAAAAAAAAAAAAAAAAAAAAAAAAAAAAAAAAAAAAAAAAAAAAAAAAAAAAAAAAAAAAAAAAAAAAAAAAAAAAAAAAAAAAAAAAAAAAAAAAAAAAAAAAAAAAAAAAAAAAAAAAAAAAAAAAAAAAAAAAAAAAAAAAAAAAAAAAAAAAAAAAAAAAAAAAAAAAAAAAAAAAAAAAAAAAAAAAAAAAAAAAAAAAAAAAAAAAAAAAAAAAAAAAAAAAAAAAAAAAAAAAAAAAAAAAAAAAAAAAAAAAAAAAAAAAAAAAAAAAAAAAAAAAAAAAAAAAAAAAAAAAAAAAAAAAAAAAAAAAAAAAAAAAAAAAAAAAAAAAAAAAAAAAAAAAAAAAAAAAAAAAAAAAAAAAAAAAAAAAAAAAAAAAAAAAAAAAAAAAAAAAAAAAAAAAAAAAAAAAAAAAAAAAAAAAAAAAAAAAAAAAAAAAAAAAAAAAAAAAAAAAAAAAAAAAAAAAAAAAAAAAAAAAAAAAAAAAAAAAAAAAAAAAAAAAAAAAAAAAAAAAAAAAAAAAAAAAAAAAAAAAAAAAAAAAAAAAAAAAAAAAAAAAAAAAAAAAAAAAAAAAAAAAAAAAAAAAAAAAAAAAAAAAAAAAAAAAAAAAAAAAAAAAAAAAAAAAAAAAAAAAAAAAAAAAAAAAAAAAAAAAAAAAAAAAAAAAAAAAAAAAAAAAAAAAAAAAAAAAAAAAAAAAAAAAAAAAAAAAAAAAAAAAAAAAAAAAAAAAAAAAAAAAAAAAAAAAAAAAAAAAAAAAAAAAAAAAAAAAAAAAAAAAAAAAAAAAAAAAAAAAAAAAAAAAAAAAAAAAAAAAAAAAAAAAAAAAAAAAAAAAAAAAAAAAAAAAAAAAAAAAAAAAAAAAAAAAAAAAAAAAAAAAAAAAAAAAAAAAAAAAAAAAAAAAAAAAAAAAAAAAAAAAAAAAAAAAAAAAAAAAAAAAAAAAAAAAAAAAAAAAAAAAAAAAAAAAAAAAAAAAAAAAAAAAAAAAAAAAAAAAAAAAAAAAAAAAAAAAAAAAAAAAAAAAAAAAAAAAAAAAAAAAAAAAAAAAAAAAAAAAAAAAAAAAAAAAAAAAAAAAAAAAAAAAAAAAAAAAAAAAAAAAAAAAAAAAAAAAAAAAAAAAAAAAAAAAAAAAAAAAAAAAAAAAAAAAAAAAAAAAAAAAAAAAAAAAAAAAAAAAAAAAAAAAAAAAAAAAAAAAAAAAAAAAAAAAAAAAAAAAAAAAAAAAAAAAAAAAAAAAAAAAAAAAAAAAAAAAAAAAAAAAAAAAAAAAAAAAAAAAAAAAAAAAAAAAAAAAAAAAAAAAAAAAAAAAAAAAAAAAAAAAAAAAAAAAAAAAAAAAAAAAAAAAAAAAAAAAAAAAAAAAAAAAAAAAAAAAAAAAAAAAAAAAAAAAAAAAAAAAAAAAAAAAAAAAAAAAAAAAAAAAAAAAAAAAAAAAAAAAAAAAAAAAAAAAAAAAAAAAAAAAAAAAAAAAAAAAAAAAAAAAAAAAAAAAAAAAAAAAAAAAAAAAAAAAAAAAAAAAAAAAAAAAAAAAAAAAAAAAAAkMb/B1e+V0B3UNUyAAAAJXRFWHRkYXRlOmNyZWF0ZQAyMDI0LTA3LTExVDA4OjA1OjI5KzAwOjAwWFp+7AAAACV0RVh0ZGF0ZTptb2RpZnkAMjAyNC0wNy0xMVQwODowNToyOSswMDowMCkHxlAAAAAASUVORK5CYII=;" parent="1" vertex="1">
          <mxGeometry x="340" y="250" width="30" height="30" as="geometry" />
        </mxCell>
        <mxCell id="272sHSoe-_pz2Ps7QQTc-39" value="" style="shape=image;aspect=fixed;image=data:image/png,iVBORw0KGgoAAAANSUhEUgAACAAAAAgACAMAAACFeSMCAAAABGdBTUEAALGPC/xhBQAAACBjSFJNAAB6JgAAgIQAAPoAAACA6AAAdTAAAOpgAAA6mAAAF3CculE8AAAC+lBMVEVRK9SIbuH///+FauH+/v/v6/tZNNbd1fexoOyzouzq5fqunOv8/P5yVNzb0/ZTLdWahOb18/1jQdnGuvGGbOHr5vpZNdb9/f50Vd3f2PdULtWdiOf39v1nRtnNwfOJb+Lu6vtcONe1pO3+/f94Wt7g2vdUL9WhjOj49/1oR9rOw/OMc+NdOde5qe55XN7i2/hVMNWkkOn6+f5sS9vTyvRSLNSQd+Tx7vxfPNe8ru5+Yt/l3/lWMtWoleltTdvVy/WTfOTz8PxgPdjAsu9/ZN/m4flXMtarmer7+v5uT9vZ0fZSLdSXgOX18/xjQdjDtvCuneuyoey1pe2vnuuxn+xmRdnWzfWXgeXy7/xxUtyOdePNwvOGa+F9YN/r5/qReeSplurCtPBaNtbXz/W4qe3o4/luTtv5+P3VzPVbN9eKcOJsTNvi3Ph3Wd2YgeachuekkOhYM9bw7fulkem7re7Hu/GnlOnv7Pve1/e5qu7n4vl6Xd6NdOPc1faAZOBbN9bQxvPRxvRqStprS9pzVdx7Xt6McuJ8X99/Y9+DaeDp5PrUy/SCZ+CVfuXCtfCfiueUfOXRx/T6+P6smuumkul2WN26q+62pu2+sO/s6PqEaeHIvPFiQNj08vyZgubXzvXZ0Paql+pkQtna0vZWMdXj3fh7X96HbeG7rO7e1vft6fvKvvJlRNn39f1oRtrk3vjY0PVwUdz8+/59Yd9eO9fx7vvt6frPxPOjj+h1V92zo+zk3/jo5PlqSdrEt/BhP9jz8fyWf+VfPNjSyPTIvPKbheZvUNusmuq9ru9dOteOduPLwPKfi+eBZuCijej29P2dh+dwUNyoleq/se+QeOTPxfN0Vt2DaOBhPtimk+m3qO2eiefKv/Kwn+vBs/CTe+TGufHAs++LcuLJvfKtm+vMwfKVfeW3p+2Zg+aqmOqSeuS0pOzFuPF3Wt15W96bhuaKceKPd+O9r++gi+iijuhlQ9nTyfTm4PlpSNqIbuLc1Pbg2ffh2viBZeBlDZ11AAAAAWJLR0QCZgt8ZAAAAAd0SU1FB+gHCwgFHtqJ8MAAADAiSURBVHja7d2Lu5Z1mejxZ15XONKCBTqCLFFkliB4SASXouABESSWoOIhEcVCDWWk0jI842HSdGcpjZUlmg5mmnhA1MzjaJqMecxG02amzJmx0Wp32jPtaV/XNk0F5LDAdb/vjb/P5w947odXn/v9Xj/WeqgqAAAAAAAAAAAAAAAAAAAAAAAAAAAAAAAAAAAAAAAAAAAAAAAAAAAAAAAAAAAAAAAAAAAAAAAAAAAAAAAAAAAAAAAAAAAAAAAAAAAAAAAAAAAAAAAAAAAAAAAAAAAAAAAAAAAAAAAAAAAAAAAAAAAAAAAAAAAAAAAAAAAAAAAAAAAAAAAAAAAAAAAAAAAAAAAAAAAAAAAAAAAAAAAAAAAAAAAAAAAAAAAAAAAAAAAAAAAAAAAAAAAAAAAAAAAAAAAAAAAAAAAAAAAAAAAAAAAAAAAAAAAAAAAAAAAAAAAAAAAAAAAAAAAAAAAAAAAAAAAAAAAAAAAAAAAAAAAAAAAAAAAAAAAAAAAAAAAAAAAAAAAAAAAAAAAAAAAAAAAAAAAAAAAAAAAAAAAAAAAAAAAAAAAAAAAAAAAAAAAAAAAAAAAAAAAAAAAAAAAAAAAAAAAAAAAAAAAAAAAAAAAAAAAAAAAAAAAAAAAAAAAAAAAAAAAAAAAAAAAAAAAAAAAAAAAAAAAAAAAAAAAAAAAAAAAAAAAAAAAAAAAAAAAAAAAAAAAAAAAAAAAAAAAAAAAAAAAAAAAAAAAAAAAAAAAAAAAAAAAAAAAAAAAAAAAAAAAAAAAAAAAAAAAAAAAAAAAAAAAAAAAAAAAAAAAAAAAAAAAAAAAAAAAAAAAAAAAAAAAAAAAAAAAAAAAAAAAAAAAAAAAAAAAAAAAAAAAAAAAAAAAAAAAAAAAAAAAAAAAAAAAAAAAAAAAAAAAAAAAAAAAAAAAAAAAAAAAAAAAAAAAAAAAAAAAAAAAAAAAAAAAAAAAAAAAAAAAAAAAAAAAAAAAAAAAAAAAAAAAAAAAAAAAAAAAAAAAAAAAAAAAAAAAAAAAAAAAAAAAAAAAAAAAAAAAAAAAAAAAAAAAAAAAAAAAAAAAAAAAAAAAAAAAAAAAAAAAAAAAAAAAAAAAAAAAAAAAAAAAAAAAAAAAAAAAAAAAAAAAAAAAAAAAAAAAAAAAAAAAAAAAAAAAAAAAAAAAAAAAAAAAAAAAAAAAAAAAAAAAAAAAAAAAAAAAAAAAAAAAAAAAAAAAAAAAAAAAAAAAAAAAAAAAAAAAAAAAAAAAAAAAAAAAAAAAAAAAAAAAAAAAAAAAAAAAAAAAAAAAAAAAAAAAAAAAAAAAAAAAAAAAAAAAAAAAAAAAAAAAAAAAAAAAAAAAAAAAAAAAAAAAAAAAAAAAAAAAAAAAAAAAAAAAAAAAAAAAAAAAAAAAAAAAAAAAAAAAAAAAAAAAAAAAAAAAAAAAAAAAAAAAAAAAAAAAAAAAAAAAAAAAAAAAAAAAAAAAAAAAAAAAAAAAAAAAAAAAAAAAAAAAAAAAAAAAAAAAAAAAAAAAAAAAAAAAAAAAAAAAAAAAAAAAAAAAAAAAAAAAAAAAAAAAAAAAAAAAAAAAAAAAAAAAAAAAAAAAAAAAAAAAAAAAAAAAAAAAAAAAAAAAAAAAAAAAAAAAAAAAAAAAAAAAAAAAAAAAAAAAAAAAAAAAAAAAAAAAAAAAAAAAAAAAAAAAAAAAAAAAAAAAAAAAAAAAAAAAAAAAAAAAAAAAAAAAAAAAAAAAAAAAAAAAAAAAAAAAAAAAAAAAAAAAAAAAAAAAAAAAAAAAAAAAAAAAAAAAAAAAAAAAAAAAAAAAAAAAAAAAAAAAAAAAAAAAAAAAAAAAAAAAAAAAAAAAAAAAAAAAAAAAAAAAAAAAAAAAAAAAAAAAAAAAAAAAAAAAAAAAAAAAAAAAAAAAAAAAAAAAAAAAAAAAAAAAAAAAAAAAAAAAAAAAAAAAAAAAAAAAAAAAAAAAAAAAAAAAAAAAAAAAAAAAAAAAAAAAAAAAAAAAAAAAAAAAAAAAAAAAAAAAAAAAAAAAAAAAAAAAAAAAAAAAAAAAAAAAAAAAAAAAAAAAAAAAAAAAAAAAAAAAAAAAAAAAAAAAAAAAAAAAAAAAAAAAAAAAAAAAAAAAAAAAAAAAAAAAAAAAAAAAAAAAAAAAAAAAAAAAAAAAAAAAAAAAAAAAAAAAAAAAAAAAAAAAAALrSX9TqYL3SP+WmLv9I31f3P0O3Giuyfqc/wb/0YTXUBtY9NCAAuncTAAJAAPiwBAAUFwC19wsAASAAfFgCAMoLgOYeAkAACAAEABQXALWeLQJAAAgABAAUFwC1XgJAAAgABACUFwC9NxQAAkAAIACguACobSQABIAAQABAeQFQ+ysBIAAEAAIAyguAjfsIAAEgABAAUFwA1P5SAAgAAYAAgPICoO8mAkAACAAEABQXALV+rQJAAAgABAAUFwC1TQWAABAACAAoLwD6byYABIAAQABAcQFQ21wACAABgACA8gKgNkAACAABgACA8gJgi4ECQAAIAAQAFBcAtb8WAAJAACAAoLwAaNtSAAgAAYAAgOICoDZosAAQAAIAAQDFBUBtKwEgAAQAAgDKC4AhQwWAABAACAAoLgBqWwsAASAAEABQXgDUthEAAkAAIACgvAB437YCQAAIAAQAFBcAte0EgAAQAAgAKC8A2j4gAASAAEAAQHEBUNt+mAAQAAIAAQDFBUBtBwEgAAQAAgDKC4DhIwSAABAACAAoLgBqO7YLAAEgABAAUFwA1HYSAAJAACAAoLwA2HmkABAAAgABAMUFQG0XASAABAACAMoLgKZdBYAAEAAIACguAGqjRgsAASAAEABQXADUdhMAAkAAIACgvAAYvrsAEAACAAEAxQVAbY9SXgYgAASAABAAIACWsqcAEAACAAEA5QXAmL0EgAAQAAgAKC4AamMFgAAQAAgAKC8AansLAAEgABAAUF4AjBsvAASAAEAAQHEBUNtHAAgAAYAAgPICYMIHBYAAEAAIACguAGoTOwSAABAACAAoLgBq+woAASAAEABQXgBMmiwABIAAQABAcQFQ208ACAABgACA8gKgtp4AEAACAAEA5QVA924CQAAIAAQAFBcAtf0FgAAQAAgAKC8AmnsIAAEgABAAUFwA1Hq2CAABIAAQAFBcANR6CQABIAAQAFBeAPTeUAAIAAGAAIDiAqC2kQAQAAIAAQDlBUDtrwSAABAACAAoLwA27iMABIAAQABAcQFQO0AACAABgACA8gKg7yYCQAAIAAQAFBcAtX6tAkAACAAEABQXALVNBYAAEAAIACgvAIZsJgAEgABAAEBxAVDbXAAIAAGAAIDyAqA2QAAIAAGAAIDyAmCLgQJAAAgABAAUFwC1KQJAAAgABACUFwBtWwoAASAAEABQXADUBg0WAAJAACAAoLgAqG0lAASAAEAAQHkBMGSoABAAAgABAMUFQG1rAVBQADSv6yZ2+hM8MOPtN4X8V23L+Ec9yLqH9AFQ20YAlBMAB3sGG+qQkP+qH/LBggBYuy+3bQWAAEAAAMUFQG07ASAAEABAeQHQ9gEBIAAQAEBxAVDbfpgAEAAIAKC4AKjtIAAEAAIAKC8Aho8QAAIAAQAUFwC1HdsFgABAAADFBUBtJwEgABAAQHkBcOhIASAAEABAcQFQ20UACAAEAFBeADTtKgAEAAIAKC4AaqNGCwABgAAAiguA2m4CQAAgAIDyAmDC7gJAACAAgOICoLbHe+VlAAJAAAgAQACsgT0FgABAAADlBcCYvQSAAEAAAMUFQG2sABAACACgvACo7S0ABAACACgvAMaNFwACAAEAFBcAtX0EgABAAADlBUDzVAEgABAAQHEBUJvYIQAEAAIAKC4AavsKAAGAAADKC4BJkwWAAEAAAMUFQG0/ASAAEABAeQFQW08ACAAEAFBeAHTvJgAEAAIAKC4AavsLAAGAAADKC4DmHgJAACAAgOICoNazRQAIAAQAUFwA1HoJAAGAAADKC4DeGwoAAYAAAIoLgNpGAkAAIACAvAFw2N7TYr4pDhcAAgABAKQNgA9UR8R8U0zvIwAEAAIAyBoAR1bVoJivigMEgABAAABZA+DDVdUr5qui7yYCQAAgAICkAfCRqprRO+a7ol+rABAACAAgZwAc9dpFjw76TYBNBYAAQAAAOQPgmNcu+tGmmC+LIZsJAAGAAABSBsDMP1312KAjgM0FgABAAAApA6B23GtXnRX1OqBZAkAAIACAlAHwN69dteP4oADYYqAAEAAIACBjABzxp8vuGXUEMEUACAAEAJAxALb502UHbxwUAG2zBYAAQAAACQPgY69f9+NRRwCDBgsAAYAAAPIFwCdev+4JJ0YVwFYCQAAgAIB8AXDgGxf+ZFQADBkqAAQAAgBIFwCfeuPCA3tHFcA0ASAAEABAugA46c9X/nRUALzxY4YCQAAgAIBMAbDjn6/c531RATBnWwEgABAAQLIAOPnNS/cKOwI4RQAIAAQAkCwATn3z0oPHRQVA22kCQAAgAIBcATDnrWufHnYEsP0wASAAEABAqgDo/9a1288IK4AdBIAAQAAAqQKgqeWti58ZFgDDRwgAAYAAADIFQG3u21c/K6wAzhYAAgABAKQKgMlvX/2c4WEFsJMAEAAIACBTAJy71OX3DwuAQ0cKAAGAAAASBcDfLnX5E7qHFcAuAkAAIACARAHwmaWvf15YADSdLwAEAAIAyBMAn11mwNZhBTBqtAAQAAgAIE0AXLDMgMCfA9xNAAgABACQJgD+YtkJ7w8LgAm7CwABgAAAsgTAcv9ab7cLwwrgf7ULAAGAAACSBMCRy434XFgA1PYUAAIAAQAkCYCLlp/x+bAAGLOXABAACAAgRwD0Wn7GyJ3DCmCsABAACAAgRwB84R1DLo77S4AzBYAAQAAAKQLgE+8Y0n5JWACMGy8ABAACAMgQACv49fxz5oUVwD4CQAAgAIAMAfDFFYz5u7AAaJ4qAAQAAgBIEAAHrWBM68lhBTCxQwAIAAQA0PgAmLKiOZf2DSuAfQWAAEAAAI0PgC+tcNCXwwJg0mQBIAAQAEDDA+ArKxw097KwAthPAAgABADQ8ABYyffxV+NeBrCeABAACACg0QHwtZWMOiksALp3EwACAAEANDgANl/JqMvnhxXA/gJAACAAgAYHwNkrm3VF3MsAeggAAYAAABobAMeubFbHlaW+DEAACAABALz3A+ColQ4bMTysAHoJAAGAAAAaGgBfX/m0q8ICoPfVAkAAIACARgbA36982oJrwgpgIwEgABAAQCMDoOcqxn2jKawArhUAAgABADQwAM5Y1bxvhgXA9D4CQAAgAIDGBcB1q5p33PVhBXCAABAACACgcQHQb5UDtwkLgL6bCAABgAAAGhYAg1Y98VthBdCvVQAIAAQA0KgA2H7VE29YGFYAmwoAAYAAABoVAMevZuSmYQEw5EYBIAAQAECDAuCm1YzsuDmsAKYJAAGAAAAaFACjVjfzlkVhBTBAAAgABADQmAAYt9qh+4cFwBYDBYAAQAAADQmAY1Y7dPypYQUwRQAIAAQA0JAAuHD1U28NeyNw25YCQAAgAIBGBED3TowdG3YEMGiwABAACACgAQEwvRNjF98WVgBbCQABgAAAGhAAt3dm7pFxLwMYKgAEAAIAqH8AbNGpwWeFFcAdAkAAIACA+gfAnE4N3qx/WAFsIwAEAAIAqHsA3Na5yd8OC4A52woAAYAAAOodADt3bnLrdWEFsJ0AEAAIAKDeATCmk6Pv7Bv2MoDTBIAAQAAAdQ6A+Z2d/Z2wI4C7FggAAYAAAOobAL07/ZVyd1gB7CAABAACAKhvACzs9PD1wgJg3j0CQAAgAICkAVDdG1YAO7YLAAGAAACSBsB994cVwE4CQAAgAICkAVD9Q1gAHPqAABAACAAgaQC0PxhWALsIAAGAAACSBkB17ryoAGjaVQAIAAQAkDQAqt3CjgBGjRYAAgABACQNgGHbhxXAbgJAACAAgKQBUM1uiwqACbsLAAGAAACSBkB1dNgRwB5ZXgYgAASAAAAEwPLm3h5WAHsKAAGAAACSBkA1KywAxuwlAAQAAgBIGgDVd8MKYKwAEAAIACBrAEyeFFYAZwoAAYAAAJIGQPVQWACMGy8ABAACAEgaAB1HhRXAPgJAACAAgKQBUD28KCoAmqcKAAGAAACSBkD1vbAjgIkdAkAAIACApAGw4KawAthXAAgABACQNACq85uiAmDSZAEgABAAQNIAqB4JOwLYTwAIAAQAkDUAlpwYVgDrCQABgAAAkgZA9Y9hAdC9jwAQAAgAIGkAVI+GFcD+AkAAIACArAFw8MKwlwH0EAACAAEAJA2A6vthRwA9WwSAAEAAAEkDoOWMsALoJQAEAAIASBoA1dRFUQHQ+2oBIAAQAEDSAKgOCjsC2EgACAAEAJA1AE44JqwArhUAAgABACQNgOqxsACYPkMACAAEAJA0AKqPhBXAAQJAACAAgKwBMHLnqADou4kAEAAIACBpAFR7hh0B9GsVAAIAAQAkDYD2s8MKYFMBIAAQAEDSAKjOmRkVAENuFAACAAEAJA2AaoewI4BpAkAAIACArAHQenJYAQwQAAIAAQAkDYDq0r5RAbDFQAEgABAAQNIAqKaEHQFMEQACAAEAZA2AGdOjAqBtSwEgABAAQNIAqC4IOwIYNFgACAAEAJA0AKqNwgrgcQGQKQA+NGBd00MACAAQAIEBcN/8sJcBDBUAiQJg3XOKABAAIAACA6D6WNgCv0MACAABIABAAGQNgI5Dwjb4NgJAAAgAAQACIGkAVCOGR23wOdsKAAEgAAQACICkAVB9OGyFbycABIAAEAAgALIGwILjo1Z422kCQAAIAAEAAiBpAFSfaYra4XctEAACQAAIABAASQOg+lLYEv+kABAAAkAAgADIGgDH3R61xIePEAACQAAIABAASQOgOi9si+/YLgAEgAAQACAAkgZA9a2wNb6TABAAAkAAgADIGgA3PBG1xg99QAAIAAEgAEAAJA2A6smwPb6LABAAAkAAgADIGgAdN0ft8aZdBYAAEAACAARA0gConloUtchHjRYAAkAACAAQAEkDoHp/2CZ/WgAIAAEgAEAAZA2A8eOiNvmE3QWAABAAAgAEQNIAqI4IeyPwHvV6GYAAEAACABAAa+wHYbv8YgEgAASAAAABkDUAFp8YtcvH7CUABIAAEAAgAJIGQPVM2DIfKwAEgAAQACAAsgZA9cOwbX6mABAAAkAAgADIGgCb9Y/a5uPGCwABIAAEAAiApAFQPR62zvcRAAJAAAgAEABZA6B1/ah13jxVAAgAASAAQAAkDYDqn/pG7fOJHQJAAAgAAQACIGkAVBuELfQ6LCsBIAAEACAA1s4Jd0ct9EmTBYAAEAACAARA0gCong3b6PsJAAEgAAQACICsAVDdG7bS1xMAAkAACAAQAFkD4Ln7o1Z69z4CQAAIAAEAAiBpAFQXhe30/QWAABAAAgAEQNYAaH8waqc39xAAAkAACAAQAEkDoDp3XtRS79kiAASAABAAIACSBkD1o7Ct/pAAEAACQACAAMgaAMO2j9rqva8WAAJAAAgAEABJA6Ca3Ra11k8SAAJAAAgAEABZA6B6PmyvXysABIAAEAAgALIGwNzLovb69BkCQAAIAAEAAiBpAFQDwhb7AQJAAAgAAQACIGsAVN+NWuxtswWAABAAAgAEQNYAuHx+1Gbv1yoABIAAEAAgAJIGQNUrbLW/IAAEgAAQACAAsgZAx5VRq33IjQJAAAgAAQACIGkAVA9PiNrt0wSAABAAAgAEQNYAqPYJW+6zBIAAEAACAARA1gBYcE3Uct9ioAAQAAJAAIAASBoA1flNUdt9igAQAAJAAIAAyBoA1S5R271tSwEgAASAAAABkDUAlsyJWu+DBgsAASAABAAIgKQBUB0Wtt8fFwACQAAIABAAWQOg+nHUfh8yVAAIAAEgAEAAZA2AGxZGLfg7BIAAEAACAARA1gCovhC24U8XAAJAAAgAEABZA6DljKgNP2dbASAABIAAAAGQNACqWxatMyteAAgAAQAIgC7zz1Ervuk0ASAABIAAAAGQNQBOODVqx9+1QAAIAAEgAEAAJA2A6rGwJf9JASAABIAAAAGQNQCqf4la8sNHCAABIAAEAAiArAEw8raoLb9juwAQAAJAAIAASBoA1b+GrflnBIAAEAACAARA1gCozo5a84c+IAAEgAAQACAAsgbAPTOj9vwjAkAACAABAAIgawBUn4ja8027CgABIAAEAAiArAHQel3Uoh81WgAIAAEgAEAAJA2A6s6+UZv+aQEgAASAAAABkDUAqr+O2vQTdhcAAkAACAAQAFkDYMb0qFW/R1e9DEAACAABAAiALndB2K6/WAAIAAEgAEAAZA2A6idRu37MXgJAAAgAAQACIGsA3Hd/1LL/qQAQAAJAAIAAyBoA1YfCtv2ZAkAACAABAAIgawC0HxK17ceNFwACQAAIABAASQOgGjEvat1/TwCEBsC/XrCueVgACAAQAHkCoHo6KgCapwqAyAA42DMoAAAB8C4MOz6qACZ2CAABIAAEAAiApAFQfaYpqgC6YJkJAAEgAAABEOSUqACYNFkACAABIABAAGQNgONujyqAewWAABAAAgAEQNYAqF4M+8Wv9QSAABAAAgAEQNYAqH4WFQDd+wgAASAABAAIgKwBMHlSVAEcKAAEgAAQACAAsgZA9fGwlwH0EAACQAAIABAAWQOg4+aoAujZIgAEgAAQACAAkgZA9dSiqAJ4SAAIAAEgAEAAZA2A6qWoAOh9tQAQAAJAAIAAyBoAC+6KKoCTBIAAEAACAARA1gCojgh7I/C1AkAACAABAAIgawBUX4kKgOkzBIAAEAACAARA1gBYfGJUAWwgAASAABAAIACyBkC1U1QAtM0WAAJAAAgAEABZA6D6t6gC6NcqAASAABAAIACyBsDB/aMK4AUBIAAEgAAAAZA1AKqtogJgyI0CQAAIAAEAAiBrALSuH1UA0wSAABAAAgAEQNYAqKY2RxXALAEgAASAAAABkDUAqgOiAmCLgQJAAAgAAQACIGsAnHBMVAF8WQAIAAEgAEAAZA2A6nNhLwPYUgAIAAEgAEAAZA2Aar+oAhg0WAAIAAEgAEAAZA2AkTtHFcDjAkAACAABAAIgawBU/x4VADOHCgABIAAEAAiArAHQfklUAdwhAASAABAAIACyBkB1zryoAjhdAAgAASAAQABkDYDq76ICYM62AkAACAABAAIgawC09osqgFMEgAAQAAIABEDWAKhmtwUFQNNpAkAACAABAAIgawBU/xF1BHDXAgEgAASAAAABkDUA5l4WVQCfFAACQAAIABAAWQOg+mpUAAwfIQAEgAAQACAAsgZA9bWoAtixXQAIAAEgAEAAZA2Ay+dHFcAzAkAACAABAAIgawBUL0cFwKEPCAABIAAEAAiArAHQcWVUATwiAASAABAAIACyBkD1N8OjXgawqwAQAAJAAIAAyBoA1c+jjgBGjRYAAkAACAAQAFkDYME1UQXwdKfvoU0ACAABAAiAOvtGU1AATNi9s7fQLAAEgAAABEC9fSrqCGCPzr4MYIIAEAACABAA9Xbc9VEFcHEn72CmABAAAgAQAHV3elQAjNmrczfQXwAIAAEACID6+3FUAfy0c/N7CwABIAAAAVB/NyyMKoAzOzV/vgAQAAIAEAAN8EJUAFzYrTPjDxUAAkAAAAKgATq+HlUA3+vM+NsEgAAQAIAAaIRbFgUFQPPUTkyfIwAEgAAABEBDHBh1BDCxY/XDrxcAAkAAAAKgIcafGlUAnVh2lwkAASAAAAHQGLdGvRG49+TVzu4uAASAAAAEQIP8NOoI4N7Vjr5bAAgAAQAIgAZZfFtUARy+utHjBIAAEACAAGiU/4wKgI37rGbyKAEgAAQAIAAa5qyoAjhwNYOvEQACQAAAAqBhNusfFADNPVY9eHsBIAAEACAAGufbUUcAPVtWOXeQABAAAgAQAI3Tel1UATy0yrknCwABIAAAAdBAd/YNCoAnrl7V2PUFgAAQAIAAaKRXoo4ATlrV1J4CQAAIAEAANFK3u6MK4NpVTJ0oAASAAAAEQEOtFxUA02esfOiVAkAACABAADTWq1EFsMHKZ14iAASAAAAEQGPdd39QALTNXunMRwWAABAAgABosH2jjgD6tdbv1EEAIAAAAbBm2h+MKoAXVjZyrAAQAAIAEACNdu68oAAYcuNKJp4iAASAAAAEQMPtFnUEMG0lA78jAASAAAAEQMMNOz6qAGateOBLAkAACABAADTeL9qCAuB9A+t05CAAEACAAFhz20UdAXx5heMeFwACQAAAAiCBubdHvQzglysa9ysBIAAEACAAMvjfUUcAgwavYNpFAkAACABAAKTws6gCeHwFw34tAASAAAAEQAqTJwUFwMyh7xw2QAAIAAEACIAcfhV1BHDHO2ddIAAEgAAABEAOHV+PKoDD3jHrCAEgAAQAIACSeGpRUADM2Xb5Ub8QAAJAAAACIIsvRh0BfHP5SVMFgAAQAIAAyGLBTUEB0LTrcpPOFQACQAAAAiCN85uCCmDU6GUH3SAABIAAAARAHr+J+kuADy87Z4kAEAACABAAeSw5MSgAJnx0mTmtTQJAAAgAQADk8euoI4CvdywzZ6EAEAACABAAiTwaVQDLrsDbBYAAEACAAEjk4IVBAdB7w6XHHC8ABIAAAARAJr+NOgJ4dekpNwsAASAAAAGQSev6UQVw+FJTpgkAASAAAAGQytTmoADYuM/bQ/YTAAJAAAACIJeDoo4A3v/2jO0EgAAQAIAAyOWEY4ICoPmWt2bsIwAEgAAABEAyn4s6Aji2/c0RTwoAASAAAAGQzeejCuDINyccJgAEgAAABEA2I3cOCoCdF/95wt4CQAAIAEAApHNx1BHA838eMFUACAABAAiAdNovCQqAtl+8MWCyABAAAgAQAPmcMzOoANZvef36g5sEgAAQAIAAyGeHqL8EuOKN6x8qAASAAAAEQD6tJwcFwJg3fg6wnwAQAAIAEAAJXdo3qACmvH75fxMAAkAAAAIgoy8HBUDf198HuJ0AEAACABAAGc24LKgAHvzT1X8kAASAAAAEQEpfjfo5wAGvXXxPASAABAAgAHI6KSgA7h5dVWcKAAEgAAABkNPkSUEF8LuqGioABIAAAARAUlcEBcD8JVXLcAEgAAQAIABy6jgkqABeqqprBIAAEACAAEhqxPCYb7mZV1c/EwACQAAAAiCrq4KOAJ6vDhQAAkAAAAIgqwV3xXzNLfrV5wWAABAAgABI6xtNtXWCAEAAAAKgK31TAAgAASAAQACUFwDHXS8ABIAAEAAgAIoLgGobASAABIAAAAFQXgBU3xIAAkAACAAQAOUFwA1PCAABIAAEAAiA4gKg2lQACAABIABAAJQXAB03CwABIAAEAAiA4gKgumWRABAAAkAAgAAoLgCq/QWAABAAAgAEQHkBMP5UASAABIAAAAFQXABUtzYJAAEgAAQACIDiAqAaKwAEgAAQACAAyguAxScKAAEgAAQACIDiAqA6UgAIAAEgAEAAlBcA1VkCQAAIAAEAAqC8ANisvwAQAAJAAIAAKC4Aqt8JAAEgAAQACIDyAqD1OgEgAASAAAABUFwAVHf2FQACQAAIABAAxQVA9R0BIAAEgAAAAVBeAJxwtwAQAAJAAIAAKC4AqmcFgAAQAAIABEB5AVDdKwAEgAAQACAAyguA++4XAAJAAAgAeLfaf3/ExVc9/8ir0x78P1u/+pvt9vnQ3kNbBUBu/yAABIAAEADwbgx95pRBw9/5oDSP+5eXb2kRAHmj7UEBIAAEgACAtTTs8J9ev6qnpfe0i5YIgKTOnScABIAAEACwFlr2/lQn/h550eZHzhUAKX1aAAgAASAAYI0tOPKmTn9vvnKDAMh4frO9ABAAAkAAwJqZ++T1a/LULHr1TgGQz+w2ASAABIAAgDXQ+uSkNX5wHq33KYAAWL2jBYAAEAACADrviEFr8+QMeXq0AMh2kHO7ABAAAkAAQCfttdbvkPuvzwqAZGYJAAEgAAQAdM6t16/9w9P0yjABkMt3BYAAEAACADqh9el39y/J9/xvAZDK5PkCQAAIAAEAq/+6OOrdPj+T/iAAUnlIAAgAASAAYHX+e9y7f4CathIAmXQcJQAEgAAQALBql97WJY/QKx0CIJGHJwgAASAABACsyuFDuugZ+kldfh9QAHTSPgJAAAgAAQCrMKC5yx6iHw8WAHksuEkACAABIABgpT47rwufopNaBUAe5zcJAAEgAAQArMQvFnbpYzQ2/ucABECnPSIAAlzx4nvIZgJAAFCsqV396+JHC4A8lswRAKzSvwsAAUCpllzY5Q/S9wVAHv8oABAAAgBWoGPrrn+Q+j4mAPJ4VAAgAAQAvNNVEU/SmBsFQBoHLxQACAABAMt7ti3kUfq/sa8DEABr4vsCAAEgAGA5Yf9o/PcEQBotZwgABIAAgGUdHbVUmnsIgDSmLhIACAABAEu7tC1sq/RsEQBpHCQAEAACAJbSenLgWvmCAEjjhGMEAAJAAMDbPha5Vp5YLADSeEwAIAAEALxl8N2heyXw5wAFwJr6iABAAAgAeNPFsXtl4QMCII2RtwkABIAAgDe0jApeLF8UAHnsKQAQAAIA3nBe9GJZOFcApNF+tgBAAAgAeN3W6+5mEQBr7pyZAgABIADgNc81h2+WYwVAIjsIAASAAIDX/LYOq2WEAMgj9K0PAkAACABYZ/Srw2r5uQBI5NK+AgABIADg9/VYLf8jADKZIgAQAAIA/rMeq6XpOQGQyIzpAgABIAAo3iN12S3nCYBMLhAACAABQPHurstuOVoApLKRAEAACAAK9/v67Ja7BEAq990vABAAAoCyPVuf3dI2WgCk8jEBgAAQAJTt43VaLh8UAKl0HCIAEAACgKJNqdNy+YMAyGXEPAGAABAAlOyOOi2X3wmAZJ4WAAgAAUDJ/qtOy+WbAiCZYccLAASAAKBgO9dpufxEAGTzmSYBgAAQAJSrXn8TvLUASOdLAgABIAAoVku9lsshAiCd424XAAgAAUCpjqvXcuknAPI5TwAgAAQApbq8XsvlVAGQ0LcEAAJAAFCokfVaLscLgIRueEIAIAAEAGUaXa/lMlEAZPSkAEAACAAKtahOy+USAZBRx80CAAEgACjT/Dotl+8KgJSeWiQAEAACgCJNr9NyGSsAcnpJACAABABFqtc/CneVAMhp/DgBgAAQAJRolzotl18LgKSOaBIACAABQIG+XaflcqcAyOoHAgABIAAo0Kw6LZeBAiCrxScKAASAAKA8H63Pbrk+5u4FQFd4RgAgAAQA5Wmvz78H/HkBkNgPBQACQABQno3qslsuEgCJbdZfACAABADF6VWX3XKjAMjscQGAABAAFKcuPwTQPejmBUDXaF1fACAABAClab+wDqtligDI7Z/6CgABIAAEAKW5qg6r5W8FQHIbCAABIAAEAKW5J/5NcH+MuncB0FVOuFsACAABIAAozZXhm+UFAZDeswJAAAgAAUBpLopeLBP2EgD53SsABIAAEAAUZvTtwYvlP8JuXQB0nefuFwACQAAIAAqzaexeGX61AHASJAAEgACAhEcA14fulVfi7lwAdKH2BwWAABAAAoDCfD9yrczbUACsG86dJwAEgAAQAJRl/LjAtfLpwBsXAF3qRwJAAAgAAUBhjoh7F8BNCwTAumLY9gJAAAgAAUBhfhC1VNp+GXnbAqBrzW4TAAJAAPhCoCyLbwtaKhuE3rYA6GLPCwABIAB8IVCYWTF/CfDHbgJgXTL3MgEgAAQAFOafI56k+++JvWkB0NUGCAABIACgMC1nBfwAwFeDb1oAdLmvCQABIACgMM91/RuBd4i+ZwHQ5S6fLwAEgACAwtz5RBc/R79pFwDrnl4CQAAIACjNL/t36WN0Umv4HQuArtdxpQAQAAIASvP/JnThU7T1gvgbFgABHp4gAASAAIDSzOrbZQ/R2aPrcL8CIMLPBYAAEABQnD8M6aJnaKPx9bhdARBhwTUCQAAIACjO7BO75BF6paMudysAQpzfJAAEgACA4gy9690/QH1frtPNCoAYuwgAASAAoDyLt363z8+cvet1rwIgxpI5AkAACAAoT/u+7+4HAX54ed1uVQAEOUwACAABACX64P+s/cMz78n2+t2oAIjyYwEgAAQAlGj8S8PX8tm55KP1vM8H9u5yt/qvH/TJLuUbdf/ztDzG6my47v1vemnIB3G155/C/X7s2nz9j3vRJwcA67TPnrymX/9jfjvMxwYA67rTHl2T3wc/5sluPjIAeC+45SszO/ft33TsgA4fFwC8V4w/fOzq/43A45++xycFAO8tM07f7o9tK/3y7/6Rl/3QLAC8Nw284Kr9/n7nZb/6J1130oEvbuizAYD3uLlP3fq5F/e84uWLX7xg16lLfB4AAAAAAAAAAAAAAAAAAAAAAAAAAAAAAAAAAAAAAAAAAAAAAAAAAAAAAAAAAAAAAAAAAAAAAAAAAAAAAAAAAAAAAAAAAAAAAAAAAAAAAAAAAAAAAAAAAAAAAAAAAAAAAAAAAAAAAAAAAAAAAAAAAAAAAAAAAAAAAAAAAAAAAAAAAAAAAAAAAAAAAAAAAAAAAAAAAAAAAAAAAAAAAAAAAAAAAAAAAAAAAAAAAAAAAAAAAAAAAAAAAAAAAAAAAAAAAAAAAAAAAAAAAAAAAAAAAAAAAAAAAAAAAAAAAAAAAAAAAAAAAAAAAAAAAAAAAAAAAAAAAAAAAAAAAAAAAAAAAAAAAAAAAAAAAAAAAAAAAAAAAAAAAAAAAAAAAAAAAAAAAAAAAAAAAAAAAAAAAAAAAAAAAAAAAAAAAAAAAAAAAAAAAAAAAAAAAAAAAAAAAAAAAAAAAAAAAAAAAAAAAAAAAAAAAAAAAAAAAAAAAAAAAAAAAAAAAAAAAAAAAAAAAAAAAAAAAAAAAAAAAAAAAAAAAAAAAAAAAAAAAAAAAAAAAAAAAAAAAAAAAAAAAAAAAAAAAAAAAAAAAAAAAAAAAAAAAAAAAAAAAAAAAAAAAAAAAAAAAAAAAAAAAAAAAAAAAAAAAAAAAAAAAAAAAAAAAAAAAAAAAAAAAAAAAAAAAAAAAAAAAAAAAAAAAAAAAAAAAAAAAAAAAAAAAAAAAAAAAAAAAAAAAAAAAAAAAAAAAAAAAAAAAAAAAAAAAAAAAAAAAAAAAAAAAAAAAAAAAAAAAAAAAAAAAAAAAAAAAAAAAAAAAAAAAAAAAAAAAAAAAAAAAAAAAAAAAAAAAAAAAAAAAAAAAAAAAAAAAAAAAAAAAAAAAAAAAAAAAAAAAAAAAAAAAAAAAAAAAAAAAAAAAAAAAAAAAAAAAAAAAAAAAAAAAAAAAAAAAAAAAAAAAAAAAAAAAAAAAAAAAAAAAAAAAAAAAAAAAAAAAAAAAAAAAAAAAAAAAAAAAAAAAAAAAAAAAAAAAAAAAAAAAAAAAAAAAAAAAAAAAAAAAAAAAAAAAAAAAAAAAAAAAAAAAAAAAAAAAAAAAAAAAAAAAAAAAAAAAAAAAAAAAAAAAAAAAAAAAAAAAAAAAAAAAAAAAAAAAAAAAAAAAAAAAAAAAAAAAAAAAAAAAAAAAAAAAAAAAAAAAAAAAAAAAAAAAAAAAAAAAAAAAAAAAAAAAAAAAAAAAAAAAAAAAAAAAAAAAAAAAAAAAAAAAAAAAAAAAAAAAAAAAAAAAAAAAAAAAAAAAAAAAAAAAAAAAAAAAAAAAAAAAAAAAAAAAAAAAAAAAAAAAAAAAAAAAAAAAAAAAAAAAAAAAAAAAAAAAAAAAAAAAAAAAAAAAAAAAAAAAAAAAAAAAAAAAAAAAAAAAAAAAAAAAAAAAAAAAAAAAAAAAAAAAAAAAAAAAAAAAAAAAAAAAAAAAAAAAAAAAAAAAAAAAAAAAAAAAAAAAAAAAAAAAAAAAAAAAAAAAAAAAAAAAAAAAAAAAAAAAAAAAAAAAAAAAAAAAAAAAAAAAAAAAAAAAAAAAAAAAAAAAAAAAAAAAAAAAAAAAAAAAAAAAAAAAAAAAAAAAAAAAAAAAAAAAAAAAAAAAAAAAAAAAAAAAAAAAAAAAAAAAAAAAAAAAAAAAAAAAAAAAAAAAAAAAAAAAAAAAAAAAAAAAAAAAAAAAAAAAAAAAAAAAAAAAAAAAAAAAAAAAAAAAAAAAAAAAAAAAAAAAAAAAAAAAAAAAAAAAAAAAAAAAAAAAAAAAAAAAAAAAAAAAAAAAAAAAAAAAAAAAAAAAAAAAAAAAAAAAAAAAAAAAAAAAAAAAAAAAAAAAAAAAAAAAAAAAAAAAAAAAAAAAAAAAAAAAAAAAAAAAAAAAAAAAAAAAAAAAAAAAAAAAAAAAAAAAAAAAAAAAAAAAAAAAAAAAAAAAAAAAAAAAAAAAAAAkMb/B1e+V0B3UNUyAAAAJXRFWHRkYXRlOmNyZWF0ZQAyMDI0LTA3LTExVDA4OjA1OjI5KzAwOjAwWFp+7AAAACV0RVh0ZGF0ZTptb2RpZnkAMjAyNC0wNy0xMVQwODowNToyOSswMDowMCkHxlAAAAAASUVORK5CYII=;" parent="1" vertex="1">
          <mxGeometry x="330" y="136" width="30" height="30" as="geometry" />
        </mxCell>
        <mxCell id="272sHSoe-_pz2Ps7QQTc-41" value="" style="shape=image;aspect=fixed;image=data:image/png,iVBORw0KGgoAAAANSUhEUgAACAAAAAgACAMAAACFeSMCAAAABGdBTUEAALGPC/xhBQAAACBjSFJNAAB6JgAAgIQAAPoAAACA6AAAdTAAAOpgAAA6mAAAF3CculE8AAAC+lBMVEVRK9SIbuH///+FauH+/v/v6/tZNNbd1fexoOyzouzq5fqunOv8/P5yVNzb0/ZTLdWahOb18/1jQdnGuvGGbOHr5vpZNdb9/f50Vd3f2PdULtWdiOf39v1nRtnNwfOJb+Lu6vtcONe1pO3+/f94Wt7g2vdUL9WhjOj49/1oR9rOw/OMc+NdOde5qe55XN7i2/hVMNWkkOn6+f5sS9vTyvRSLNSQd+Tx7vxfPNe8ru5+Yt/l3/lWMtWoleltTdvVy/WTfOTz8PxgPdjAsu9/ZN/m4flXMtarmer7+v5uT9vZ0fZSLdSXgOX18/xjQdjDtvCuneuyoey1pe2vnuuxn+xmRdnWzfWXgeXy7/xxUtyOdePNwvOGa+F9YN/r5/qReeSplurCtPBaNtbXz/W4qe3o4/luTtv5+P3VzPVbN9eKcOJsTNvi3Ph3Wd2YgeachuekkOhYM9bw7fulkem7re7Hu/GnlOnv7Pve1/e5qu7n4vl6Xd6NdOPc1faAZOBbN9bQxvPRxvRqStprS9pzVdx7Xt6McuJ8X99/Y9+DaeDp5PrUy/SCZ+CVfuXCtfCfiueUfOXRx/T6+P6smuumkul2WN26q+62pu2+sO/s6PqEaeHIvPFiQNj08vyZgubXzvXZ0Paql+pkQtna0vZWMdXj3fh7X96HbeG7rO7e1vft6fvKvvJlRNn39f1oRtrk3vjY0PVwUdz8+/59Yd9eO9fx7vvt6frPxPOjj+h1V92zo+zk3/jo5PlqSdrEt/BhP9jz8fyWf+VfPNjSyPTIvPKbheZvUNusmuq9ru9dOteOduPLwPKfi+eBZuCijej29P2dh+dwUNyoleq/se+QeOTPxfN0Vt2DaOBhPtimk+m3qO2eiefKv/Kwn+vBs/CTe+TGufHAs++LcuLJvfKtm+vMwfKVfeW3p+2Zg+aqmOqSeuS0pOzFuPF3Wt15W96bhuaKceKPd+O9r++gi+iijuhlQ9nTyfTm4PlpSNqIbuLc1Pbg2ffh2viBZeBlDZ11AAAAAWJLR0QCZgt8ZAAAAAd0SU1FB+gHCwgFHtqJ8MAAADAiSURBVHja7d2Lu5Z1mejxZ15XONKCBTqCLFFkliB4SASXouABESSWoOIhEcVCDWWk0jI842HSdGcpjZUlmg5mmnhA1MzjaJqMecxG02amzJmx0Wp32jPtaV/XNk0F5LDAdb/vjb/P5w947odXn/v9Xj/WeqgqAAAAAAAAAAAAAAAAAAAAAAAAAAAAAAAAAAAAAAAAAAAAAAAAAAAAAAAAAAAAAAAAAAAAAAAAAAAAAAAAAAAAAAAAAAAAAAAAAAAAAAAAAAAAAAAAAAAAAAAAAAAAAAAAAAAAAAAAAAAAAAAAAAAAAAAAAAAAAAAAAAAAAAAAAAAAAAAAAAAAAAAAAAAAAAAAAAAAAAAAAAAAAAAAAAAAAAAAAAAAAAAAAAAAAAAAAAAAAAAAAAAAAAAAAAAAAAAAAAAAAAAAAAAAAAAAAAAAAAAAAAAAAAAAAAAAAAAAAAAAAAAAAAAAAAAAAAAAAAAAAAAAAAAAAAAAAAAAAAAAAAAAAAAAAAAAAAAAAAAAAAAAAAAAAAAAAAAAAAAAAAAAAAAAAAAAAAAAAAAAAAAAAAAAAAAAAAAAAAAAAAAAAAAAAAAAAAAAAAAAAAAAAAAAAAAAAAAAAAAAAAAAAAAAAAAAAAAAAAAAAAAAAAAAAAAAAAAAAAAAAAAAAAAAAAAAAAAAAAAAAAAAAAAAAAAAAAAAAAAAAAAAAAAAAAAAAAAAAAAAAAAAAAAAAAAAAAAAAAAAAAAAAAAAAAAAAAAAAAAAAAAAAAAAAAAAAAAAAAAAAAAAAAAAAAAAAAAAAAAAAAAAAAAAAAAAAAAAAAAAAAAAAAAAAAAAAAAAAAAAAAAAAAAAAAAAAAAAAAAAAAAAAAAAAAAAAAAAAAAAAAAAAAAAAAAAAAAAAAAAAAAAAAAAAAAAAAAAAAAAAAAAAAAAAAAAAAAAAAAAAAAAAAAAAAAAAAAAAAAAAAAAAAAAAAAAAAAAAAAAAAAAAAAAAAAAAAAAAAAAAAAAAAAAAAAAAAAAAAAAAAAAAAAAAAAAAAAAAAAAAAAAAAAAAAAAAAAAAAAAAAAAAAAAAAAAAAAAAAAAAAAAAAAAAAAAAAAAAAAAAAAAAAAAAAAAAAAAAAAAAAAAAAAAAAAAAAAAAAAAAAAAAAAAAAAAAAAAAAAAAAAAAAAAAAAAAAAAAAAAAAAAAAAAAAAAAAAAAAAAAAAAAAAAAAAAAAAAAAAAAAAAAAAAAAAAAAAAAAAAAAAAAAAAAAAAAAAAAAAAAAAAAAAAAAAAAAAAAAAAAAAAAAAAAAAAAAAAAAAAAAAAAAAAAAAAAAAAAAAAAAAAAAAAAAAAAAAAAAAAAAAAAAAAAAAAAAAAAAAAAAAAAAAAAAAAAAAAAAAAAAAAAAAAAAAAAAAAAAAAAAAAAAAAAAAAAAAAAAAAAAAAAAAAAAAAAAAAAAAAAAAAAAAAAAAAAAAAAAAAAAAAAAAAAAAAAAAAAAAAAAAAAAAAAAAAAAAAAAAAAAAAAAAAAAAAAAAAAAAAAAAAAAAAAAAAAAAAAAAAAAAAAAAAAAAAAAAAAAAAAAAAAAAAAAAAAAAAAAAAAAAAAAAAAAAAAAAAAAAAAAAAAAAAAAAAAAAAAAAAAAAAAAAAAAAAAAAAAAAAAAAAAAAAAAAAAAAAAAAAAAAAAAAAAAAAAAAAAAAAAAAAAAAAAAAAAAAAAAAAAAAAAAAAAAAAAAAAAAAAAAAAAAAAAAAAAAAAAAAAAAAAAAAAAAAAAAAAAAAAAAAAAAAAAAAAAAAAAAAAAAAAAAAAAAAAAAAAAAAAAAAAAAAAAAAAAAAAAAAAAAAAAAAAAAAAAAAAAAAAAAAAAAAAAAAAAAAAAAAAAAAAAAAAAAAAAAAAAAAAAAAAAAAAAAAAAAAAAAAAAAAAAAAAAAAAAAAAAAAAAAAAAAAAAAAAAAAAAAAAAAAAAAAAAAAAAAAAAAAAAAAAAAAAAAAAAAAAAAAAAAAAAAAAAAAAAAAAAAAAAAAAAAAAAAAAAAAAAAAAAAAAAAAAAAAAAAAAAAAAAAAAAAAAAAAAAAAAAAAAAAAAAAAAAAAAAAAAAAAAAAAAAAAAAAAAAAAAAAAAAAAAAAAAAAAAAAAAAAAAAAAAAAAAAAAAAAAAAAAAAAAAAAAAAAAAAAAAAAAAAAAAAAAAAAAAAAAAAAAAAAAAAAAAAAAAALrSX9TqYL3SP+WmLv9I31f3P0O3Giuyfqc/wb/0YTXUBtY9NCAAuncTAAJAAPiwBAAUFwC19wsAASAAfFgCAMoLgOYeAkAACAAEABQXALWeLQJAAAgABAAUFwC1XgJAAAgABACUFwC9NxQAAkAAIACguACobSQABIAAQABAeQFQ+ysBIAAEAAIAyguAjfsIAAEgABAAUFwA1P5SAAgAAYAAgPICoO8mAkAACAAEABQXALV+rQJAAAgABAAUFwC1TQWAABAACAAoLwD6byYABIAAQABAcQFQ21wACAABgACA8gKgNkAACAABgACA8gJgi4ECQAAIAAQAFBcAtb8WAAJAACAAoLwAaNtSAAgAAYAAgOICoDZosAAQAAIAAQDFBUBtKwEgAAQAAgDKC4AhQwWAABAACAAoLgBqWwsAASAAEABQXgDUthEAAkAAIACgvAB437YCQAAIAAQAFBcAte0EgAAQAAgAKC8A2j4gAASAAEAAQHEBUNt+mAAQAAIAAQDFBUBtBwEgAAQAAgDKC4DhIwSAABAACAAoLgBqO7YLAAEgABAAUFwA1HYSAAJAACAAoLwA2HmkABAAAgABAMUFQG0XASAABAACAMoLgKZdBYAAEAAIACguAGqjRgsAASAAEABQXADUdhMAAkAAIACgvAAYvrsAEAACAAEAxQVAbY9SXgYgAASAABAAIACWsqcAEAACAAEA5QXAmL0EgAAQAAgAKC4AamMFgAAQAAgAKC8AansLAAEgABAAUF4AjBsvAASAAEAAQHEBUNtHAAgAAYAAgPICYMIHBYAAEAAIACguAGoTOwSAABAACAAoLgBq+woAASAAEABQXgBMmiwABIAAQABAcQFQ208ACAABgACA8gKgtp4AEAACAAEA5QVA924CQAAIAAQAFBcAtf0FgAAQAAgAKC8AmnsIAAEgABAAUFwA1Hq2CAABIAAQAFBcANR6CQABIAAQAFBeAPTeUAAIAAGAAIDiAqC2kQAQAAIAAQDlBUDtrwSAABAACAAoLwA27iMABIAAQABAcQFQO0AACAABgACA8gKg7yYCQAAIAAQAFBcAtX6tAkAACAAEABQXALVNBYAAEAAIACgvAIZsJgAEgABAAEBxAVDbXAAIAAGAAIDyAqA2QAAIAAGAAIDyAmCLgQJAAAgABAAUFwC1KQJAAAgABACUFwBtWwoAASAAEABQXADUBg0WAAJAACAAoLgAqG0lAASAAEAAQHkBMGSoABAAAgABAMUFQG1rAVBQADSv6yZ2+hM8MOPtN4X8V23L+Ec9yLqH9AFQ20YAlBMAB3sGG+qQkP+qH/LBggBYuy+3bQWAAEAAAMUFQG07ASAAEABAeQHQ9gEBIAAQAEBxAVDbfpgAEAAIAKC4AKjtIAAEAAIAKC8Aho8QAAIAAQAUFwC1HdsFgABAAADFBUBtJwEgABAAQHkBcOhIASAAEABAcQFQ20UACAAEAFBeADTtKgAEAAIAKC4AaqNGCwABgAAAiguA2m4CQAAgAIDyAmDC7gJAACAAgOICoLbHe+VlAAJAAAgAQACsgT0FgABAAADlBcCYvQSAAEAAAMUFQG2sABAACACgvACo7S0ABAACACgvAMaNFwACAAEAFBcAtX0EgABAAADlBUDzVAEgABAAQHEBUJvYIQAEAAIAKC4AavsKAAGAAADKC4BJkwWAAEAAAMUFQG0/ASAAEABAeQFQW08ACAAEAFBeAHTvJgAEAAIAKC4AavsLAAGAAADKC4DmHgJAACAAgOICoNazRQAIAAQAUFwA1HoJAAGAAADKC4DeGwoAAYAAAIoLgNpGAkAAIACAvAFw2N7TYr4pDhcAAgABAKQNgA9UR8R8U0zvIwAEAAIAyBoAR1bVoJivigMEgABAAABZA+DDVdUr5qui7yYCQAAgAICkAfCRqprRO+a7ol+rABAACAAgZwAc9dpFjw76TYBNBYAAQAAAOQPgmNcu+tGmmC+LIZsJAAGAAABSBsDMP1312KAjgM0FgABAAAApA6B23GtXnRX1OqBZAkAAIACAlAHwN69dteP4oADYYqAAEAAIACBjABzxp8vuGXUEMEUACAAEAJAxALb502UHbxwUAG2zBYAAQAAACQPgY69f9+NRRwCDBgsAAYAAAPIFwCdev+4JJ0YVwFYCQAAgAIB8AXDgGxf+ZFQADBkqAAQAAgBIFwCfeuPCA3tHFcA0ASAAEABAugA46c9X/nRUALzxY4YCQAAgAIBMAbDjn6/c531RATBnWwEgABAAQLIAOPnNS/cKOwI4RQAIAAQAkCwATn3z0oPHRQVA22kCQAAgAIBcATDnrWufHnYEsP0wASAAEABAqgDo/9a1288IK4AdBIAAQAAAqQKgqeWti58ZFgDDRwgAAYAAADIFQG3u21c/K6wAzhYAAgABAKQKgMlvX/2c4WEFsJMAEAAIACBTAJy71OX3DwuAQ0cKAAGAAAASBcDfLnX5E7qHFcAuAkAAIACARAHwmaWvf15YADSdLwAEAAIAyBMAn11mwNZhBTBqtAAQAAgAIE0AXLDMgMCfA9xNAAgABACQJgD+YtkJ7w8LgAm7CwABgAAAsgTAcv9ab7cLwwrgf7ULAAGAAACSBMCRy434XFgA1PYUAAIAAQAkCYCLlp/x+bAAGLOXABAACAAgRwD0Wn7GyJ3DCmCsABAACAAgRwB84R1DLo77S4AzBYAAQAAAKQLgE+8Y0n5JWACMGy8ABAACAMgQACv49fxz5oUVwD4CQAAgAIAMAfDFFYz5u7AAaJ4qAAQAAgBIEAAHrWBM68lhBTCxQwAIAAQA0PgAmLKiOZf2DSuAfQWAAEAAAI0PgC+tcNCXwwJg0mQBIAAQAEDDA+ArKxw097KwAthPAAgABADQ8ABYyffxV+NeBrCeABAACACg0QHwtZWMOiksALp3EwACAAEANDgANl/JqMvnhxXA/gJAACAAgAYHwNkrm3VF3MsAeggAAYAAABobAMeubFbHlaW+DEAACAABALz3A+ColQ4bMTysAHoJAAGAAAAaGgBfX/m0q8ICoPfVAkAAIACARgbA36982oJrwgpgIwEgABAAQCMDoOcqxn2jKawArhUAAgABADQwAM5Y1bxvhgXA9D4CQAAgAIDGBcB1q5p33PVhBXCAABAACACgcQHQb5UDtwkLgL6bCAABgAAAGhYAg1Y98VthBdCvVQAIAAQA0KgA2H7VE29YGFYAmwoAAYAAABoVAMevZuSmYQEw5EYBIAAQAECDAuCm1YzsuDmsAKYJAAGAAAAaFACjVjfzlkVhBTBAAAgABADQmAAYt9qh+4cFwBYDBYAAQAAADQmAY1Y7dPypYQUwRQAIAAQA0JAAuHD1U28NeyNw25YCQAAgAIBGBED3TowdG3YEMGiwABAACACgAQEwvRNjF98WVgBbCQABgAAAGhAAt3dm7pFxLwMYKgAEAAIAqH8AbNGpwWeFFcAdAkAAIACA+gfAnE4N3qx/WAFsIwAEAAIAqHsA3Na5yd8OC4A52woAAYAAAOodADt3bnLrdWEFsJ0AEAAIAKDeATCmk6Pv7Bv2MoDTBIAAQAAAdQ6A+Z2d/Z2wI4C7FggAAYAAAOobAL07/ZVyd1gB7CAABAACAKhvACzs9PD1wgJg3j0CQAAgAICkAVDdG1YAO7YLAAGAAACSBsB994cVwE4CQAAgAICkAVD9Q1gAHPqAABAACAAgaQC0PxhWALsIAAGAAACSBkB17ryoAGjaVQAIAAQAkDQAqt3CjgBGjRYAAgABACQNgGHbhxXAbgJAACAAgKQBUM1uiwqACbsLAAGAAACSBkB1dNgRwB5ZXgYgAASAAAAEwPLm3h5WAHsKAAGAAACSBkA1KywAxuwlAAQAAgBIGgDVd8MKYKwAEAAIACBrAEyeFFYAZwoAAYAAAJIGQPVQWACMGy8ABAACAEgaAB1HhRXAPgJAACAAgKQBUD28KCoAmqcKAAGAAACSBkD1vbAjgIkdAkAAIACApAGw4KawAthXAAgABACQNACq85uiAmDSZAEgABAAQNIAqB4JOwLYTwAIAAQAkDUAlpwYVgDrCQABgAAAkgZA9Y9hAdC9jwAQAAgAIGkAVI+GFcD+AkAAIACArAFw8MKwlwH0EAACAAEAJA2A6vthRwA9WwSAAEAAAEkDoOWMsALoJQAEAAIASBoA1dRFUQHQ+2oBIAAQAEDSAKgOCjsC2EgACAAEAJA1AE44JqwArhUAAgABACQNgOqxsACYPkMACAAEAJA0AKqPhBXAAQJAACAAgKwBMHLnqADou4kAEAAIACBpAFR7hh0B9GsVAAIAAQAkDYD2s8MKYFMBIAAQAEDSAKjOmRkVAENuFAACAAEAJA2AaoewI4BpAkAAIACArAHQenJYAQwQAAIAAQAkDYDq0r5RAbDFQAEgABAAQNIAqKaEHQFMEQACAAEAZA2AGdOjAqBtSwEgABAAQNIAqC4IOwIYNFgACAAEAJA0AKqNwgrgcQGQKQA+NGBd00MACAAQAIEBcN/8sJcBDBUAiQJg3XOKABAAIAACA6D6WNgCv0MACAABIABAAGQNgI5Dwjb4NgJAAAgAAQACIGkAVCOGR23wOdsKAAEgAAQACICkAVB9OGyFbycABIAAEAAgALIGwILjo1Z422kCQAAIAAEAAiBpAFSfaYra4XctEAACQAAIABAASQOg+lLYEv+kABAAAkAAgADIGgDH3R61xIePEAACQAAIABAASQOgOi9si+/YLgAEgAAQACAAkgZA9a2wNb6TABAAAkAAgADIGgA3PBG1xg99QAAIAAEgAEAAJA2A6smwPb6LABAAAkAAgADIGgAdN0ft8aZdBYAAEAACAARA0gConloUtchHjRYAAkAACAAQAEkDoHp/2CZ/WgAIAAEgAEAAZA2A8eOiNvmE3QWAABAAAgAEQNIAqI4IeyPwHvV6GYAAEAACABAAa+wHYbv8YgEgAASAAAABkDUAFp8YtcvH7CUABIAAEAAgAJIGQPVM2DIfKwAEgAAQACAAsgZA9cOwbX6mABAAAkAAgADIGgCb9Y/a5uPGCwABIAAEAAiApAFQPR62zvcRAAJAAAgAEABZA6B1/ah13jxVAAgAASAAQAAkDYDqn/pG7fOJHQJAAAgAAQACIGkAVBuELfQ6LCsBIAAEACAA1s4Jd0ct9EmTBYAAEAACAARA0gCong3b6PsJAAEgAAQACICsAVDdG7bS1xMAAkAACAAQAFkD4Ln7o1Z69z4CQAAIAAEAAiBpAFQXhe30/QWAABAAAgAEQNYAaH8waqc39xAAAkAACAAQAEkDoDp3XtRS79kiAASAABAAIACSBkD1o7Ct/pAAEAACQACAAMgaAMO2j9rqva8WAAJAAAgAEABJA6Ca3Ra11k8SAAJAAAgAEABZA6B6PmyvXysABIAAEAAgALIGwNzLovb69BkCQAAIAAEAAiBpAFQDwhb7AQJAAAgAAQACIGsAVN+NWuxtswWAABAAAgAEQNYAuHx+1Gbv1yoABIAAEAAgAJIGQNUrbLW/IAAEgAAQACAAsgZAx5VRq33IjQJAAAgAAQACIGkAVA9PiNrt0wSAABAAAgAEQNYAqPYJW+6zBIAAEAACAARA1gBYcE3Uct9ioAAQAAJAAIAASBoA1flNUdt9igAQAAJAAIAAyBoA1S5R271tSwEgAASAAAABkDUAlsyJWu+DBgsAASAABAAIgKQBUB0Wtt8fFwACQAAIABAAWQOg+nHUfh8yVAAIAAEgAEAAZA2AGxZGLfg7BIAAEAACAARA1gCovhC24U8XAAJAAAgAEABZA6DljKgNP2dbASAABIAAAAGQNACqWxatMyteAAgAAQAIgC7zz1Ervuk0ASAABIAAAAGQNQBOODVqx9+1QAAIAAEgAEAAJA2A6rGwJf9JASAABIAAAAGQNQCqf4la8sNHCAABIAAEAAiArAEw8raoLb9juwAQAAJAAIAASBoA1b+GrflnBIAAEAACAARA1gCozo5a84c+IAAEgAAQACAAsgbAPTOj9vwjAkAACAABAAIgawBUn4ja8027CgABIAAEAAiArAHQel3Uoh81WgAIAAEgAEAAJA2A6s6+UZv+aQEgAASAAAABkDUAqr+O2vQTdhcAAkAACAAQAFkDYMb0qFW/R1e9DEAACAABAAiALndB2K6/WAAIAAEgAEAAZA2A6idRu37MXgJAAAgAAQACIGsA3Hd/1LL/qQAQAAJAAIAAyBoA1YfCtv2ZAkAACAABAAIgawC0HxK17ceNFwACQAAIABAASQOgGjEvat1/TwCEBsC/XrCueVgACAAQAHkCoHo6KgCapwqAyAA42DMoAAAB8C4MOz6qACZ2CAABIAAEAAiApAFQfaYpqgC6YJkJAAEgAAABEOSUqACYNFkACAABIABAAGQNgONujyqAewWAABAAAgAEQNYAqF4M+8Wv9QSAABAAAgAEQNYAqH4WFQDd+wgAASAABAAIgKwBMHlSVAEcKAAEgAAQACAAsgZA9fGwlwH0EAACQAAIABAAWQOg4+aoAujZIgAEgAAQACAAkgZA9dSiqAJ4SAAIAAEgAEAAZA2A6qWoAOh9tQAQAAJAAIAAyBoAC+6KKoCTBIAAEAACAARA1gCojgh7I/C1AkAACAABAAIgawBUX4kKgOkzBIAAEAACAARA1gBYfGJUAWwgAASAABAAIACyBkC1U1QAtM0WAAJAAAgAEABZA6D6t6gC6NcqAASAABAAIACyBsDB/aMK4AUBIAAEgAAAAZA1AKqtogJgyI0CQAAIAAEAAiBrALSuH1UA0wSAABAAAgAEQNYAqKY2RxXALAEgAASAAAABkDUAqgOiAmCLgQJAAAgAAQACIGsAnHBMVAF8WQAIAAEgAEAAZA2A6nNhLwPYUgAIAAEgAEAAZA2Aar+oAhg0WAAIAAEgAEAAZA2AkTtHFcDjAkAACAABAAIgawBU/x4VADOHCgABIAAEAAiArAHQfklUAdwhAASAABAAIACyBkB1zryoAjhdAAgAASAAQABkDYDq76ICYM62AkAACAABAAIgawC09osqgFMEgAAQAAIABEDWAKhmtwUFQNNpAkAACAABAAIgawBU/xF1BHDXAgEgAASAAAABkDUA5l4WVQCfFAACQAAIABAAWQOg+mpUAAwfIQAEgAAQACAAsgZA9bWoAtixXQAIAAEgAEAAZA2Ay+dHFcAzAkAACAABAAIgawBUL0cFwKEPCAABIAAEAAiArAHQcWVUATwiAASAABAAIACyBkD1N8OjXgawqwAQAAJAAIAAyBoA1c+jjgBGjRYAAkAACAAQAFkDYME1UQXwdKfvoU0ACAABAAiAOvtGU1AATNi9s7fQLAAEgAAABEC9fSrqCGCPzr4MYIIAEAACABAA9Xbc9VEFcHEn72CmABAAAgAQAHV3elQAjNmrczfQXwAIAAEACID6+3FUAfy0c/N7CwABIAAAAVB/NyyMKoAzOzV/vgAQAAIAEAAN8EJUAFzYrTPjDxUAAkAAAAKgATq+HlUA3+vM+NsEgAAQAIAAaIRbFgUFQPPUTkyfIwAEgAAABEBDHBh1BDCxY/XDrxcAAkAAAAKgIcafGlUAnVh2lwkAASAAAAHQGLdGvRG49+TVzu4uAASAAAAEQIP8NOoI4N7Vjr5bAAgAAQAIgAZZfFtUARy+utHjBIAAEACAAGiU/4wKgI37rGbyKAEgAAQAIAAa5qyoAjhwNYOvEQACQAAAAqBhNusfFADNPVY9eHsBIAAEACAAGufbUUcAPVtWOXeQABAAAgAQAI3Tel1UATy0yrknCwABIAAAAdBAd/YNCoAnrl7V2PUFgAAQAIAAaKRXoo4ATlrV1J4CQAAIAEAANFK3u6MK4NpVTJ0oAASAAAAEQEOtFxUA02esfOiVAkAACABAADTWq1EFsMHKZ14iAASAAAAEQGPdd39QALTNXunMRwWAABAAgABosH2jjgD6tdbv1EEAIAAAAbBm2h+MKoAXVjZyrAAQAAIAEACNdu68oAAYcuNKJp4iAASAAAAEQMPtFnUEMG0lA78jAASAAAAEQMMNOz6qAGateOBLAkAACABAADTeL9qCAuB9A+t05CAAEACAAFhz20UdAXx5heMeFwACQAAAAiCBubdHvQzglysa9ysBIAAEACAAMvjfUUcAgwavYNpFAkAACABAAKTws6gCeHwFw34tAASAAAAEQAqTJwUFwMyh7xw2QAAIAAEACIAcfhV1BHDHO2ddIAAEgAAABEAOHV+PKoDD3jHrCAEgAAQAIACSeGpRUADM2Xb5Ub8QAAJAAAACIIsvRh0BfHP5SVMFgAAQAIAAyGLBTUEB0LTrcpPOFQACQAAAAiCN85uCCmDU6GUH3SAABIAAAARAHr+J+kuADy87Z4kAEAACABAAeSw5MSgAJnx0mTmtTQJAAAgAQADk8euoI4CvdywzZ6EAEAACABAAiTwaVQDLrsDbBYAAEACAAEjk4IVBAdB7w6XHHC8ABIAAAARAJr+NOgJ4dekpNwsAASAAAAGQSev6UQVw+FJTpgkAASAAAAGQytTmoADYuM/bQ/YTAAJAAAACIJeDoo4A3v/2jO0EgAAQAIAAyOWEY4ICoPmWt2bsIwAEgAAABEAyn4s6Aji2/c0RTwoAASAAAAGQzeejCuDINyccJgAEgAAABEA2I3cOCoCdF/95wt4CQAAIAEAApHNx1BHA838eMFUACAABAAiAdNovCQqAtl+8MWCyABAAAgAQAPmcMzOoANZvef36g5sEgAAQAIAAyGeHqL8EuOKN6x8qAASAAAAEQD6tJwcFwJg3fg6wnwAQAAIAEAAJXdo3qACmvH75fxMAAkAAAAIgoy8HBUDf198HuJ0AEAACABAAGc24LKgAHvzT1X8kAASAAAAEQEpfjfo5wAGvXXxPASAABAAgAHI6KSgA7h5dVWcKAAEgAAABkNPkSUEF8LuqGioABIAAAARAUlcEBcD8JVXLcAEgAAQAIABy6jgkqABeqqprBIAAEACAAEhqxPCYb7mZV1c/EwACQAAAAiCrq4KOAJ6vDhQAAkAAAAIgqwV3xXzNLfrV5wWAABAAgABI6xtNtXWCAEAAAAKgK31TAAgAASAAQACUFwDHXS8ABIAAEAAgAIoLgGobASAABIAAAAFQXgBU3xIAAkAACAAQAOUFwA1PCAABIAAEAAiA4gKg2lQACAABIABAAJQXAB03CwABIAAEAAiA4gKgumWRABAAAkAAgAAoLgCq/QWAABAAAgAEQHkBMP5UASAABIAAAAFQXABUtzYJAAEgAAQACIDiAqAaKwAEgAAQACAAyguAxScKAAEgAAQACIDiAqA6UgAIAAEgAEAAlBcA1VkCQAAIAAEAAqC8ANisvwAQAAJAAIAAKC4Aqt8JAAEgAAQACIDyAqD1OgEgAASAAAABUFwAVHf2FQACQAAIABAAxQVA9R0BIAAEgAAAAVBeAJxwtwAQAAJAAIAAKC4AqmcFgAAQAAIABEB5AVDdKwAEgAAQACAAyguA++4XAAJAAAgAeLfaf3/ExVc9/8ir0x78P1u/+pvt9vnQ3kNbBUBu/yAABIAAEADwbgx95pRBw9/5oDSP+5eXb2kRAHmj7UEBIAAEgACAtTTs8J9ev6qnpfe0i5YIgKTOnScABIAAEACwFlr2/lQn/h550eZHzhUAKX1aAAgAASAAYI0tOPKmTn9vvnKDAMh4frO9ABAAAkAAwJqZ++T1a/LULHr1TgGQz+w2ASAABIAAgDXQ+uSkNX5wHq33KYAAWL2jBYAAEAACADrviEFr8+QMeXq0AMh2kHO7ABAAAkAAQCfttdbvkPuvzwqAZGYJAAEgAAQAdM6t16/9w9P0yjABkMt3BYAAEAACADqh9el39y/J9/xvAZDK5PkCQAAIAAEAq/+6OOrdPj+T/iAAUnlIAAgAASAAYHX+e9y7f4CathIAmXQcJQAEgAAQALBql97WJY/QKx0CIJGHJwgAASAABACsyuFDuugZ+kldfh9QAHTSPgJAAAgAAQCrMKC5yx6iHw8WAHksuEkACAABIABgpT47rwufopNaBUAe5zcJAAEgAAQArMQvFnbpYzQ2/ucABECnPSIAAlzx4nvIZgJAAFCsqV396+JHC4A8lswRAKzSvwsAAUCpllzY5Q/S9wVAHv8oABAAAgBWoGPrrn+Q+j4mAPJ4VAAgAAQAvNNVEU/SmBsFQBoHLxQACAABAMt7ti3kUfq/sa8DEABr4vsCAAEgAGA5Yf9o/PcEQBotZwgABIAAgGUdHbVUmnsIgDSmLhIACAABAEu7tC1sq/RsEQBpHCQAEAACAJbSenLgWvmCAEjjhGMEAAJAAMDbPha5Vp5YLADSeEwAIAAEALxl8N2heyXw5wAFwJr6iABAAAgAeNPFsXtl4QMCII2RtwkABIAAgDe0jApeLF8UAHnsKQAQAAIA3nBe9GJZOFcApNF+tgBAAAgAeN3W6+5mEQBr7pyZAgABIADgNc81h2+WYwVAIjsIAASAAIDX/LYOq2WEAMgj9K0PAkAACABYZ/Srw2r5uQBI5NK+AgABIADg9/VYLf8jADKZIgAQAAIA/rMeq6XpOQGQyIzpAgABIAAo3iN12S3nCYBMLhAACAABQPHurstuOVoApLKRAEAACAAK9/v67Ja7BEAq990vABAAAoCyPVuf3dI2WgCk8jEBgAAQAJTt43VaLh8UAKl0HCIAEAACgKJNqdNy+YMAyGXEPAGAABAAlOyOOi2X3wmAZJ4WAAgAAUDJ/qtOy+WbAiCZYccLAASAAKBgO9dpufxEAGTzmSYBgAAQAJSrXn8TvLUASOdLAgABIAAoVku9lsshAiCd424XAAgAAUCpjqvXcuknAPI5TwAgAAQApbq8XsvlVAGQ0LcEAAJAAFCokfVaLscLgIRueEIAIAAEAGUaXa/lMlEAZPSkAEAACAAKtahOy+USAZBRx80CAAEgACjT/Dotl+8KgJSeWiQAEAACgCJNr9NyGSsAcnpJACAABABFqtc/CneVAMhp/DgBgAAQAJRolzotl18LgKSOaBIACAABQIG+XaflcqcAyOoHAgABIAAo0Kw6LZeBAiCrxScKAASAAKA8H63Pbrk+5u4FQFd4RgAgAAQA5Wmvz78H/HkBkNgPBQACQABQno3qslsuEgCJbdZfACAABADF6VWX3XKjAMjscQGAABAAFKcuPwTQPejmBUDXaF1fACAABAClab+wDqtligDI7Z/6CgABIAAEAKW5qg6r5W8FQHIbCAABIAAEAKW5J/5NcH+MuncB0FVOuFsACAABIAAozZXhm+UFAZDeswJAAAgAAUBpLopeLBP2EgD53SsABIAAEAAUZvTtwYvlP8JuXQB0nefuFwACQAAIAAqzaexeGX61AHASJAAEgACAhEcA14fulVfi7lwAdKH2BwWAABAAAoDCfD9yrczbUACsG86dJwAEgAAQAJRl/LjAtfLpwBsXAF3qRwJAAAgAAUBhjoh7F8BNCwTAumLY9gJAAAgAAUBhfhC1VNp+GXnbAqBrzW4TAAJAAPhCoCyLbwtaKhuE3rYA6GLPCwABIAB8IVCYWTF/CfDHbgJgXTL3MgEgAAQAFOafI56k+++JvWkB0NUGCAABIACgMC1nBfwAwFeDb1oAdLmvCQABIACgMM91/RuBd4i+ZwHQ5S6fLwAEgACAwtz5RBc/R79pFwDrnl4CQAAIACjNL/t36WN0Umv4HQuArtdxpQAQAAIASvP/JnThU7T1gvgbFgABHp4gAASAAIDSzOrbZQ/R2aPrcL8CIMLPBYAAEABQnD8M6aJnaKPx9bhdARBhwTUCQAAIACjO7BO75BF6paMudysAQpzfJAAEgACA4gy9690/QH1frtPNCoAYuwgAASAAoDyLt363z8+cvet1rwIgxpI5AkAACAAoT/u+7+4HAX54ed1uVQAEOUwACAABACX64P+s/cMz78n2+t2oAIjyYwEgAAQAlGj8S8PX8tm55KP1vM8H9u5yt/qvH/TJLuUbdf/ztDzG6my47v1vemnIB3G155/C/X7s2nz9j3vRJwcA67TPnrymX/9jfjvMxwYA67rTHl2T3wc/5sluPjIAeC+45SszO/ft33TsgA4fFwC8V4w/fOzq/43A45++xycFAO8tM07f7o9tK/3y7/6Rl/3QLAC8Nw284Kr9/n7nZb/6J1130oEvbuizAYD3uLlP3fq5F/e84uWLX7xg16lLfB4AAAAAAAAAAAAAAAAAAAAAAAAAAAAAAAAAAAAAAAAAAAAAAAAAAAAAAAAAAAAAAAAAAAAAAAAAAAAAAAAAAAAAAAAAAAAAAAAAAAAAAAAAAAAAAAAAAAAAAAAAAAAAAAAAAAAAAAAAAAAAAAAAAAAAAAAAAAAAAAAAAAAAAAAAAAAAAAAAAAAAAAAAAAAAAAAAAAAAAAAAAAAAAAAAAAAAAAAAAAAAAAAAAAAAAAAAAAAAAAAAAAAAAAAAAAAAAAAAAAAAAAAAAAAAAAAAAAAAAAAAAAAAAAAAAAAAAAAAAAAAAAAAAAAAAAAAAAAAAAAAAAAAAAAAAAAAAAAAAAAAAAAAAAAAAAAAAAAAAAAAAAAAAAAAAAAAAAAAAAAAAAAAAAAAAAAAAAAAAAAAAAAAAAAAAAAAAAAAAAAAAAAAAAAAAAAAAAAAAAAAAAAAAAAAAAAAAAAAAAAAAAAAAAAAAAAAAAAAAAAAAAAAAAAAAAAAAAAAAAAAAAAAAAAAAAAAAAAAAAAAAAAAAAAAAAAAAAAAAAAAAAAAAAAAAAAAAAAAAAAAAAAAAAAAAAAAAAAAAAAAAAAAAAAAAAAAAAAAAAAAAAAAAAAAAAAAAAAAAAAAAAAAAAAAAAAAAAAAAAAAAAAAAAAAAAAAAAAAAAAAAAAAAAAAAAAAAAAAAAAAAAAAAAAAAAAAAAAAAAAAAAAAAAAAAAAAAAAAAAAAAAAAAAAAAAAAAAAAAAAAAAAAAAAAAAAAAAAAAAAAAAAAAAAAAAAAAAAAAAAAAAAAAAAAAAAAAAAAAAAAAAAAAAAAAAAAAAAAAAAAAAAAAAAAAAAAAAAAAAAAAAAAAAAAAAAAAAAAAAAAAAAAAAAAAAAAAAAAAAAAAAAAAAAAAAAAAAAAAAAAAAAAAAAAAAAAAAAAAAAAAAAAAAAAAAAAAAAAAAAAAAAAAAAAAAAAAAAAAAAAAAAAAAAAAAAAAAAAAAAAAAAAAAAAAAAAAAAAAAAAAAAAAAAAAAAAAAAAAAAAAAAAAAAAAAAAAAAAAAAAAAAAAAAAAAAAAAAAAAAAAAAAAAAAAAAAAAAAAAAAAAAAAAAAAAAAAAAAAAAAAAAAAAAAAAAAAAAAAAAAAAAAAAAAAAAAAAAAAAAAAAAAAAAAAAAAAAAAAAAAAAAAAAAAAAAAAAAAAAAAAAAAAAAAAAAAAAAAAAAAAAAAAAAAAAAAAAAAAAAAAAAAAAAAAAAAAAAAAAAAAAAAAAAAAAAAAAAAAAAAAAAAAAAAAAAAAAAAAAAAAAAAAAAAAAAAAAAAAAAAAAAAAAAAAAAAAAAAAAAAAAAAAAAAAAAAAAAAAAAAAAAAAAAAAAAAAAAAAAAAAAAAAAAAAAAAAAAAAAAAAAAAAAAAAAAAAAAAAAAAAAAAAAAAAAAAAAAAAAAAAAAAAAAAAAAAAAAAAAAAAAAAAAAAAAAAAAAAAAAAAAAAAAAAAAAAAAAAAAAAAAAAAAAAAAAAAAAAAAAAAAAAAAAAAAAAAAAAAAAAAAAAAAAAAAAAAAAAAAAAAAAAAAAAAAAAAAAAAAAAAAAAAAAAAAAAAAAAAAAAAAAAAAAAAAAAAAAAAAAAAAAAAAAAAAAAAAAAAAAAAAAAAAAAAAAAAAAAAAAAAAAAAAAAAAAAAAAAAAAAAAAAAAAAAAAAAAAAAAAAAAAAAAAAAAAAAAAAAAAAAAAAAAAAAAAAAAAAAAAAAAAAAAAAAAAAAAAAAAAAAAAAAAAAAAAAAAAAAAAAAAAAAAAAAAAAAAAAAAAAAAAAAAAAAAAAAAAAAAAAAAAAAAAAAAAAAAAAAAAAAAAAAAAAAAAAAAAAAAAAAAAAAAAAAAAAAAAAAAAAAAAAAAAAAAAAAAAAAAAAAAAAAAAAAAAAAAAAAAAAAAAAAAAAAAAAAAAAAAAAAAAAAAAAAAAAAAAAAAAAAAAAAAAAAAAAAAAAkMb/B1e+V0B3UNUyAAAAJXRFWHRkYXRlOmNyZWF0ZQAyMDI0LTA3LTExVDA4OjA1OjI5KzAwOjAwWFp+7AAAACV0RVh0ZGF0ZTptb2RpZnkAMjAyNC0wNy0xMVQwODowNToyOSswMDowMCkHxlAAAAAASUVORK5CYII=;" parent="1" vertex="1">
          <mxGeometry x="40" y="297" width="30" height="30" as="geometry" />
        </mxCell>
        <mxCell id="272sHSoe-_pz2Ps7QQTc-42" value="" style="shape=image;aspect=fixed;image=data:image/png,iVBORw0KGgoAAAANSUhEUgAAAZAAAAGRCAYAAABL4+VpAAAABGdBTUEAALGPC/xhBQAAACBjSFJNAAB6JgAAgIQAAPoAAACA6AAAdTAAAOpgAAA6mAAAF3CculE8AAAACXBIWXMAAAsTAAALEwEAmpwYAAABWWlUWHRYTUw6Y29tLmFkb2JlLnhtcAAAAAAAPHg6eG1wbWV0YSB4bWxuczp4PSJhZG9iZTpuczptZXRhLyIgeDp4bXB0az0iWE1QIENvcmUgNS40LjAiPgogICA8cmRmOlJERiB4bWxuczpyZGY9Imh0dHA6Ly93d3cudzMub3JnLzE5OTkvMDIvMjItcmRmLXN5bnRheC1ucyMiPgogICAgICA8cmRmOkRlc2NyaXB0aW9uIHJkZjphYm91dD0iIgogICAgICAgICAgICB4bWxuczp0aWZmPSJodHRwOi8vbnMuYWRvYmUuY29tL3RpZmYvMS4wLyI+CiAgICAgICAgIDx0aWZmOk9yaWVudGF0aW9uPjE8L3RpZmY6T3JpZW50YXRpb24+CiAgICAgIDwvcmRmOkRlc2NyaXB0aW9uPgogICA8L3JkZjpSREY+CjwveDp4bXBtZXRhPgpMwidZAABAAElEQVR4Aex9B3ydtdX+k3jvve3svfdihjALYUOhtKxQWiijg37tV8rXQilQmtLSf1v23iMh7BESSMjeeznTe+89kv9zdK0kBTv2K/s6tq/Ej9i+V9IrPdJ7jo7O6nXkyJG3YItFwCJgEbAIWAQcItCLDOSIwza2ukXAImARsAhYBOBNDA5bHCwCFgGLgEXAIuAUAWEgvZ02svUtAhYBi4BFwCJgmYfdAxYBi4BFwCJghIBlIEaw2UYWAYuARcAiYBmI3QMWAYuARcAiYISAZSBGsNlGFgGLgEXAImAZiN0DFgGLgEXAImCEgGUgRrDZRhYBi4BFwCJgGYjdAxYBi4BFwCJghIBlIEaw2UYWAYuARcAiYBmI3QMWAYuARcAiYISAZSBGsNlGFgGLgEXAImAZiN0DFgGLgEXAImCEgGUgRrDZRhYBi4BFwCJgGYjdAxYBi4BFwCJghIBlIEaw2UYWAYuARcAiYBmI3QMWAYuARcAiYISAZSBGsNlGFgGLgEXAImAZiN0DFgGLgEXAImCEgGUgRrDZRhYBi4BFwCJgGYjdAxYBi4BFwCJghIBlIEaw2UYWAYuARcAiYBmI3QMWAYuARcAiYISAZSBGsNlGFgGLgEXAImAZiN0DFgGLgEXAImCEgGUgRrDZRhYBi4BFwCJgGYjdAxYBi4BFwCJghIBlIEaw2UYWAYuARcAiYBmI3QMWAYuARcAiYISAZSBGsNlGFgGLgEXAImAZiN0DFgGLgEXAImCEgGUgRrDZRhYBi4BFwCJgGYjdAxYBi4BFwCJghIBlIEaw2UYWAYuARcAiYBmI3QMWAYuARcAiYISAZSBGsNlGFgGLgEXAImAZiN0DFgGLgEXAImCEgGUgRrDZRhYBi4BFwCJgGYjdAxYBi4BFwCJghIBlIEaw2UYWAYuARcAiYBmI3QMWAYuARcAiYISAZSBGsNlGFgGLgEXAIuBtIbAIdFUEjuCIa2hNP9DL9Wcv/UtXHbgdl0XAQxCwDMRDFrq7TFN4xZEjR9CbzOIoo2hiHHoO8r3U693rW1/oCvanRcAi0CkI9OLLqM93nfJA+xCLQHMIqE3IrdjrOKZQebgBh/m/3qK9evWGr5cP/PjTVchI2PD4Ns31bT+zCFgE3IOAZSDuwdX26gABYRCaCVSQYewpy8Hm0gx8UZGFvbUlKG+ogxeZRpRPIKYERuGc0L4YEpaI/gHhTU9xSSRHJRYHz7ZVLQIWAXMELAMxx8627AAEDpN5yFUU5QwsLdiHF7LX49WyNKChhndUvhQvvOQuy1VE3CCD4T+I9I/Ez8MH4NrkSRhEpiJF96X+sP9YBCwCbkfAMhC3Q2wf0BICWvLIrC3Hvw4uwyN5G1m1N5K8/MhUeqOMDEPYhb5jlYsrfzKbEP480FhPjkEm4xuCZxKn4QfJExHY29syEWJji0WgsxCwDKSzkLbP+S8ENPPYVVmAW3Z/hOUVGRjgHYJKShsFRw6j8b9qf/ePYIolEWQmVYcbUdhYibuix+J3g2YhzjdI6Uz0ldh3W9pPLAIWgY5CwDKQjkLS9tNmBDTz2FiWjQm7FgC1pejvHYgDR1pjG999hC8ZSV8yktT6cpwb0gdPDbsY/agbsddZ38XKfmIR6GgEtDlLR/dr+7MINIuAEHaRDtJryvD9PR8p5pFiyDzkAXW84EqlxDLAJxRflGfip7s+QE5dhdKryLNssQhYBNyHgGUg7sPW9vwtBMRWShTmFdRfPLB3IVKr8tGPzCPdQPL4VtfYzz4G+ATh8/J03J+6kFdbDepZLvusb9e2f1sELAIdgYBlIB2Bou2jTQhoY6rXM9fj2cIdGEiCf7ADmId+uDCRgT7BeLJgG545tFJ9LKa9Vg7RCNmfFoGORcDqQDoWT9tbCwhoncT28hyM2vYG4kjVC1lXrKw6sgiTSiHTSDtSh1Ujr8HU8D5WH9KRANu+LALHIWAlkOPAsL+6BwF9dSXXSg8f/Eb5eIiZbkczDxm9SBu1vCajCzseObQM5bwuk2sze5XlnrW1vXo2ApaBePb6d87sm+6QlhTsxWslqejnFYhsKr7dVXLZdz+vACwoPYCvC/a4HmPvsdwFt+3XgxGwDMSDF78zpi4nf7G6Kqivwp8zqJfo5YOiTtBKFMoz6Mn+58zVyOezZQxWCumMFbfP8CQELAPxpNU+GXNtOvl/kL2VzoJZ6Ovli7JOYCDlfIY8a3VFNj7ks1WxUsjJ2AH2mT0YAatE78GLe7KnphXnh6pL0G/Lq9R91CKAsa2qO4GByNwDqEyvFisvb38cGnsd+vhbB8OTvSfs83sWAlYC6Vnr2aVmozfXm1kbqNkuQTJjVXUW8xAg5FkpfCZqi/FO1iaFjR5TlwLKDsYi0E0RsBJIN124rj5sLX1sLsvCOJrtRlAaqOT/dZ08cH8+szeV6lXMULVt9A8wMjjOmvV28hrYx/VcBOyBrOeu7UmbmTbbrSXhfiZjDUBTWj9eXbWHeWgnRKeTqqEUEtabIeEZHv7FjHUqbLw163WKoq1vEWgeActAmsfFftoOBHQIquWF+/Dvwp3o4+WPnHaY7UZyLBHtGI+YDCfTrHduwVasKTqketJjbEe3tqlFwOMRsAzE47dAxwIgkXblhC8OfI+L9MH8HtWm4gNbR/EKqoiK8CIyAVfaKLPxNnBMort/OnMtqhkC3kohZjjaVhaB4xGwDOR4NOzvHYbAJ7nb8UHZQfSlBVS+4XE/ht7qhQ1VuD9uPB6Mn8DfqxErjMCgiATUl5LQS8WpWFKQ6urBmvUaIGmbWASOIWAZyDEs7G/tREDn+chihsF7Myl99PZjcigzKh1IySNf0tf6BGBO8mT1P5gsKo/SgySTMikl0ohWWXM5tiLqRKxzoQmKto1F4BgCloEcw8L+1k4EtHDwbtZG7KvOp+7Dh5ZXZgwkWjprrMZTidOR5B+KeL9gPMvUtfJZpH6Qw/GWcix9mC53UXkGPs3Z7mptNjyHT7bVLQI9EwHLQHrmunb6rFzJm3phV0U+7s5ehwgqrbMMFeciYaQ11mFMYAIuSRh9dC6z40dhbFCC+s5UCikUiYge6j/MWo3M2jIlhbjGfvQx9heLgEWgjQhYBtJGoGy1lhGQQ7wopSU84mtZ65XJbABNZ02i7crllLK4OlKP+5OnHM1xLtdjsbzCuj9xKpXh9RDLLJOLLJGIUnr7ADVFeC97C3sx60c1tP9YBDwcActAPHwDdMT0hbhLWVN8CA/mb0WMdwAV52bRdqOpOE9vrMF1YYNwTuxw1/CEUzRxi1lxQ3FN2ABKITVQ11yuGo7+VXoZSkh35qzHrsp8K4U4Qs9WtggcQ8AykGNY2N8MENBOg5Lr4/GM1SoPB8gE6g36kib+ihkdwW1UnAdR4S3XS5JVUP6T34MpPdyeNIU1jyDAUH8hIU4krArqKvFG5gYlObnMeg0HbZtZBDwUActAPHThO2raTcIHFuXvxpsle5WprKn0kaikj2r8MnoUpkb2U0M8Xl+uf58W1R93RI2gFFINaWNSMighJTEf+wP5m7GhJF11oSUpk/5sG4uAJyJg9vZ5IlJ2zt9BQAiunNwL6qvxoEgfvbxRwdO9SaFWAuU00ZXIuTenTIF3k8QhkocuWgrx4We3UD8CWlRVkxFQljAqh4UjNTbiKTo8StgV61xoBKNt5MEIWAbiwYvfUVP/JGcb1lRmMQugH/OcmzGQBEoS5Y1V+EfcRBXwUK6ohKB/u+jPxoQm4OHYcSimo2G8oRQiIU5SqK95tngPVhbudz3KbPjfHqb92yLgEQhYBuIRy9zxk1S6CRL4fVWFuIEmsb2olM7W91kOHxdKiSKNoU9iA6JxZdJ41frwCQi5Sy8CXCN1/cKRQf1L0HGSipPHV0hlMqC/ZqxCCfOVWOdCJ+jZup6OgGUgnr4DDOYvtF1LAm/SaRC1pUopXWsofSjHwMPV+FvCJCT5hUBfjbU0NHXVRGbVLyACTzPEiTgXmlpkFXPMfXr745PyNCzM2+l65AmYV0tjsp9bBDwRActAPHHV2zlnrWyWXB+/z92IeCqjRSltUsIpORxsrMW5If3wPToKOi2XJIyhw2E8DtHx0NS5sEQYH3O1/z5rDXLqKlxSiKE05XT8tr5FoDsjYBlId169kzB2LX3UkcA+le7K9SFXQCaHdtl8QTIHMp97kqcikgp0YU5yjdRaUVdNrKucC9m2Pc6FkqNd8qfvqcw9lj+9tQF0wveChfwvV3byf0t/d8JQ7CMsAs0iYBlIs7DYD1tEgIRMyvLCvXiieDcSKX2Ymu1KtN1MXj/dGjkEp0UPcj2yDczDVZH/NvGZWTHDcEVof+VcGOWk/dGO4Ar6yLncSufC/VVFJ9W5UDMKYZLyv1zZyf8t/a3rHzcd+6tFoFMQMLWA7JTB2Yd0LQSEUAkRK2Ek20epdBaxo4ZDpPGt4yK0X1LNSnTc2yhB+JOZyClb61ba0qE26w1h0Ma72ce8HYcQaCIK8WES4kScCzOoz3mdzoX3Dj5bjUW6a10easto21bneAxqG+pxsDAfmzMPoaK0FHW1taoTHz9fBIWEYkLKAPSNioGft+s1Pkw8exHHzhxv22Zla/VUBCwD6akr68Z5fZa7E5+VHUI/nxAcNNR9JJPQpddX4A/xkzA2LEmNVpiT06KbTI3qh59FDcO/C3Yi0SfQKJBjJuci+pz78jZhdtxIjKWpsGaaTsfltL7ie00MtLK+Dqv37sJLG1bg5fR95NJVQD2ZR5P0Ry5BfxlfIDAE15OJXDNqEk4dNgohvn7qsZ01ZqdztPV7HgK9uNkMz2w9Dww7o5YR0CdjyfUxdcvrPKmXIZRhRUR/4LT48YzcwCyDjd5+2DPqGgwOinYsfRz/TD22TWWZGL/tLZXFsJQVTII5imd7Vn0l7qI3/NwRsyFOi+6WQo4n+LtyMvHQlx/ild2bmAvFF+E+fohiYEqf3jIOF4OV3xr42ubRCbKsjoyF5sfXDBqNO089BzMGDlXQHN/n8VjZ3y0CHYmA1YF0JJo9uC+9UeZnbUKGyvXha8Q8BKJ4nqAbqft4NmGyYh5C7JxcXX0bZt12XGgSHoodq7IYtse5MJlSyD8Ld2BV4QH1KHeesY4n9J9u34jhL/4dr6RuxdCQCJo0B8KbWEk63xwyi5zGBvV/Nn8vPHwYvmR2Sf6BGBISiTcP7MIpLz+OF5YvRj2/E2nOneP+9hrYvz0TAU0XPHP2dtZtQkBO+HJtIrk+7szZgGCvQDoNmpntRvAUfYhmu+Noeiv5PTqqqDGys+8n0rnQN9TYuVCkDV4YsfTCE8yfXkEHR2FQEjSyo4v0qK/t3t2wCt979zlEEtaBwaHIYViXSmIsUpR+ssgf+n/5rIHfSJ1c1u3H66xBgaG4+bM38cin81BN/Yn0rXFhdVssAh2OgGUgHQ5pz+pQR9sVYvWMxLvi9U4Yr1RMo+2GkqjhsOT6mKZMcIXAaSLaHuQUkWdfAwIj8UziZGr2a2BqkSXOhSkMy/JG6T4VJFKNS1Px9gzy222FMbN8sWMzrlrwIhJ8AxDg5a2uplyXVd9u0PzfUreYTKSI/Q0PicL/Lf8Mf/t8AWopsWhcmm9pP7UItA8By0Dah1+Pb91E47CuOA2PFWyDXO+IstmkiLf4IVpwXRbWH2fFuO7qhZ90dBHJZmBgLM1664xCnAhZL5dB0bnwD5mrVbDIjr4S0oxzW2YazvvodYT5B8PLywvlxNbLABCB8TAZn0gjwyPicN+Kz/H8N1+qnjp67AbDs016KAKWgfTQhe2IaWnpo5Kxpv4l0gcpa60hxRdzPy/hRr1745cp03kN5uOycGpSDHfEeDWhjPMNxtwk5k9n5sIow47FO12cCzdXZuNjBovsyKJ1PiW0rrrn03eB6io6UdIggbqL9r6QwtpFVzIsLAa3L16Az6hXscUi4C4E2rtf3TUu229XQMB1w4LFzPXxGnN99PHyp8OdmfQRS4VvbkM1fs08HtMi+7tmZ8iMTghNk0QzK/aYc2G0IZOSKyEwTtac7LU4VF3S4TqF99avxOcHdmIY9RcFlBw66mWUFSqXsfNK7Lov3kNmycl1jDzhetkvuzUCHbVnuzUIdvDfRUBbB+Uza58r14cPilmtiad8t8EJPhHpo4YEUnJ93Jg8SeXvUFc4J2hj+tXxzoV3JFEXwhEHGnZWzrYplJQaa4oxL3uz6sWlUDfskM301dWO7AzcvOxzxASH06Kq0ejaqqVRCA+Vq7BBfv4oKsrDy6u+VusmY7fFItCRCFgG0pFo9sC+PsjZqnJ9yHWOEFSTIr4VRTTb/Xv8RIwIjlNddITivKWx6L5nRA/skMyFMdT7/IohTraV56hHmprH6qsrsZD619LPeXVViSAqzSWuWEcXebGLaO7bJygMv1u3FBsO0SGRRRiYLRaBjkLAMpCOQrIH9aNPyQeri3FL9joqLwJcsaIM5hjI66M0Wl0F+0fiisRxqgcl3Rj01dYmcs6WOfjy2TclTeL4fVHDE7lJ2AUht+JvASr/X83aoMK2mEohmnR/tWMLnti2BkNodltE6cNdcoGEmPGizglkWM9TCqmVazJKIaYMsK3423qeg4BlIJ6z1m2eqSaQEhNKcn0kMUaUxIoyKTFybUK/j2eSpiLFP8ylOO+EqxR9XTOeYVIeYubCImYujBNGYFDE5yWRmQv/kr+V1miHVA9OibCWPrLLSvA/Sz5hIqxAVJDJmY2obZMQxiQMajB1LP/ZvhYr9uxwjb1tzW0ti0CrCLhz/7b6cFuh6yGgrzg2lmbgXub6iOL1Ta6h4lyU12K2e25ICs6PH9npk1WSFJ+qMhfSuTDTMHOhKKXrRE4gwf8P86dXsR8Xk20bU5Va+lrtjdVLsT03A4N9/clAzAwSnAApTKRaBsDYWY+vWITSmmorhTgB0NY9IQKWgZwQHs/6Upvt1pGwPZOxlvdA9er6xiSmlCDnUl434leUPsLpmKevxjoLVX1d0z8gEk8mTGxX5kLJ9Z5MK7SXS/ZhSUGqawpt4x9Hr4zWHdyHX61ejD5NivPOevmEUQ32D8L7B3fhy+2MsWWLRaCDEOisPdxBw7XduBMBrV9dUrAXTxbtpB+E5Dk3OyXLdVEavcF/Ejkcp8cMUsPuhJurFuGRzIWjVObCemPnwio5znNej9AnpogmycrvpJWrPX11Vc6gh3+VqysqtikCGIXAb3FybfiilOvY2y8Iv6TlV1ZpsWvsesHb0N5WsQg0h4BlIM2h4oGfaUJXysiuj2cy0yANSysMcWCgcUaLJeNhyJMfJ09mrg8vl/ThNnVxywNVRJ6EMp7OhX8Us94jdcbOheIX0o+S1NKKDCzM3aUe2lYa/PnW9Xg7dQuGBgSjRIIdtjzkFr9R/KvFb0/8RS0HOpDRfdPys/D+RjqF2mIR6AAELAPpABB7Uhef5m7Hx8z10Zc+G3JtY1Ik02AhldYPxo3HhLBk1YVWapv01+42TdT63NjhTZkLa2HqXFgoHIPOhb9m/vRMhrSXeWm90bfHqa/sDjAp1E1LPqUxWyhKRBL4dsU2/C0rIVZlQXyeyaoIBCKFhNHy6/Y1XyE1L6fDHSPbMA1bpYchYLKXexgEdjqa0GXUlOFaxn4C7/pz23q0/hZ8kusjl0pm+IbgmsQJ6qTdEoH9VlO3/XnMudAXdyZP4XMaXbnYDZ4ovjB96FyYXl2A907gXChEXphLI+u/uGIxKkoKmIBLzImdk3+5RBRzaME1g1dhgYZMRJ4dxZApKGfWxTXfMHaWa4wGMNgmFgGFgGUgdiMcPRHPy6aCtaYIKTTbrTE654KmskwWRd3HkwmTGNAwUlkunVTpo2l9OSxVJIyK6GUO0bExwdCsV4JJhlM/JKHt91QWqH6/bdar/16RuhMPrF+KQcFhKlxJ0zCaRtX6D2E3kfTlyK4qw/+OmIA/TzmTv5cjlGN3yorkZS+hWW8fjuWPm5Zj/cG9agAnm8G3joKt0VURsAykq65MJ41LEQ9S150Vefh59nr4kzDmG5ySZbghPCVLBNzJQQm4TDsNOqWYbpq3lkL8SHh/IlIInQvryQhMnAvFQS+Y+h3UVeCVzHWKkAuT1ARd65OKGCTxwa+pOGddyWZuAoWMr4E6EzBd7Y+mnYnbTj8X8ZGxyKJzoJ/mig4wk7H3FsbZ0ICnKBmJV7wau+GaO3i0rdoDEbAMpAcualunJATPdc0CvJhBj3NaFkWQ2JlKH5Q3aPpbh3uTpiCWecmFkArh7ipFS0KSg/1PMWNRQD2NaebCHDKfWPrIPJi/DRtLM9UUtdSh5/shldVfHNqDITShLRUm4LBIC1mPjIpSzJ16FobFJyEiIBCPn3Iu43NVKCnEYZdqNbRz4XO71mNlapMxgNOObH2LABGwDMSDt4EmeCuLDuBR5vpIaIfToETbPcSrq6vDB+JsRsJVpevwjqOrLBKXbPprkybQGzzMOHOh8o2Rkzx9ZZ6lc2ENc7wLgzpMxiKWXxIs8cZvPkMcY1FJSlqTF00U5nvra5ESnYDvTz71KCs+f/QEXDFgJPbWVCJYxuCwSItqkThoKPHY8oUopqRkpRCHINrqCgHnu88C1yMQ0E6DlSSA/8xYRV3FYRwWAmg4Oz8hSGQYdyZPRRB1KEKou5L0oaelCaXoZ56IJxOhLkQSXZkUCW2fxCu/J4p2YXnBftWFXA/VUc/w1LIvmRu3HIEMllgv2Dgssg4hwhyqy/HXU85GcnikkugE11BG2b1zxixKjHUI4NCd9w7lBT+Y+dQ/PrQbn29lyBpbLAIGCFgGYgBaT2iiadpX+XvwTsl+9GOsJ9OQJRJtN53XQfdEj8LUyH4KHh26oytjdWn8GPRn5sJDzHsedPR83/YRC5GvFd5DP5fHaL0mPjRSFu/cgn9uWYXBIn2QmThlT8IQhHnsYcKpi/uPwHmUOHTRfU0bNAy3j5yC1MpyKtm9jJiImPX6MhPi71ctss6FGmD70xECloE4gqtnVNZK3lzm+vg/kT56+9I/weQcC/iTPEo+C1DncTOV0z782yV9dF2sjjoX+unMheJcqEmzs3EXEDdxLvykdD+WFu1FQWUl/verj6n09kclvzPpVVLaMl+jkgp/ddp5CKekoPRJlJRk7HJN5sf0tz+eMZPP8VVKdpM0uOJc2JemxfvyMvHOuhXOJm5rWwSIgGUgHrgNNFH7iKlaN1bmqNStksLVpMSSoNVS+vgbnQaHB8cqQqeV1Sb9dVqbJhAkc+HskL4q7IopE1HOhWQiLzPc+3+++RSb8okpr5kqSeidFlmFMEoUByvLcM/oKZg+eLiri+Ou2ZQVFT8dk9Ifj0w8HemVJUrZ7vRpAoE4NkZTUvr5uiXYk5ttnQtdaNt/24iAZSBtBKqnVBPpgFQC+6oKcUvWaiY0CoD4NZgUufaRXB8hAVG4OnG8SRcnrY026w2jOe8vU6ZyHIfNnQuJn49fAN7duQ9/mPcZEoKCUWwYrsSbmEreDlDqmDPjLPgoieO7koyso7y8olxHeAwylD5EHw3aDqskswqhnga8Cnt1zRKGoGG/fKbZcaLtz7U1ewYCloH0jHVs0yyEKGjp4NXM9fRjcN2fK4uiNvXw35Wi5FTMXB9PJE5Bsn/o0WuW/67Vdf+S4UuZHjkAt0UOQxrNmEWf46i4QEV9TQNGrCzApL11aKiqF6DRy4AKR9BpMKuyFI9Pm6XMdmUszemTtDFAv6gYPDv1TNQaOhcKBKVkWH2DQvGnjSuOOhdqCz1HWNjKHoeAw7fF4/DpURPWREH8Fv6Yt1Xl+hB/BpMSLtIHmYfk+rhA5/pwfgA2eXSHtdFSiDgXzmHQR8mZIaHsnegT1FndqzfiU0vgs7EUDYwkGZ7B9FtkHkcc4iGOgWK2Oyo2BVdOnK7m2RZ90uxxUzAxoS9SGeYkQHNFByiJc6FIpTLoJ5kzxDoXOgDPw6taBuIhG0BLH+Kv8ATDkYvDnxcJJ8/KRiVUWrGv36RMRyT9CZSS10hlbPT4DmukT/cS9NGxc6EwCTIPn7I6RH7N4IR+/NunFwIzqhFSWotGB1KIrI+EJwF9Ox46/TwkhkUoTLXE2NyEtTFAbHAo/njquZQoq+kXImzRWZH6cuU2mJGCX9y5AUt2bVMdyJhssQicCAHLQE6ETg/6TksfS5nr45miPUhRIUvMpA/x3pbrnpsjhmBG1AAXSk6pVhfBVoatT/nXJlGPw7DvkrlQghe2VlQNEuyELYXw3VuFIwGUXUh1ex2mr0Z6JXo30tum9W7UY8J5dZXKa6jvDxqNmcPHtPbo73x/JttcO2gU9lbTuVDyoDss0qJKxCbfADy+crF1LnSIn6dWd77TPBWpbjxv7TRYzPSyj4rZLhlAFedjesLsJddejEh7O5XPJzPXR0ctidYnDAyMwhMJvMqiR31rzoW9SGyPeDO8ekE1wr7OpfjAV4mMQ0AVKcQvtxZhBTVtkkJkHbzlHzKbu089B8GMe6WYWhuuo1xmvUdUmztOmcWH07fDNQzH8IjVmDgXfpa2B59sYWgbWywCrSBgGUgrAPWIr4U4sXyeuwOLytKU34Jpro9kMp9smu0+EDsW45tyfehrINdTuve/l9C5sG9gDPU79SeWQoS4k4/Gr82DV34dmQZfpSacBQH5OiStAj519PA/wVsmTaJotruPivP7xp+KKQOHKADbwDtUPflHCzlTBgzFPWOmsa8y1edxwzlat7VfxKw3JCAEP2aIk/TiQqXAF2Zmi0WgOQROsLWbq24/624I6JOsJD+6J4t5znl1pfwWDCYiZrsZkuuDMaQklpRsHn39Y9Bdl2qi9QkJ4lxIqzLREbWUdMolffRGZHo5glaQFUfQDFakD134q0gnPsX1CMurQiO5QUsWWaI4z2dEXISE44fTzqACXztiaragO235p5ZCvNnX9VPPABhwsZqWVSaRhsWsN445Q6qL8zBv/Ur1UEskWsbe07+xe6MH7wAhaVoJ+2bmBmQyCVIKr54kKZJJUdc6jB31HK95BvG6R/Qqun+T/rpcmyaafW7cCFwW1k85F36HiQhzoHIcNNuNWZaD3rW0YfLi381BKldch6oQUNVAKeS7dUQDFU6Jrpy5Pp6dfjaGxCYYY6rXYXRSH/x9MnOGUKKRSL5OtVwCgYQ4iWPmwl+sWYydDAop4pSVQrrcbu0SA7IMpEssg3sGoRXnOypycU/uBkQz2q6p02AYT8aHmOtjIGNHXRQ/yj0DPsm9arPeUDoX3iH505vJXKjMdr3FbLcUAetKcSSU53wqy79ThNGQsXiTeYRlVboIuVDn44pE0t1TV4PxCX1xMU1x21s0kb+CJsCBEbHKJFgi+jotIoVIEEjU1uAVZi5sbDooNDNLp13b+j0MActAetiC6unIyy6nUnESfD6dV1f1NUxA1NvxiVT6ExLkMtttwNzk6Yj1DXKZ7RoQJ+mvKxc9pVOiBuJWOhdKiPqjmQsVU+gNbzHbXZLDqyIiQ+LaYpH61I2IWW8w24gUcvxVljQH/T7+dNr5iAkOaTemst5yaEiJiMJTM85WJsHCpE4wwmaHLsNSzoWBIXh480qs2r9b1dMHkmYb2Q89EgHLQHrosuuXfXXRQfytcBuSKH1k8WrCpESSMKWTkH4/bADOjhnm6kKoTA8sWgoRZnurZC5kaHqduVBJH8QicSvNdnfTWTCQZrutQUqcetcfRiidC0VPIma9QtBDaWq7r6oCc4aOw8wRzs12W4P+e2Mm4czkgUitrWYOdeev+THnwsN4YvliVNbXqQOJ3letPd9+7xkION9ZnoFLt56lNtst55XTf5jsSKhWDWfk9CQqIMgG8ZOGJJx3kaAGU4fiUpz3UA6ipuqa2zhamYm1mWQujCMSR3h1FZRfjdAleVScC/NoA6KsIlKIf04NQopczoW8HHK1JRO5nbk+Aqm0VpgS4/YWbQwQGRiE35xyDnOG1NKa7JilVlv7l5GIc+EQWmS9lroZS61zYVuh86h6loH0xOVuomsL83bh9ZJU9PHyh6nZrlzfZJGA/lrl+uiv0OpJZrvNLb8QTyHoZBH4QdJEOteFUHfUAF9KG/FrcuFNHw98y2y3uX6OfsYO5eoqjGa9XpRGwhmKPY0RdP886QxM6DtAVXMHpmcOH41bh03AvmqmvyWzagO7Ozpk+UWIg4SkF+fCR2jWW8CAi/qa7L8q2j88FgHLQHrY0ssVgxCjPOb6uDeT0gdzfVDVazRL2Ry1DFciqU9/REIqBNUlfRh1160aaUIpmQv/FceETr1q0C+zCkHLmsx2m1OctzRDwi/Ohb6F9Yikc2GemEKHRuKaKaepFh2Nqay/9OlPRfjN087kM8gMZV+0NL4TfK6cCxlpeGnmfny6hQE4bbEIHIeAZSDHgdGTfn0/eyt2VeVQ+jBnIEmUPgrovf73+EkYHRKv4HHHSbmr43550jiM9o5D7ZI0+AjjEJNck0IOHJNRg/KiErxMxfmAaPflT9G3YZP7D8bvJ5yG/e3IXFhM3VkEr7KuX7EQhwrzrXOhydr30DaWgfSghVUnWVIOyfVxa3b7nAZDeV5Npzd2UkAkrkwcp1Dq6JNyl4deqDBP7gmMj/Wrir449PF++IYz3K4T6UNPknzH29cbew8U4erAPpg9vv1mu7rr5n5qYwB5wX849XQgKARljQ0qY2Rz9U/0meR0j6KeBsUFeHv9ClW1N/eHmVx7oifZ77obApaBdLcVa2G88jKraxf+fI1Og5LrI5kWRLQVaqHFiT8WyyscrsFf6ZWtc31I/x5VSDjFeKCkrBzLFixDUkoE6qhYNi2HqXSPjvBH5vYslOQXq27MVqdtI1DrxTkMjUvEf6bOpA6jDBK00ekMZNUlxEk8c4b8z/ql2J6drrTy1iKrbevQk2tZBtJDVle/zOtK0vGHvI002w1AhqHZriSKOshcH2eH9MH34ka6EPIw3nH8tvji6+V49tWl6BMRjIZGp+T3WE8NZD6RQf5YvukgXn7vo2MOesKo3FT0aC+jc+GwuCTspeOi+IY4LSKFiE4F1VV4ceXXqOdc9IHFaV+2fs9BwPlO6jlz7zEz0Wa7tWQYz2bw6opxkA4bEAkBRPhEgNAzKs/vSZqCMO+myLBGKljpsXsWfR2YlZOPuS/Ox7CJiahr0OTYbE6CbVVdA6YNS8AfnvsIm7bvVB1p5m/W64lbKSJP4h8fEob7meUQtMiSnCFOWZaMXZwL+zN/+tyta7B6n3UuPDHynvGtZSA9YJ31AXZpQSqeLt5FxXkAsg2ljxgyngzGu7otajhOjxms0PG4myvOWl/Xzf9kIdZuz0A4JQc5dXdEOSzU2NsLz77xPmrq6KAnJrZ6ETviAS30ce7oCbhk4Ejsqa1SUohTJiKzb5Sxs/yLmQsrmAFRMyjXp/ZfT0PAMpBuvuJa+iiitdRfJNNgL2+a7ZoVcXA7IoyHupMfMxZUQC8G4yNhE4WsJ5UjTYxi265U3Pns+5g4OBY19Y0dhkIt+5qeHIknX/sKS1e53zRWLOeEQYX7B+CuGZRCqEynKYAyy3ayrrILSojNEGYufIvOhV/v2qqaO2VETp5p63ZtBCwD6drr0/romt7eT3O2Y1FFBqUPP2O/D8k0mE+nwfvpfT0uLEk929PMdoXQikRQ39CIV979iI4wtRQWvDpcQqijLmVA/yj8+9X5KCwpVaaxbpVCmsTIUwaPwB0jJuIAsx+aOhdWiLTkF4RHl3+JfOtc2Po72oNrWAbSjRdX39On15Tih5nMNEinQdNcHzTSRBHvuOEbih8mTVKnbY8z2yUGQhulrFy7EY8+8zklhShKHxKSsmOLKOPjwgLxwedb8NEXX3ds5830JtKDrKcfmeGPZ5zFKzRvJi8ks2ymbmsfaefCb7IO4MONlHpZPEtGbQ0hz/neZP94DjpdfKZ68d7N2sSTcjFSevsYm+1KyJIq6j6eTJiEAfS+JilVp+IuDkGHDs8lffRCWUUlnn3zA0SmhKBBc5QOfZKrsxpKOWOGx+KvL72PtMxstzvoaWlydHI/PDDhVByqKkUkc4Y4vYISZiHOhVGM1jtn9Vc4SOdCMXcWBmWLZyGgaZBnzboHzFa9rHxpt5Xn4JfM9eHvFYh8Q8V5OM+PaQy8ODUoAZcluCLDCi3w1FPl54uX4ZUP12BodCgtryiVuak0UgII9PfF9tRsvPvhQkXItfLeHY/UUoj8/IE4F4ZFMdJAPXybrrecPFPMeiMYWBMlBXiDOUOkKIW6k05s3W6PgGUg3XAJ5ZwnL2s9Sc4LYrZbX61OkhJx16SECwE5XIvfJU1VuT7U1ZUBUTF5dldpI9KHnNAzsnPxl+fnYdTgaCYddB/zkHkLIReF+sQhcfjVc+9jy3aXaaw4HLqraKupgdFxeJ5mvaXMhihZEZ3al8nYxbkwiWa9v6Nz4dbMNDVkt+px3AWK7dcYActAjKE7eQ31S7qq6AAeK9yOPu3I9RFL4nGwoRpXhg3CWTFD1KQ8jHc0zVlIIvD+p4uwfns6QgLo/+JGQq4exn+EWXtRac+bJLz09geoqRWzXpfVlK7jrp8Xjp2EKYn9VM6QEO4Dp0WkEG+OHfX1eHHV1/TSb2ySQtzHAJ2O0dZ3LwLOd417x2N7bwUBbbZbzjhVj6VTcc53tcaQ4sviS5RWkHj8PGWqR+T6aA7ew01muzv27MMdT87HhCEus93m6rrjs1pKOlPjw/H357/EsiazXlkWdxWRtIRxxQaH4l7JXFgnSafMnAvLiF1/6kIe27oaK1K1Y6S7Rm777WoIWAbS1VaktfE0EZav8ndjQekB9KXTYJ6h7iOOjCObZrv3RI/AlMh+6sla0draMHrK9y7FeW/U0dLqtXmfKB8Jbzr5KR1TJ06ygQEaE/qH4YnX3lOxt9wthbjkLTAb4lhcSefC1JpKhFCacMq35OqrQTqjCPVP61zYiTumazzKMpCusQ5tGoVIH0Lgc2or8LuMJrNdx6+861F+vIGX0BTwCcRNzDTow7+V7qNNI+l5lcRs96FXvsDUpEill+jsGdY2NqJfZAjmf7EZn3651O2Pl30kzDPE1w93n3qOep5IoypbooOnC+8oFedC/yC8t287vtxOi0BbPAYBy0C6yVLLyVCy2kl5L3sztlflqlwfFYYMJI4EpKqxCn+LG48RwbHKAcITpQ+Zs5jtPkGHvpgof8fKZNeKuP4VYsrujIo0E6X9qKGx+MuL7+FgRpY6LLhVEmoa67SBw3DPqCk4xGi9oQZmvUJElHMhmcjDlEJyK8rU2LWuzggQ26hbIGAZSLdYJqHv5B6kTnsrC3F7zno6hPkjVz4zKP6UNtKYFa+XfxSu0rk+2I8h7TMYQddq8uWSFXjrw/UYHBUG0UeYFpeFkzmOorQPDvDF5n3ZmPfhF2oY2mrKdEwnaqdzhnhzX9047Qx6l0u8r0bHIU7kGcq50Ncfa3LS8NFGZsJkkf1ktkNVc/tPN0DAMpBusEgyREVI+POVzHUq10cM41XVGr6eIn2gsQavJ01Din+YYk7SvycVYcgifWRm5+ExRtsdMjRaMQ9TFLzYV3EtDavbiWMNo/VOGRCLe/7zHjZt26WWxJ0neS11jkxMwd+mzEQGpRBxLnRaBLciXmXFUaF+y8qF2Jufow487hy70zHa+h2PgGUgHY9ph/eorzHWl2TggfytiKbZbq6h4jyS58JDDLx4dkgKzo0b7hqrKdXs8Jl2TocuYc416fc/W4zlWw4hKjgAkq/DaZETtr+PFzbszMYvrr0Qv5lzFTbtzlWfOe1L6qsTu6TM9euF1+Z/gtq6erdG6xUU9P66gjlDgiNjkNFQZ+Rc2MDRB0vOkPJSvLV2uZq+PvioP+w/PQ4By0C6+JJqs90qXjk9IdF2+bM3rafqDccdoto14rcp0xDpzTt/OYl72OWVijhMHLbt2oufPfkuJtORr5onf5PiTWJfWVOHESOScNXF5+Hi88/CpTNHI6OkEj5eZq+XOBdOozJ/7qs0613t/mi9+pqsL5nHUzPOQQ1zhoRxjzllp8KMJFpvCjMX/p7OhZvSDyhIrRRisrO6RxuzHd495tYjRqnVHN8U7MXzRbvaZbYr8a4OMd7VLRHDcErUIIVPO29cuh3GQswk2m4DdR2vz/+YmuumfByGM/Gjye+2PQW4b86ViI+JQnBgAO644QpkphYbMxAZSj31If2TQvGvl+ahqKTzlNLnj56ImckDadZbhVDuF6dFpBDBV0LGP7fyK4h1mWZQTvuy9bs+As53SNefU48ZoSJ2crcuuT4yKX0wWGKFNsVyOEu51W6Qay9G7P0JzXb95YTpgdKHhm31hi14+CWa7fZjyBLDaLsiYaQVV+D7F0zAeWedprvGKVMm4K6bZ2FlVhH8eL1lUiRab3xYEBZ8uQWfL/7GpAtHbUQXIvshMjAIvxbnwvpa5oNph3NhQAj+tXMDlqfuUOOwynRHy9FtKlsG0g2W6mPm+viqPB39mOvDNFy7SB+S6+PBuLGYGJ6sZu2pivPS8go88co8xMUGQQIamha5vsrMLMftP7ocEWEhyhhBvNr9/Xxx0zWXsFtGumX/plJeLVPojhgSgz89N4/RenOU0l/rK0zHfKJ2Lq0QcObw0bh52HikylVWe5wLueceW/YlSmuqrRRyIuC78XeWgXTRxVPSASlPGnN93JZFs0h6nJua7QZRx5FB3Ql8Q3BN4gSl8XAnIeqikB4d1pdLVuK1zzZgQFQI6nnSNyn+Pt5YlV6IX/zwLEydOPZoF+r6hn+NGTkUc2+6CGtTRaHO3BtHa7T9F1Hqhwb6Yef+XMz7+JhZb9t7cFZTSyEB3j64dcZMlx0uGWB7nAs/PrgTi3dsVgMxwcDZDGztzkbAMpDORrwNz5MXTUsHb2auR0VNEfrQbLfaiAwBUXIEptnu04lTMJC5PvTVWBuG0mOqyJyFQGbl5uOR597B8H4RNNs1Yx4Cioqf5eODm75/Mfx8fdTf2iRW43vl7PMwbkgiyqqY1VD0Ag6LSARyvTZpYAx++cKH2LjNFWtKx+5y2F2bqus5TOo/BH9gzpA0Rus1dS4slytTOhf+cflCZJeVqD3tyQeXNi1AN6vkfFd3swl2x+EKAZIiuT5+k7sRMTTbzTQ02w2mvCG5PkYGxuHi+NHdEY4OGbO+RlrwySKs23QI4UH+Rma7MphAX28lWfxjziUYNVxHMD72KgkRljXsm5yAe66/FDu2u8x6TU7gshW8mEVQIt6+/PZHnWbWK5qbaydTrxMQhGoqxH00gA5Wo4qDH0znwi15GfigKXOhPhg56MZW7cIIHNv1XXiQnjQ0LX1Iro+XxGmwgadX3iWb+EfLCTZCwDtSj4eSpyHON0gRNn3K9BRcXQy5FyTa7gOvfIhxw+N5sm80Ml6W0OsllTWYMiIFl114jupD+m+Jvl4w6zSa9o5Fdqm5Wa9IIZJa9x8vLcIKxuxSSyqcxU1FEXn2PzQuEf9v6lnIacoZ4vRxsv8KeQ0XHxiKn65ajL152aoLK4U4RbLr1rcMpIutjZY+Vhbux9yCbUik9GEabTeajCedV1c/CBuIWbHDXDOVt9qDiou491LRdl999yPkllTQMsr7qPOcEyiEZIvT4M7tefjVjZehT1J8iwxZSyGREWG464YrcSCnnNdY5h43oqtJ6BuKf7/sMusVXYveK07m0Na6mj1dPnEGRsUmYy+tsvxa4pIn6LSRB6EgcS6sKMUrq5eqS1hhULr/EzS1X3UDBCwD6UKLpJ0Gy3nl9A9xGjzSC5Jl0ET6kGn5N51Sb6PZbhB1KEoxb3Tu7kIgORyKJrJrNtJs94XPMT3F3GzXl2a7BwvLKXmMxzlnzGjzSE6ZOgF3X3k6VmcWwZd+IyZFGIhE651Hs96FX7u8vE36aWsbzQATw8Lxf9PPApqcC50SfjmvaOfCBzatwMa0/WoIel3aOh5br2siYBlIV1qXprfz89ydeE9yfdBTvMjwrJakpI9q3BMzCtMi+6tZGhwguxI6jsciREpO6hJt98lX5iM8NpC+ME5J4LHHelGCyCqqUo6CEWGhLUofuoUQ4f8y6z1McsrnmwqBcu02lma9f3z6bRxK74RovU0TOY/OhbP7D8ce5gwJNTAGEOfCXtKOupRnVnzFqMMSTcGlJ9JY2Z/dEwHLQLrIuinpgC9Vbl0l7hOzXTr8lRkSOx/OqUxyfZAB3ZA0WZlheqL0oZd28Ter8Np7azA8Jgx1htF2xeNcJIhfXXWmchTUfbf2U+ubxowYikfnzMYamvUGUAlvUmQNA/x8sGtfLt79aKHqwkWITXprvY1igDTeCGWU3rtnzKI+rg6SR8YpCxaGWU5dyEAGWnxy53p8s2e7erjTflofsa3R2QhYBtLZiLfwPH0qlVwfu6ryVK6PYsevqqvzeEof5QxZ8o/4iRgVEscPeRL3MPFDpA8hgFk5efg7o+0OHxFjHKpd+mkkAUQvL9xwtTbbdfXfwnIe/VgRYXEm5CdXzj4XowYlqNhZpushUsjEwYzW++KH2Lpzj3qOO6+DtNbmlMEjcPvIydhbVY5w0b8cnWHbfpH6tfIPfUz+zpwhJda5sG3AdfFaloF0gQXS0sfuynzclr2OuT4CkGNothtKUpXOfOmhKtfHeDW7djhbdwF0nA9B6JQQbinzPv4SSzfuR3igv7HXeQAV5+tTyYhuuRSjhw9W/UrK2bYWnZ62f59k3DvnCmzZkWfsXCjMQizB5Drohbc+YCgvidbrvusgxQD5TH9vb9wy4yxmsPRlnK7DKoNlW+ev65VxTw/xC8SnB3bgi60b9Mf2ZzdGwDKQk7x4QuzkNCouba9n8qWqq0AM8zHUGY4rQgjn4Rr8J3EyEv1c4TVMT7uGQzjpzSR8iJTdew/gruffx0SJtsuTu0kR7CTa7vBB8VSe8xqHRRi+aTl35im45JzROFhUBl/x7zAokvRKovX+/e0lWN5J0XplmONT+uPB8TOQVVlqFOJEiI1yLqRZ7wM0682ic6EwKHdKUAbw2iYOELAMxAFY7qiqX571Jel4IG8Tkmi2m2EofYRT+jjUWIvzQvvie/EjXcNt+0HZHdPr9D6FtsuJXKLtvkKzXVRUwZuEWuPsdEBitrtlbwH+eOvVdAxMVP2YMGR9lRUZHqaU8NmMoeXjZb44DWSSyTGBNOud3ynRejXTvHbK6UBoJEoo5frKYcVhEefCQT5+2E7nwvnrVqjWWlp02JWt3gUQsAzkJC6CNtutPtKIJ5XZ7mHUG7yUMgVZyCD5hX39KmkqIqhAF6Kp77DlK88oLulg9YbN+POrCzGlr2QaNMv1IdF299Ns96pzxuKcM09pN3x6aU+dOhF3XHMGVmYXQ5TzJqWOZr19aNb73vsbsHCJ+816FdPkfhoQHYunps5EoehCqGtzWoTlSObCxMAw3LnmK+zOzVJdaAbltD9b/+Qi4HwHnNzx9qynN92ELM1PxfPFqUim7qPAUPqI4cucScX5TyOH4vToQS6cNMXqWai1OBvFMDnn0vJKPP36AiRESsIsZTnbYpsTfSEMJDetDLddd5mKtismue05LSsphERYovXeLNF6eVUpynkjiYYDFw/1EePiMffF9xitN1uNTfKqu6voni8ZPxVTEvoita6GaQGcSyHiXOgv13dVFXiVzoVyfSsY6P7dNX7bb8cjYBlIx2Paph41sSusr8Z96RTle3mjnC3lZXJa5BXuLYyHzoK3Jk+lx7DO9eG0p55Rf9HSlXj59RXoHxUKOambFImguzKjCL+46WyII6CU9jAPPQbNLMaPHo6511+E9XvzVM4QE+IpoeglWu+6XZl498OFlDi5BdysUJd9GxcShvtOOZdmVVUI4V5zOnbZryU0M+/HzIUPblyG9Qf3Knikb1u6FwKWgZzk9ZJcH2srs5lp0Beljl9F1+DFaTC7oRr/FzMGY8OS1IcdQexOMjSOHq8Zck5eAf7+0nwMGROrzHadn49djKKRmfTAEBzXX3kRfBl1V072HYWpvq654qJz0Iee8VVU0ouTokmRVLxTBsXiV8+93ylmvXqMkjPkqoGjjuYM0Z+39aeYNDQ2SS/PMnNhdQOtyUQKsUykrRB2iXqWgZyEZRACIsToUHUJbsiSTIN+KDJ8cfw4/kzJ9eEXiuuTJytdiOr/JMzrZD1Szq2auC/4dBGWbTiAqOAAo1wf0pcoztftz8c/brkE40a5Yog10boOmaImlP1SEvHQT67CltR8msma6UJkQL2E+fBE/8Jb77s/Wi+BOExpN9jXD3eeMov3g4fhyzE4lR2EXVbw+m6AfzCe3rUBX+/aKlNx3I9qZP85aQhYBnISoNfXGO9kb+I1QDFSvHx4feX0FXQNXJwGj1D38WzCZM/N9dF0778zdT9+/fwCTBgaq8x2Tc70krdD8ncM7xeLyy88W4GsGb47toqkwr1k5mgVrdebOheTIs6F05Ij8Y9XF2PlOle0XpN+2tpGG2ZMHTgMvxw9FXsryxBJfY7THSz1a+Wh3n74y/IvUVxdZaWQti5CF6lntmO7yOC74zD09cXmsiz8OmcDoryDkG2oOI9oMtsdH5SA2R6a60OuPJTZLq+cJNpuRXkVfOj0ZnoVIlZRO3bl4b5brkRKoivarmb4HbnfRGKSMUZHhuOO6y/HwUOl8BEHQcNSTyaakhLKVL3vobi0XElkphi0NgQZu+xjX473xmlnUmQLRAUdG03MesUvZLBfAJak78VnW9a39mj7fRdDwHzHdrGJdIfhaLPdOp7VnslYq3J9iMLbzMgUCJN7lcP1+CPNdmN9A9VLra9yugMeHTFGTSRXr9+Ch57+FNNSopR1kknfIgFkl1bgigvGQySDziqnTZuEu384E6syC5WHuslzG2gskBwejLc/3YhPFy016cJRG8VUyURGJ/XBY5PPQD6lkDDuZacmC0KAlHNhQDB+u/JLpJcUupX5OZqkrdwqApaBtApRx1Xg+6bK6qID+HfhDvTxDkCWofQRTeZxsKEGV4QPwMyYIapf4SeeVIR5SLTdisoqPM+wHiEJQWh0eo/SBJhAJ/k6DmbQbPeHlyEyvPVou+3FWp3kqQeQlLiirEc9jxiG+0HGIh7qo4bG4FHG/krPynE7IdbM4oqJ04HwaGQx2KKJWW8111GcC9MKc7FgA3WCLEpCU7/Zf7oyApaBdNLqaOmjjLk+/pa+ik/tjSrDZ0ssVy/hRiSev0iejhBacAkx1XfTht1222YLl6zA8++tZOIj82i7vlScr6bZ7j0/OhunTpvYaVhoiXH86BF49NZLseZgAQJoQmxSxDs9OMAXm3dkYl5TtF7dv0l/rbXRxgB9IqLx8innoKq6UkkhrbX79vfCvAtpBJBMs967Vi3Cjqx0VUVLl9+ub//uOghYBtJZa9F0Ml7IXB/vlx5ktF0/FDhWO7oGG8urglya7f46agRzffRzfehh4odimJxzVm4+5r4wDyMGice5WbwrIWAqfhbvEn94xYX0y+hYs13XAjX/r5JChPlzEFddfC5G9olBeU2tkVmvzKNWovUOjccvnv/gqFmvOEC6u1wwZhLOTB6A1NpqBBjsRRmhLxXxqKnCK2uWqiRqikG5e+C2/3YhYBlIu+BrW2NN7LJrK/DbplwfBW1r+p1acjatYbgSyfVxI812xfjT08x2BRRNoz78bDFW0Gw3jA514lhnUvyZn2MtzXb/+pNLMWbkUNWF7t+kP6dt9Em+X0oS/vemy7Gd0Xr9xBDAaUesL3vBS6y5uEdefucjRuutU9d87jrNq6smPjM6KBi/oRSC+hoEGYAnzE87Fz6yeSXWH0hVs3fXuA2gtU2aQcAykGZAcddH87I20eQxl06Do/DhFwAAQABJREFUPry+MiEPQCKljyJKH48x18eI4Fg1VHdeU7gLi/b06zpR91LRdn/61HyMHxpHxbmZ9CHEu6K6DhOYp+Pqi8/jNSCJMBnRycL0glmn46Kzxay3gtF6zV5PkcSmJ0Rg7nOfY8VqV9j0ziDEZwwbjZuGjmfOkAqVM8TpGssKupwLe+FfNOutrCfz4/p0xtidjtXWdyFgtkMtem1GQEkHfAlSKwtwZ+4GeFNxnscTm0kJIHlLo9VVCHN9XJE4VnXhadKHEBNRnNeTSL7x3qcUx2roKe6lTt5OMZVVEKfBbTtycc+Nl6JPcoIiVmIW3NlFXWWRcYny/o7rL6NZbwmV+uavp+hD4vqE4cnX3mdssAq3SyGyDwMoNd06fSbFQ6rnDLa4oC7OhQMDgvBK6tajzoWdvRb2eW1HwHyHtv0ZHltT3iE5QYmZ7suZtHGvK0cs41VVG0ofsewLDNf+DONd9fEPdxE7+cyDiqZLq9dvxv0vfYYpyVHq3t8EAjnhHyquwOUXjMMFZ51u0kWHttFLefr0yfgFlfmrc4rha+ihLlLIgKgQvPPJBny26JsOHWdznemxTx4wBL8ffyr2V5k7F9bIInv74pFlC1FQWeGyyDI8dDU3VvtZxyFgGUjHYfmdnrTovb44DQ/mb0Ecc33kGpppitnuIZrtnhOSgvNiR7ie5Vm84yjDrKiqVtF2w8JofUYkNFP5zgK08oFE283aX6LMdsPDQnh11b5ou608rtWvtRQS4O+HH111EY7UHuaczcYkW6OGTGTU8BjMfelYtF69J1sdjMMKYgGo9C9sd53kDKFfRzGdC/00Z3HQn/iFDPEPwLKMffhsq3UudABdp1e1DMRNkGuz3SrGqfp/GTTbpZkigxYp6xKTRwYqKnkY91D6CGfoB9fVlYdxkCbgFjPa7ivzVmFkTJix5ZV4nEs+jl/cfA5OmdJx0XZN1vb4NiquFT+QGFx/+fHFWMdUunLNZlJElxMc4IrWe7xZr7sO8yJtk+NhWHwi/sWcIcXMXBhq6FxYJpZjzFz465WLkFZcoKQQ2fO2dC0ELANx03rovf41c328xlwf/Zjrw1T6iONLmNZYg1sjh+GMaFdOboODnZtm2jndyslZTujZTdF2Bw3l1RW9r01YqBA6ycOBXl644erZkBO/YshdAFSZj+twACr1z8eQ/rGoqXVFqjVBWnKGTGa03l8+OZ+52PeoLtrjrNjaGDSJv2zCdKTEJGJvfS0CDXB1ORf6IqcoD++sdSXMUgr11gZgv+9UBCwDcQPcStHLl0ZyfczNXENFiI9xqHaJdFon116S6yNp8nG5PkxIpxsm2wldClHSVlEffv4Vvt6wHzEhgZDwHU6L9OXHE/363bmYe8OFGNtktqtOz047c1N911iOQKL13nvTZdi0x1wKkYOMkmp6HcHr8z9BHRmKGCG47SqL+176TgwLx6PTGYyyplLlDHEKlexucS5MoXPhPeuWYrt1LnQKYafUtwzEjTB/mLMVX1Vk0GzXD8WGN/WSabC4oQoPxo3HhPBkNdquROzcCN/Rro+ItMAi0XZ/8sS7mDRYou2aRRCTvBuVzL8xamgCrpp9nuq3K16NaAn2onPPxOWzxjBGVAVzqJu9rnU0cZ7KGGF/efkLLF/deTqFC8ZMxKX9h9O5sIpSiPOxy6r7NDkXvrDyazQQFJcUouUctXz2n5OIgPNVPYmD7Q6P1lchB6uLcROdBr29/Blt12zD+/GCJk9yffiG4JrE8eq6pisSO3eui5LmeGKWK6c3xWy3ooqYMnS4GaQq78bW3fn4zY2XHTPbNbhiceecpW+lUOckI8PD8NPrLkXG7iLFQEymLW3ErLdvYij+3UnRemXdwqgIv2P6WXQu5DWWAWAihRRTCulPKeRvW1dhzX59BWfQmW3iFgQsA+lgWLULwVtZzMtQW4oEXj1J9F2TEkfCVk/dx9OenOujCbi1G7figRc+w9R+Me2KtptVWonLzxkLcdjr6kVfUkpsrjtunqWU/qaJp+S6LzE8CPO+2IgvvlrWaVM/dchI3DZiEp0Ly+lc6NwYQKSQemHwlGCeXLEYFXW11rmw01av9QdZBtI6Rm2u4ZIOemFLWTZ+S6fBSDoN5hia7YZQ3khj4MXJzPVxScIY1xg0RWnziLp3RSV9kHiUV1TiyVfnIzLKX0XbNWPHch1Cv4+DJSr/RlREmLqr17qVroiUkkIoeQX4+eGm719MHyAxcnLFzTIZb13DYQxjzLCHnnsXGdm5R6Uck75aa6MlKD9Kiz+eMYt+HQzCY/AuyJYX58JBNAt+Zc8mLNqxubVH2+87EQHLQDoIbCFqcj8rCu/nM5nro7EePrTyqTfsP1LaHa7DvUlTmOsjyEU4jGyODAfQhZot/mY1XvpoLYZEh1IiMwtZIopzybdx53UzMX3y+C40uxMPpVeTN/q4UcPx6E2zsXafKNTN4mTVkxCHB/ljy94czP/4S/Vgd+rTRHCQMrZPfzww4VQcpFlvFKUQkwNAldxZ+gXikRWL6Fzo3oRZrlHbf9uCgGUgbUGpDXXkZChlWeE+PM5cH4k02803OHFJH2K2e4hXV9eED8LZsa6c3J7GO1wn7V7IySvEo8+/gyF9wxm+xKVMF4wcF1mfI71x8zWXwN/P96Q7DbZ1/EKDlSTGu9GrGKtrZP84FbtLcpc4LdJCYoZNHBiDu597H5u371ZdiL+IO4p2LhQic91UXhmGRiG7od4oZ0gF36XBvv48BOzHR5t4QLOlSyBgGUgHLIN6weWqRXJ9ZDAhzhHqLvi2mpI73yZm9LPkKQiiDkUp5j2NgzSti5jtrlizH1HBgZATtEkJYLTdNXvz8Nc5s4+LtuucAJs8uyPayHWQ7DEx6/2fGy7Btm05xlKI9CNGCGCU3lfmfdxk1uu+gIXKaorPHBAdh2emnokqcS6kVOV0JYVQiYd6LyrUb1/9FQ4W5bv1Cq4j1s0T+rAMpANX+XPm+vik7BD6MdR6fhMTcNq9RNtNb2Suj5jRmNqU60NfBTjtq7vW15Zsu/cewJ9efh9jR0i03QYjFipmu+XVtRg/OAFX0mxXCJruvzvic+E5Z+Ci88Ygl8YApma9guV0mvX+7bkvsGItjT1YhLG4u8weNwXjE/rRrFdCvjsnPeJcOIAxsqpLCvC2dS5093K1qX/nq9imbj2nkrx4ckLMqi3HbzMpffT2RbHhy+hPElkkIU+ofJdcHz7829OkD8FTiLxE2xXHt/S8Uvgz5avg4LRIC9EXbN/KaLs3XKZO8Lp/p32d7PpaComKCMed11+BfZllNAowl6LqaZUV2ycUT9A4oaSsvFOcC+NCwnDfKXQurKs2zhki70dfhjj5zdqvsTnjoFqWzmB+J3v9u+rzLQNp58po6WBB9hbsq85npkFfY6/zGHZWQ6fBx+g0KLk+uiuxaw+kmhis27QNDzz/Kab1izY225VouxmMtnshT+znzTy1PcPqUm1PE7PeK0/DqqxiJp5ybhorkxEGMpDRet/+YhMWfr2i0+Y3a8RYXDVgJPbSQz2YUojTY4FcfYknPZgr5OVVS5hG/rA16+201fvugywD+S4mbf7EdSruhV0VefhZ9hpEUnGeaag4D6K0kc5cH6EB0bgqyWUl5PTlavPAu2hFxTBJHCoqGW33tffgHyExqswHK4rmtLwK3H3jFegOZrutzVSZxhIQid0159pLJcYNm5gDJAr10TTrfeCZt5GWmeNWnYIaO6XIUD9//PxUZi6kJCFhepwSIJG5JHPhQEohj21djVV7dynYzFFQze0/hgg4XT/Dx/S8ZrJh1X06f6pcH/VVCKCJopmRKRAlogxzffwncTKS/UI9UvrQu+TrFavx4rsrMD4uvF3Rdlcx2u5dV5yO06ZN0l13+59a4h07chgennORMg4QIwGTIgegYH9fbNudRbPehaoL2dPuKrrryQOH4OejpmA/FeriXOiU+IsUUivD9PLGv+lcWG6dC921ZK32axlIqxA1X+HoVUtJGh7O34oE5vowdRoMp/SRRuZxfmgffC9+pOuB7nuPm5/QSf5U8JRTag6j7f7jxXkYOjTGmHm4TrskM4wCc/M1FzeZ7br6P8nTbPfjtRQixPjqS87H8H6MC9auaL006x0ch1+88AG2796rxmeib2rLxLRZrw+vrm6afib9OugYSss6p0RIXo1KthvoH4i39m3Hl9s3teXxto4bEHC6dm4YQvfrUksfkuvjn+nM9cFrKwm3YCp9hAoERxrx66RpiKAFlyKmZCqeUkQ/LoRRyoJPF2HR6r2IDBbi4vRs6kJM8mdIHo1H51zMaLsuP5qm7l0Vuvm/knJX9siAvsn4/Zwr6M9hbtYrzMLLm2Sgrh4vvvUBavlTpBB9QOpoqPQ6j0nqi7lTZiLN0LlQdkaV/EPfkN8t+wJ5FWVqD7lr3B2NQ0/pzzIQk5UUiseyOH8PXivZhxQGTCxs+sxpd/E8jaXRbHdOxBDMiB7oau45vEPNV7/0qfsP4X+efx8ThjIHBu/nTYoQP8mf0b9vDK64iHftLOIopwmXSZ9duc25Z52Ki2aNQnpxOcRowKTUSrTe5EjMfftrrGwy6zXppy1tZGtrCeeKidMRGRnDnCF1CDDg8JU8uIlz4a7cdDoXMm2CLZ2OgNmO6/Rhdp0HCrETYpRPncf9kmmQ4UoqODyzszKbi9Kd+UJuT5lGD106WEn/niR9EDs5UTfSKug1OraVF9I8lXGTNJFxuvIifWxKzceDP7landBlvaT/nlZkDwpG0WLWe8MVyEgrNfYLEWwIPxIi/Rmtl2a9pe4NFaIlnH5kHo9LzpDqcpUzRHQbTooQrzK+P76BIZhD58J9Be6N7+VkbJ5S1zIQw5X+JGc71lVkMtOgea6PZDKMbJrtPhA7FuPCktRIeupJuSWYtfSxdtNW3P/qF5jcX3QfVF4YFHGsS6PZ7qVnjupRZrstQaHZohgJ3HbN6VidY27WW8cYY/2jQvHu/HX4cmnnmfVKzpCpif3pXFhtlHiqhkw0hc6FKC1UzoVykFMMyvhI1xLa9vPmELAMpDlUWvhMSQc8+R1gro8bsxiPh4pzU49zMdvNkFwffmH4QdJEpUh0SR8tPLwHfqykA+JZzhwfz7y+ANEhPqIM4f2788lKE2EgmQdKcPuPLlNmuz356koQksOGYKjNeg8z1pcopU0OIcKM5Npw+Lg4/O3F95Ce5TLr1QxenteRRY89KjAY9516Lg0e6iiBc04OHyL1JXNhv6Aw/G79UmxKO6B6MNlDDh9tqxMBy0DauA2OnWyANzI30I6wGCmMU1VpeNKJ5suPhmo8kzCJNu2RihDIyckTy1fLVuP5V77BkJgwY8srubpamVWEO34086jZrmfA6dozE8aMwF+uvxDrVbRe56axsu+E+YQFMmDh9jTM/+hLtbM1oXfnvpw5fDRuGjKWjrh0LqQfkNPzg9TvRWlenAufXfkV6shQ9DWZO8dt+7YMpM17QJ/EtpRl4d7cjYin9JEh+guDEsZz1iEGXhwRFIfZ8aMNeuj+TbQ0l1dQhH++PB8DR7vMdk1YqDAKFVGWJ/Abr57do8x2W1tpPXfB7arZ5yAuMVKZ9XoZcs/qugZMplnvz2nMsH1Xqnq83vutjcXp98KcZB8E+vjiJ9Nnsjktwvi3U996mbt2LvzPjnXWudDpQrSjvpVA2gDeEW5sOdFIro8n0xnvisRfTjxOT0ryKNnsLrPdBjyUPB1xOteH4QvfhuF3ySpa2vrgs8VYtCoVsSGMtiuaXIdF1sCfSvd1+/Mx9+bZmDDG5Udjco3j8NFdpro26+3fJxl/pfHAZhoRiERmWlSokNo6ZdZbx8CL8rc7mYiMc/KAIfj9OMkZUmbkXCj7oEY68vLBY8sWorSm2kohgoebi2UgbQG4iVOsKNyPJ4t2U2ln7jQYSUaRzlwfV4f1x6zYoa6nC1fxoKLzT+zZdxB/eGEBxg+TaLuNju+/BTIJV1JRU4d+SZE02z2XjN1lJuph/Pjo7jl/1mm48LQRyC1j7niJGWVQJFrvtD6M1vvqIqxe794MgLL1RQqRkf5gymlAQBBqeQVlwv7ErHcQnQvfP7gLC7e7ogwbTN82cYCA2Q5z8IDuXlWkDznNltJT/DGJtsutbmq2K2D7CTNifz+n2W4wzXddinPP4SByklVmu7xvf43RdrMKyuDHiLmCg0nxo/SxbXceHvjxld062q7J3I9vo3UVMVERuJtmvfsPFMNXHAQNSwN9Z5ISQ/CEmPUyWq/u37C7EzbT0uLwhCT8c+pZyKwqQ6RBiBN5iDAR2vXij8xcmFNW4tZxn3BSHvKl+Q7zEID0PdWnNNv9sPQg+nqbm+0m8Nori2a790SPwpSIfgpB/fJ4DJxNjEJF2336IxVtt5onXpMiJ+y8skpcdNYoXDDrdJMuemSb06ZPwh0/OBMrM4vInE3O8q5ovX0igvHGx+vw2eJv3IqTHJ/0FZk4Fw6PTsRexrcKNBAjK7m/BjOH/PacNLy/UQ58trgTActAToCubGoh8JLr41dittvbz9jjXICuldMRQ5XcQLNdea1d0scJBtDDvnJJH71RWVWDFxg2wzc6AI1mgodCxserF/bRge7O6y9HdGS4IkKexpCP3yIy98OU7CRl7w1XXUSlAK8F24FvLXOyjGRMsr+9uAAZ2S4nPU3oj39uR/wuY5e+E8Mi8IfpZ7XLubCUGITQrPena5dgb757owx3xNy7cx+WgbRh9eZlbUKWyvXhw+srszdSnAYLKH38g2a7o0Li1VM9ldgt/mYlnnp7GSYw2m4diZRJkTwYkg/j59fNxOnTJ5t00SPb6D01YexIPHLrJVh9MB8BvCI0KXKNFRrgh3VbDjFa75eqC92/SX9tbXP+6Im4oP8w7KmtQqiY5zostWREsd70KSorxmurlzJGncsIxl3Mz+HwelR156vTo6bf8mSUdMBT0e7KfNyVswFeXuZOg6FUD6c11iM+IApXJIxTD5XN7DmaD9cVhRCf3PxC/OOl+Rg2KIrMw7nV1bEVIyOvasSPrriwyWzXzIHuWH894zfBWPauWLlddfF5GJoURSODWkhqX6dFWohxw4Th8bhbovXu2qu6ECnHHUWPPcw/AL+YMUv5dfhxEE5HLvXFubA/86f/ccMybD50QA3X7Ojnjpn2nD4tA2lmLWWjyQvYwJPLCxm8umLcqzgq9aoNpQ+xvMLhGvw9cSqS/V25PjrjJNfM1E76Rx9+8RUWr9yDiCBXKG+TAUn+izU02334p5dg/OgRqgtPxbM5/GTvygFFovXee/Pl2LYrX2UuNCGgwoy8JethHTMAvvuhK1qvO816myZ06pBRuH3kZOyrqkCIPK+5ibby2RGRXshInlm5GLUM1aJxaaWZ/doBApaBNAOWFnXXFB3CX/K3IJk5yrNEf2FQJFHUQVpwzQxJwflxLmJn0E23biInViHwqQfS8LOn52GsmO0aXl0JEaii2e4IRtv9PvNh8E+XLkl+seU7CHzv7NNx3hnDaZFU1a5ovdNpJv3os59j5TpX7g39jnznge38QEshAbSuu0WcC73oVc/94+1YDnE5Fw4KCMGTdC5ctmd7O0dmmzeHgGUg30JFOw1W8eTyRCZDRPPoI7k+TIq08pejE3N9/Ia5PsJpwaWvxkz6645teIBVjmgNdBJ8a8FnqCuthL+vj1GuD4FSHOS27MzDb2+8HP37JKmTtjAVW/4bASHEQuSjGK1XzHoPHCyGt2G4d+lZ9CExKSF46rUFKKuo7BTnwnF9+uP+8acgXTkXmkkhVTJ4Hz/8i1JICZ0LNS7ysS3tR8AykG9jKFSKZXH+brxanIq+zHOeayh9xFCEzmSuj9ujhuOMmEGqX9nAnlSEIUtZu3EL7nvxY0yhg1otzXZNUJB8F5kllZjN/BcXnnOGJ8HYrrmeMWMK7qKxwfqcEvqGiP2f8yLGDoMYrffND9bii6+WOe/AQQvZG+qgxZ/XTeU6h4ajorHBSAqp4rs72C8QCw7sxGdb1jkYha3aFgQsAzkOJe00KLk+Hhanwd6+KDa6faW1Lvs9IoyHARfnJE1mpFGvoy/FcY/s0b/KCVhdOVXX4Lk330dAIC1jyDqaeLTjuatw7XuKVLTdyPDQHp0oyjE4zTRQ10GUHAJpSXX9VbNRX0l/G66J6SFGzHpHDI/FYy+953azXi1VDoyJw1N0LsxVzoVmUki5vIf+QfjNykXIts6FzewU848sA2kGuw+yt2BFRRb6ePmizJDcSabBfJXrYxwmeGiuDw2tRNt97s3lGB8XZqz7kJPzxtwS3HHzWTid+S+keJgwp+F09FMziwk0Nnj4x7Oxtilar6NOmipLiuGwQD+s3JaOeR8tVJ9K/3JN6Y6i9SyXjJ+KyfF9kVpXY+RcWMUBDuI1Vlp+Ft7bwCRwtnQYApaBNEHpEpmZ66OqGLdkrUFvpqnNM3wz5JxdTB0KfENVrg95hBbJmx7X43/Iyy/EJbcp2m7/wby6oh7E5OpKESkqUmvqj+Cmqy/midpfOcxp4tjjwWzHBIXJuvKiAFfT6KAPzXol77kpdhI1YNKgGPz8yfm07nKZ9SpJux1jbKmpjFHem7iQMNwrZr01tMjiwcypOYsQOclcGBoYip8xc+Hu3Cw1f+nblvYhYBlIE35aZH4ri0HY6sqRyKunGkPpQ0KWVFL38VRTrg85oun+27dc3ae1JlCfLPwaX6xORXxYIESR7rTIKy6K83V78/DIDRceNdtVEWOdduah9XVKXzHrvX/OZdi4R5wLzXQhQnO9aBkl5rFvvPcJ6pk90q3RepvWbOaIsbh8wCjsYc6QcAOzXnEujBbnwqpyvL7mG8WE5J20LKR9L4VlIMRPn0Q2lmbif/M2Ioxmu3lyb2pQwnnGTmO492lBCbgscazqwdM2qXY0k2i7tz35DiYMjkE1HdJMiuS1qK6tR3+a7coJWp2o7cnRMZT6Ouii82bikjNHKmME0SmZFDGCmJoShYde+Bwr1rii3rprj2spJNTPH3efejaHKzlDqFp0OHCRfIvI9AYwf/oDdC5ce8C9uU4cDq/bVne6Dt12oi0NXJvtSq6PpzNotkviH0CFd11LDVr5PFxRuFr8b9IUxPgEuq6u5DMPKUpxzhOiMOW3PvgctYXl8GUoDU3AnMIg0sdmRtu976ZLldmuJ0pzTjFrrr4QYlmDaJr13nbdZUjbVahSAJsQfmnTyL5SEoLx5GvvobSswq1OelqanT5oOH4+chKvmcsQZhit9zBvB+hYgueYubCGll1KCrEHkua2TJs+swyk6Q1aWrCXuT52UXEegBxD6SOWL+nBhhpcFT4IZzXl+vAc1uHab/pdXL9pG/7vOZrtDohBDbPcmRSJtit5LS6eOQqzz52pujAheCbP7sltTme03p/eeCbW0qzX39CsV5J/JTNa75sfrccXXy93K1zyDsmBxIf7YY44F1IaEc9yH4ODmWQuHEQp5JldG/DNbutc2N6F82gGok7L3IQlDbWYm+HK9VFtiKgA6S3Ujbv9ruSpx3J9GGxywyGc9GYu6aMXo+0y1/sb7yM41JcXDub3zJLPYv8+5jm30XY7ZG3VdRCNEQL8/TDn2kvRUHtYSSWmW1RimQ0dEo1HnnsXWTl5blVMaylkVFIf/GXi6ciuKkU4pQmTA0WVNPLxx9zlX6KoqlKN21RC7pCF6cadeDQD0eu2MG8nPi9PY64Pf+QbbUkgjptZcn38mrk+pkb2U13rTa+f4yk/v16+Bs+8vxKjYsLaFW13ZVYRfnrt6Th16kRPgc7t85RUzFLGjx6Oh2++CGsZU0xSApsQ4noyI4lptmF3Jt77ZJHq113GIloKkYdcNekUICwKhQ31RlKIOBcO8gvAF+mp+GzrBjVu+48ZAh7LQEQkFgKfXlOK2zNpG+7lh3x9/+IQSz+eskvFbJc6j5uSJ8OHf6v+HfbTnavLCU7wzKPZ7l+ffweDkkMhBMa0CMFgEnrc8oNL1YlZx9My7c+2cyEg0obsTS9eB0kssaF9YlDJ/OeSGthpkRYSrXfiwFjc8fwCbN25R3WhUxY77a+1+lpf0T8qBi+fci6Kq8sRYSiFiHOhl18Qfrj8C2SUFLlVemptXt35e49kIHLa0iel+dmbUVBdiD5ML1tldA4T6YMB/hqrMDd2HIYHxypvX91/d94cJmP/eOESLFm+BzEhQZB7cpMi0XZX78/DQzwhjxs1XHXhqdKcCX6ttTlKiBlL7DfXX4ytW3NoKm0mhcjBQUXrZZKwV+dps16Xwr61cbTn+wvGTMKZSQOQWluN4Capykl/1Rx3fx9esRblHnUudM5CnTyxZ9b1TAbCzSNlZ0Uefp69DhFUnJtG2/WntJF2uAGB/lH4ftJ41a/JdYBq2E3/0dJH6v40PMTsdWNGSLRds3hXkreigtF2R/aNVSdkOSlrabGbwtOlh33RuWfigrNHIZ/GCqKkNik1NOud3iea0Xo/w8q1nROtNzooGL8+hWa9ddUI4gHO6VFFZirOhZHMXHgXMxfuzMm0UojB4pvtGIMHdZUmWvoQr4QXMxhcraEaATQJNLMTckkfaKzBs0mS6yOsSSnpOWcZzTwaKW289f6n2JtdhECmVDW5xpC1kZPwti05+J8bLlX5LKR/T5Xm3PnOiEQn2MZEReAuRutNTSuhWa/5vpVovVHJrmi9peU06yUzkv7dUfQozxw2Bj8cMpbOhbzKkuc5fJg4F4Z7MWodo/2+smoJGpr2mg4A6rA7j6zucQyEu1ot9Orig3i0cDtTXwYaOw1KoqhDZB7nHp/rQ+9uD9lOmkis37Id99Fsd2p/cRo0Y8fi2JbDcO/nzhqBC2ad5iEInvxpnj5jEm6/8jSsyi5RiadMRiTReodEh+L1T9dj0ZKVJl20uY0wP5FKA318cNuMs2j5SDLGv5361surqpwLKYU8vHkF1h91LmzzUDy+okcxEB1tt4LpZR9Pp+Kcim9xLDIjd0CI8CLJ9ZEyHRG04HIpzj2HgyjpgCe/Skbbfeb1BUCQOAyav1NyhbI/uxy/uOkqdTKW/q3uwxzP1loqQkxDh0B/f8yhsQKqG3kha15EoT5qUDT+9MxbSM/KVWunDxjmvTbfUu+LqQOG4vfjZuAQQ5SYOhc2yqS5b/+1fBGq6uutc2HzkDf7qWcxkCbi9lXBbrxdsg/9GLKkgPegJkXiXR1ivKtbIoZiRtQA1QUPRh5Zvlm5Ds++vQzTEyIgIb9NikTbXctou7ddOgPi6GZL5yCgCfG4kcPwp5u/h9WM1itGDCZFDlAhAb7YtCMTCz5dpLrQ/Zv0d6I28qrJ8yTUzXVTKK0yj7rkDPE1eAlLyEQHBwbj1T2bbebCE4HezHcew0DUaZmbS3J9/FGcBml1VWp4XBZRuUEYD8O9/zRl6nG5PjyHg2jpQMx2H3/xXQwaxCivdCwzKeqd51o01jTiFjq4uaLtWunDBEunbbQUIgEXr7nsexhCZbjEHjPVO4kUMmFILO56bgF27NmnhmOiD2vLPNQYuW+GxSfhn1POQn5lKcJ4sHMqBMtbWyG0gB7uf1m2EAWVFW6Vntoyt+5Sx2MYiF6QD7O3YkNlNjMN+hknixLpQ3J9/ClmLHN9JKuu3XXS0uPuSj/lBdXz/fDzr/DZ8l002w1gmlozBiKKc8lT8eebjkXbNThIdiWIutVYtMJ7UL8U3Hvz5di8PdfYrFdiZCmz3ppavPLOR6ijPkyYk7uusvSOu2zidMRHJyCzoQ5+BptHzHoH+wZgccZefLx5bbdav5M5WI9gIEo3wU21r6oIc7K5OVS8K6fnFNcyBfGWOINmu5Lr49qkCerO2KX7OJnL2LnP1sRg36F0/B8dyMYNjVUOZSajEEZUy1hZiYmRjLZ7HhkTryZo0aMZlEmfto05AhecdRoumDmC0XorICmEnRY5zddSCpmaHIVH3lqEVetcZr1O+2lrfe3Tkhweib/POBvV1RVKCmlr++PrlfJWISAgGHcxZ0h6caGVQo4Hp4Xfne+QFjrqqh8Lm1CbjD9fEbPd2lKkMNdHrWNB1zXDKKFw1H08kzgZAwMj1cnKVNzvqpidaFwi6ct8hci/Mf8TZNFs15/WMHLyNCmSl2Jjah4evvUqDOrXx+WEaeAVbfJs2+YYAsKwZU21WW/aQTHrNScPIhnEhvnh3y/PQwmj9Ur/+uBx7Kkd+9v5Yybi4n7DkFpTZeRcWMM9nOTNLKSFOXh3nStApDBEW1pGwHyHtNxnl/pGb9pNpVm4P38zEmi2m2GoOA8Wp0GGex8WGIfZ8aO71Dw7bzAuRqHMdl/9HJMZxqKGinOTF00IVFZJJb53yrCjZrtmbKjzZt+TnyRnIylixHDr1adiA40axLjBpIgxxaDoMLw9fy0Wf9M5Zr3h/oG4U8x662uYksHMuVCkkFia9f5y3TfYkZ2h8ibLDYMt/7+96wCMssj+P0jvhfQChNB7b2Lv/VQ8FXvX8+7UO3s5y53d+6tnOQt2xXJ27L2gICDSO4SWkEJ6b/D/vdkddrPZkOxmd7MJM7DZb79vvpk3v5l5b2bemzfOEejRAkSqXUbL9WwUz4rinEtPe9xQsgl00rfi5GJPIx7ImIbk4Ag1otqfllpEGEt5q+ht93l6240KYfPhby2kBZ6OBqkbESBbN5XiL+edpka+eqmxo2mYeJ5FQM8SxIjhUpr11tOgbg/1Wu60cekvspQ1ZHQy/u+l95C70+Kt15220pFS6gHMjMEjcOnwidhAs954NzYXNrCNR8jmQs5iXlrwvfLnZlnBMELEWT30aAFCzqbK/JM662MdMqj7cPekwQQKnu3cNHhWTDYOt571Icxzfwp6IPbjL4vwzMvfY1SS+9525RyKBTtLcfmsA3Hw9EkKxv0LTT9tOdY2PX7MCNx7zrFYLN56uczoDvtsovCJp7fen5dtpbfery11LAMOLxRdhJwMQELJ/C+TWQiP3ZUlOVfnT9IGZXNhNs8MeWjpL1i42eIgUrd9L5DerZPssQJEbxos5QFP6qwPCoAqVpW22nC11kKlBbF1XZUxGRE0Ad4fFediTVNUUorHX30PWcMS0OCms0TppDIS3dO0BxedebLxtutqY/RifKkbYbwy6v7jSUcjNjmWB4I1qv0W7mRbSwOJSUOS8Rea9a5aZzHrlVmNN4KeKY3rNwB3jz8Q22jWG0s3Ra7mJhg0yR+++/T8b7m5sMGiRzVSpFW19VgBooc5n+Wv4lkfW5XZbpm+2QqGfd9Il9kHfWZdnzCKZ31kqci6se77zZ7zVPqThE++/B6ff78GKTHhbgkQGX2GiNnull2474ITMHHMSJWuPqdC/TB/uhQBGSjI7D2bZr2PXnE6lq63zELcIUrqW8yEQW+9L7/9ERrpZFObDbuT3r7ekTYqA7sAjvRmTeHmwug4dWZIqHVWta93HZ+pzYW0yJLNhd+uXu742Py2ItAjBYheS8+rr8TleTTb7R2KUjdHD0EEqkKd9RGK89InQvbo7m+zDxmRynLdpi3blbfdMeJtl+vbWqi40pvk3Ilanj+RkBiN0086Su0RsJz14UoqJq63ERDGL+HYww/CMdOHoJDeeuWIYXeCeOud0i8BD736NRYuWeFOEh1+R+krRPglJOOpyQejnCcXur+5kHOXkHD8e/433FxYqXRB3tLhdLiAfhbRvRbhZ4VwJEdbgf4v73e6Bi9GZkAQKtycfaRw9lFJs91HUyZiZFQys9q/vMNKh5ERaTOFyBya7W7gKYFhwZYlPEfcO/I7hLqP5euK8OBlM5HdL1MtZakRakdeNnF8hoDMsKXukxLicQ19k23KKaVFlvvsQtpPSkoEnn7tPYi3Xp2+Nwt0yvhpGJ3SDxsa6+ktwvXhjmVzYSi+z92MuUsXepPUbpu2+y3CT4ssswNRVqyuKsA1+UtoURGGfDfNdqOZznY6XgwKjcfpaWNViWUwvj8FXdxlq9biH899jCn93fe2K2d7FFfV4qgZQ3D8kYfsTzB267KKWe8VZxwIOWI4hAp1d4IcLpYVH4XXPlqIr77/xZ0kOvyOFk4pUTG4g5sLUV+DKDcEiGQoZr3RYVG4iLOQbSW7lOCz8JgOk9OjI/YoASLMTqawEubuXEl78Gr0oSKsUd1x/U+cpLW7Di+lTUZaSJRltOxmQ3Q9d/94Q/Bsam62nHkdSj9Drg/k9hZEdjav50j26gtOQxLPoZAR7v6mS9oLRje4kLqR5cWw0BBceMZJ1GNw2VKPKNygv4G+0oYMSsATcz5CQZFvdnofMWIsZg4Yjo21FCJuLMHJmSGJgVzILivGXKuLk050ATdQ8+9XepYAUbMPYFttKW4qXsnDYtw/aTCWs4+tzfU4Krofjk0ZYanF/azlCPOQsIZO8f710U8YnxZLJairNi0W6GTpakF+Ka464yAccsAUy03z1+8R0AJ+4tiRuOfSE/HrliKE0QjCndCozHrD8MMP6/DNjzxOwYtBCT/yg2g6SLxaTi7c3YgQ5ueq/JMuX8VZSC966712yc/YvMuyn8XMQiyV16MEiObvv5Ru5VGXlTS3de+kQQElUvDhWR/XpU9WZ32o0bJbamML0N3xr9ZN/LZ0FbhlnMsX7us+VN2UNeC800/g+RMhamSrmVN3xGZ/oVkzYmXWe/IxyE6NRzWNIOToYVeDvNHI2Wxidhw+/uZnlJZ7VzGtKZycPQR/GTEZG3nyYDx5gqtCRFycDOL56Y2lhbTIWqaKrVc6XMWgp8XvWQKEU25unsX3xRuoBgnktatNxVK9iVSc76Di/Mr4oTgoYZDl5n62dCUCU0IFFZ7vfDkPQ7LFXTudSLoRZMQqI9d/XnGindmu7t5uJGhe8SkCwiylPYi33tvprXfF2kJ1cqE7vauJupDs+Ei88dUyrF7Hfsqg25qnC6WFXzCFxsXTD6VFVRgaaFHp6vxJWqqY9YJmvc+sWoyymmpFqrfo9jQO3kyvxwgQfY7x5toSfF67SwmQajdauAJElO4UIhelT6Jr6N50FCjLNsyBnUh99LX+1vd7yLdMz/UUfcfOAny2disiQnnOOe+7GoT5yIg1vk80zuAIVll0WTcg7sWzh+DW08sjdS9HDc+YMpDeeqvd8tarWpAMxgL2YOnKteoIAL0vxBv4CfOXdEdn9Mf9E2Ygt7KU56e7vrmwkWlkUheyuDAXK/K2u9oNemz8niNArLwtr7oYWxvK0Z8ed6vcmIHIWR8FdFny79QpmBiboSo+gPd6yT82fPXR1/pb3+8h38L0xWJKwrr1W7C7rFYxCzfkhzL9XJFTjKeuOQeDBvSz4Ell+l4sewhmPb08ejlTzHrv+st52FZaS4MVjrOEQ7sY5Pz0Qemx+HL+UtTz3BAJXsePeZwz9RAMScrARpr1RrhIuLCXUPIBNDVi2bZNQrIJRMDV2Zzfg1ZVz+llUz16cwPQHuowXAnCMsVsDzxsCkEh+LZkM+p4TKalramxjDU5fa2/Xcmlm8Rljwnifo8fclYjFEFunRsvgqiWbjCGD0xBTEwMlz42ooG/e7mxft5NUOvRZMpIPpA+pgKpCztu7ABsyC1AJGemct+VIDPZ8JAgrMrJxbod25GRkYZGaRcuMvWO52lZnwjmDOL8oWNwyy9fUp8XDNnn0dEgMRU3IY07qEhvEix4LSnL4HJ/DT1CgEjlCrOSCt7A8z7Eh02dG7MPWagSf1mx6I2/75hPyw2u+XutUTMjvw+9kLRlM0bERnLtmJYoLtIrjEK6VyS3Dlx7/zPYxaNSwzj7cGcpzMWsTXQvICB9rJ7LjwmhQQinVV2YGFW4sTFK8+1ICqMzXnwGYck0WZFlTVcbWAfLKMlK3w5kBg1skVHUZSidRgffl2iShijTuSkMv5QWobCqAmncZ6LYjJfodoG8LovaIwSIRq+Rs4c8+qziFMLtvR/SFsRnVjC/+9BpYsfHKJqKHvBtkcjoVduMhCqeVc4Jmbv2/2oWQlcW4hImM2w/xbMHNAldBC5uQrzs1tMRptRtZ4K8XUEfWRvqeNXMRte55NonRQQAl6HEzbsIFFeDGOWE8t2FdPVeTweLEqSreJtslZGf/ulRAkQqUkYZUq3uVqo0CAlcuEKh5XK//CsbBnuzw8VxZBjQSUYhjEYvW7lbL/tlJfhpoWUZq9OzSDYE4ediap9IF+xiXNuZTaodgUranijDXVvYtqUsQieCAqiYepBmmiOb0MN0ILKGGiiKLg8Ed0YoHsjWf5JgR9sdwDXeIOLpxjKFY0GUhY3jTfN7/0XAOnRv4PKmLA0FiDTx86B1pNHUnwTIoVMmcLG/BwQ1qmUDDOasYWAw11OpPJddpya4iQABVUtWIRwXRrGjNLBzK5DdTM+8ZhBwhgDbVHOYxbdWd2heQRygNtCo5pCIaBoPhKoSdQe6nUHvqXs9QoAIGHrGkB4aS2bXS+kwPAXSfpmOjAg5A6mPFm2QCQYBDyPA9tUcGojG4AAulXLM5+ecWOZHoTKKognwuLhEJNK1iQTvWY6p5P3+T48RIBrp1MgE7jiNxSZaUIWbYbOGxe3v6nR2lGA2k26wxOB2Ic2LvkWAfLgXlfANfYLQwCXSXt2gbYl8U8bAXCIfnNFP4eWq+bJvQfZNbj1GgGiLkCERibgqMo1TkgZEcyZigrsIEDt27MqMCDQlcHGQHd7IY3exNO+1QEBmHNwLVNMnBHs4y3XXwq9Fml7+IYyyRtyZREThgOyhXs6t+yTfYwSIQC4jAllRPTV5FH/s5pTTBHcRkCWFXjStrI0IQvU4LguW0+qEnd0Eg0CnEJB2JbOP+GBUxoYggG3M35evZHm8Dy3PdvKM9QfGTkffPokWCMwAtWco0R0b9AF9BuCS+GHY0liDTA9ZZTnmsV/8lqUFCo3CsQloSglBr3p2pR415NgvatF/CinjD+vso7x/JHbzhEN/n32I8Ijh3o8NDfVI75OCWZMPVBNxMWM2w6kexg5EoSUVG9IrANf2n8G1+wh1omCCESJuMZE9xLMXz/+oTgxH8dGpQDFnIdJrTM9xC8/9/iVZBeUgpDI70jL7oHm4P88+RHiEsw8EytJVbSWeP/IUZMT1USsdesl8f6/THjeelIqVpazhkUn4YdDxrN/dqKBCPd0IEbfauggRcTOxc0wiyk5LRa8CuneRVmP8WbmF5375knXA0auROrXBUdiVGeH3+z4o67jBkRZiFB45PBL3jZPPx9E83VAF6RMmWKAgsxWselSQAombM/n7TdF6HLFhLplgIwYEhmEXi1vNZ2YfqQtVLlCK0CBo/X7JQ+y7eegVwz0iPOJWuaDocS3IBWxM1LYRsBMcMhApHxqF4rRw8eTul0HIku2B4nVXvPWup84DwaH45ORzcNzI8YpmYZf7u+mufeXRgq7nCRApoDQGZR7IhrCsYifuyPkOH5Zt4pp+KNLo40o2BZWy6DWMKVNVie+n7ZqUdX2Qteo9ar7aCymripHwWR4Cc+u4QExBEkRxTTzVerY0JwNk11dYV1GgB+dsA2KEIYOO+sRgVFDnIUpzcY/jL0GTKoc1hHFGHUnBUcGNgnkNbNfc73HR0PH4y0FHY2xmf0WyER6ta67HChApqmqqbLAyYqhsbsBXhWvx3/zf8XV1Ple2GtnCgxHLc0Pk0ChGUUE3Kssv87cFAgIogWqmYj2ktB7Ry4sRvrgYAQV0xc1lrt3h4vpE/F4pSWN51QDaAsKe+kPkggzYesnUnrqN3dzf0RQThLqUUNQkhGIPFea9/dDiSuiWUwp3itBooCPW8GicmTEA502YjkOGjkIYXcCrMbYMkHpq5XWiXD1agGhcRLGulV6lTXX4rWw7VvLzflUefqwrZsMRJ+4STBOx4NDOX+l1ZAgqlLDjba8EtnC6n8PDgXbSS2kB8RQdicBpIG0HzG7+WOpXpvBi4h1BI/p4LgLF0XtBHxrRc8ah2om0F/Gn5m9tgSQpmiJjMSu1Hw7LzMKIftkYwxmHCA4J9rxD3TB/WiCwXwgQKbFlFCHtxdaKdzXW0i11PSo48tjZWK1mKRXN9W6dfdEC1f3pBwXFHtl8QwVp79rd6E0b//rKGgTUNCGEkzzUNSGQpjZyqqPztS1dH9Kb7YPcN/f8EwPOQjlqr6FX2loaqATI+SAxEejFM0LUMmcg606qzrH67Ku3i6+DqSBPCI9CZkwszwcJR3h4BOWdbeeYXtk3+o59V9R+I0A0DOKOQAZEekai75tvg4BBYP9GQISGyDxZzrYfaO7fqOy79PudALGHQzcYuafHwepaBlDW0ZM0JrnW3/bP7e/JfRNa4miF0MDSQxGw7zPdta413VIWM9twvaHu1wLEdbjMGwYBg4BBwCCgEbAzl9G3zLdBwCBgEDAIGATaR8AIkPYxMjEMAgYBg4BBwAkCRoA4AcXcMggYBAwCBoH2ETACpH2MTAyDgEHAIGAQcIKAESBOQDG3DAIGAYOAQaB9BIwAaR8jE8MgYBAwCBgEnCBgBIgTUMwtg4BBwCBgEGgfASNA2sfIxDAIGAQMAgYBJwgYAeIEFHPLIGAQMAgYBNpHwAiQ9jEyMQwCBgGDgEHACQJGgDgBxdwyCBgEDAIGgfYRMAKkfYxMDIOAQcAgYBBwgoARIE5AMbcMAgYBg4BBoH0EjABpHyMTwyBgEDAIGAScIGAEiBNQzC2DgEHAIGAQaB8BI0Dax8jEMAgYBAwCBgEnCBgB4gQUc8sgYBAwCBgE2kfACJD2MTIxDAIGAYOAQcAJAkaAOAHF3DIIGAQMAgaB9hEwAqR9jEwMg4BBwCBgEHCCgBEgTkAxtwwCBgGDgEGgfQSMAGkfIxPDIGAQMAgYBJwgYASIE1DMLYOAQcAgYBBoHwEjQNrHyMQwCBgEDAIGAScIGAHiBBRzyyBgEDAIGATaR8AIkPYxMjEMAgYBg4BBwAkCRoA4AcXcMggYBAwCBoH2ETACpH2MTAyDgEHAIGAQcIKAESBOQDG3DAIGAYOAQaB9BIwAaR8jE8MgYBAwCBgEnCBgBIgTUMwtg4BBwCBgEGgfASNA2sfIxDAIGAQMAgYBJwgYAeIEFHPLIGAQMAgYBNpHwAiQ9jEyMQwCBgGDgEHACQKBTu6ZWwaBLkFgz549Kt9evXp1Sf77ylRo80e69kWzeeY/CFhaNv9aLtonTHWBXvC/ntCS9C4RIJpRCCn+2Cm7ir6uyrdlk2j5yxc0qT5lx6B1nv7QNhxpkd+eokun3RJx//vlqfJ6u2R7yJ1lDCLjD39hvVLH0r57q0GRIswlGHZLe+Mb/loHvVjAjspElwruLLJk5QiEzt7xvrP3vX2vLfq8TZszDJzd83b5HdP3BR72eTQ17yYD2I2gQMu4xv6ZI22++G2fv9AWGGBZ8bW/7w4d8r4Eb7crd2hz9k5ny+ssTU/eUyxaCY6W43W53xWCxBk9zSxwTVM9du9uRmFDNXIbqlC/u0l9hMaQ3oGICAhCZkgUYgND0StAfgfDXsfgj+3GZwLEvhHm5hehtq4OSQnxiI6MUG3J/rknG1dH09L5S9fekVeAhsZGpKcmITQ4uKNJuBVP5ysvl1VUobyyConxsQgPC1Xp2T93KwM3X9L5NjQ2YcfOAjLPAGSkJauRlH7mZtJ7X9PpNO/ejV8XL8P835ajobkZY4cNxPTJExATFUGB0nrQsTcBL17IyE9GjRVV1ViweCnWbMhBQnwMDj1gCtJSktzO2b48JWUVKC4tZ1o+G8O5RHcA6zwtORGhIZY+YE+7Swl5MbI9TUWNNSggY44NDEMGGbEE++deJMOSlzU/y2zDktvm2lJsryzE71X5+LBiB9bXlSKvqY4Pdwtx8oYloswz1NSJ/YwCZExYHxwTmY6RkUnIjEpCdlicNZ6lTPLDHwYgPhEguhJ3lZTh9Xfm4qPvF6KuqRnZKfE4YsYknHL8kYiKCPdpZe+tDV5o+gp3leClNz/Ap/N+Qz3pmzIsC5ecfRpGDh1oH91j1zrfcgqOd+Z+gW9/WYxdFbXISIzFmScfhUNnTFWjXh3PYxm3k5DOb8WaDXj2tXewbON2MtPeOGLKKFx01imKgeo47STV5mP9fkNDI55++S1cfc2LwGAOJoICgEWF+NPNJ+Cu664k047dWz9tJubhB7t3U3j07gVpD/94+L945oEvgHHswFurMO2wwXjqjqsxduRQl+nSZa6prcPHX32P/33yHbYUlUGElWYjHi6K28nJWD4sKBDjBmVi1inHYdrEMW6n5a0X9QyjhiP5t3b8hhcLV+Cn5npM6BWEk2L749J+05EaEulyPblDr65bebd6dyMWl27D54Vr8WbFNmyp22WREwEh5Pq9FeOPp8BgS+enl6p7zr3RwN9l8ksEyx7OWZp5hxUxIDQBJ0Wm4qjEIZgc2w99gsMlG1UuETot513qkc/+eF2AaGBLyytw9T8exqsv/IRBU1IRKB20thHF87bi7kcuxo1XXYRgNlgd31cI6Pyqamrx9zv/jWcf+hJDj8xEACtmVW4ZklLjseD5+5DVN92jtOl8q5nvrfc/jsf+ORd9ZqQiLjgQW2sb0Dg/D6+8dRPO+eNJPm0gmq6tO3bimCtuw9r1eRie1UeVfc3inThl5iS88PBtiI2O6hQeOp+5X36Pk46+DjNOGcvZB1kCO084Mfhhfg5u/vOJuJNCJDgoqFN5udKWNF219Q245b7/4NHnvsDB07JQw5lYKNvnT9uKcMjADLz75L8QHxfjMl3CG/770pu46qIHkHnIEERJmyeBXckE2sKnmcSuK6+hQC/BNz89iMNmTHG5vG2l3dn7GrNaCo871n2Oh/IXAYHh7LcBELrRWIGLksbiseEnIbI32w//eYvV6tkq5xSYV7wJT+9YhDfKN1mEBvPO7h2MGlZwJelqJh2ynCUfKYN9kOUqESryHURqI8mDZB1iswgSCiV5Y2B4Mm5PGYvjUkYgIcgmSLpqNhJwJwMp82qQwn3y1Q+47c43cPBRHM3zt6wn9wkPwYARqXj53flctkjD8MHZ8ojBt91J6Ptx/m+45t5XcdBh2djD3wG9e2NIShxWr8jFmCGpGDdqmMLIkxUlaX3+7c+45u/P4+AThyCCjDM4MIBT1jCkDIzHk58txLlHT0d8bAzXTnerkYtXK8qauNA197Nv8NxzX+IQMs8m9owgLmcMHpSIz79Zg8lj+mPY4AFu46GZtCwTPvXyO9iOOpY9SM36mjn6r2tsxiAKrTkfLMKIgcmcAQ5yOy9X8bI0v154+6PPccM9czBjan+UU6DvpSs+Cj/9vBHHHjoG/TPTO0yXzGoE101btuGYmx7FlPF9ERkawgGppS9If/C3j+iiBsZHYhtXg4JrqnDUIdOVfkrXn6vYejK+puHrwnW4aut3GBYcQ84bSMbcC9HsuwMCI/Bl1Q4cEZGKrIgECj5hO57nK0KHLFkVN9biiZwfcU7Ol1hZV4a+AeFKhyEzjnwy/ip+ZIbRxI8WHiJA7D8igOSZxKnnp5JPS/mJolBMoD4khp8tXKb7oGQtZzjb0Tc4Cv3DOZdh/krZ7oXykYx9BnsdzT4jdvbh9h25QHQgGsiNRCEpHVKWiarqGzFhdBpm3vE0Fi5ZwWw4pZPa9nHIzS9kL+mtaNL0yXo8hzMoKyv1GjWbNucA8UEcfe8mNs1k1rtR3dCEYDJUrCzGzoIClbc3Gr9joXSnrOey0oYtO4CMCNTUN7GuWGf81HIUjqQwrFq/2SM0STXXcaRP0WgZNdoRVFXXiHGjU3HWvbPx+4o1lk5CGrwZpBMyIyz8fQXOue8FjB+bBqFDB2E/0jYQEaiW9PT9jn1b2nRNdTWwsBCiX6gjntIP/PfDtsj6H+38o+8AAD6MSURBVBQViq0Fxcgv5FKMnwQtCvKq2G+53NPANrSLBhh1ZLglrMcKYc383lRtoZlyWu54NOj+InqO81e9h5t2/Ix+vUORRB3MNrbqPNIjQqCzQdKQtHbwE0Eh2T8oCt/VFOKw1W/h4Y3fopwzFBFiqv12NjMX3/eZAOFaGbmFyNeWQUlOjhj6RQXhxoefxU42UiVRvcwsWlJhHZ00OalsMow97OTeCmoFtLYlLtI5hGlzjoraWhmL+DaI4ry4ohqhoUGtGyUFqhrOdYIkLQxlaWrU0AEozK9AMBmqNBEdZBlCmGxqWCBu+7/ZyC8qpl6id2t69Aud/JYZnnRCMfC4/sFnkBUVrNqhWg6xpi16kToK116pcRiYlanu2pHcIQp6s0zICGNe3hkRd4gIFyLJUnMj278sK0ZST+lvoYFWTRJa9iDrb47+ayhcLM+0yPFMCfSIf2NNCU6k8PikYiuyOAvaTmZfSEbvLMhyVCwFXRLp6stPFmcWA9S35Xcqr0U3Es1PW6Y71Ux/C9OP57JYJmc5N+yYh7+tmYvc+krVfn09+PaZANlXR6vnkkVqTCS+X7kFT7zwBmQELMzCt2AIhbJO6ttgzzTtc1Z0yGjX5xRZchQG19gWccSps8EyegNOPPJgZPZPRCUFZZDVTFbSlvLLDLVfXCQ+XbKBeoO30MjfwuQ93S4kPWlvjU1N+C8V+j+u2ork6Ag1W9btQUocTn3FstUFeOUvZ9GQIFnIVPSoi3b+aKGZmZFGpfQkzFu6XS1ZCmN25yPLnYJXezURRqMEietOHvJuAAHY8t1mZewiBg0SdFnaKXLXP2a9Sv3pOvQUQaq9sB0W05rquvWfYXV1PrK4ZJZDYeVMdIhQ6EfNRh0Zf9nuehQ2VmNbQzly6kuwuaGM36X8XYadjZUoaa5DBfUdMrDMokCJa4P6Ej7P5SebQuuF4rWYtfp95NMCTerG0/1jX7gF7uuhZ5+13dRZZtRQaEwbkIR7n/wYA/tn4sIz/7AXjG7TYD0LmDW1tnHzSnZMVHKUj6c7nj29uqEP6JeBp2+8FMdffA+mjU1HU4OtC0r+NVzOm5aViLsfeg+jhw3CaSccaZ9Mp6/t0X33469wzyMfYurUvqo9SruUIHI0PCQQv2wpwt8uOkpZDVruW/QaKlI7f3R5Y6Iicec1lyqd0svfLwUqREHKDNoU1k4SFsLqmxE2IBZDY8O5vNj2wOfX9VziqeIyXCDHiq7kIdlyFoaYMNzz2KU49/QTFSHCnLpTf5T6ta9jVYhO/JG0pPzSSp/K+Qkflm1SMw8RHo6BuzmQzLhbKWhK9nD5lzqLUyMyMD4iGWPDEtAnMASBFBIyyy2l9VhOfQWW1RZjVXUB5tVTwFCggBZlmbTeqmXiog+xz0Vo2MR8BwdF4seyzXh1+yJcn32odzuuQyF9KEAccnbys4Yzkcnj0nHR/S9h6MAsZTroFw3Wky3QSbm72y1PwyHK2fv+/kfc/MQ7mDosVemArLxbQSMm32MnpmPmg89jaVZfjBkxRBkVyKyhs2GPLF0xnd+Wr8ZZD76ICcxHlPj2IZjMt7CiBpOyUnDNpWcjgnt01JKXi/lrITJoQF88/q8bcCHzLOTSnI0hdwxZkQNBXP5btHQVnv5sHvpHhykhomkW7GSJRZYAX7rzEkRFRqKZ+jyROx0LMv7dg5DgEPSn9eFwGkzIPiC/6IsdK0CLWB0udou3nP/QGPxasgX/yF+CDOojtjkRHjLrKOH9rVR6HxXdD+ckjsC0+CyuXsZQlgcg0MnwTARCI99pbG7COupuljCP90o34fPKbRQKAUgOCAVt4lrpVYpkyYwWaF8w7gWNU5BI6yxNp/NSeO6uXwkQKbRI46z4MPz13qfw7uN3om96qlud1XMQMSVPtkCPEta9E9MMVZjT5eedjlUbczB38RoMToimrsHG8GSEHULrtLRee3Dno7Px7P23ILFPHNuFZb+GuyhoIVBQVIJbqH/LCKahJ4XCbgosHYTpih4gp7gGrz1wAzLTUjrVHnWZZd/TwdMm6mzc+g6jFde9z3yKwWMjOXMT2x1LkDyaufwZENQbp594NMLDw/Qjt799xZDcJtAHLwoGsoQq+06eyl3Iqc1uNArWvG8fEnmvSExvycjfGXAkDk0agnhuDrQPkpb800FMjCXtEAoKaesTYtLVZ2bmBKwsz8VLeb/jhbKNjB6AdO5YzxWhYQ2yLVGsveZzFiO73JUAkVvW59786vwQzsPUiZVWUnQ4Fm8twMNPvwrZn+F7fYiHC9Wp5HzRDFwj0JMUCbMTRh4XE4UbrjyPFiW96AWgiSNeWy5yJXqyfjSh/eD7lXj6lbeVNZQotaUjuhMUM6CwEL3KU9R7fLlwPTLjolQ+9umJ3uPX33Px/E0XYPqkceqR0NyZoIWI0CAzBfnoa/29r3sym5AgZtCgkODLrchRJPJ2Xb3FCEOMMnTa+ntfeehnElc+nS1zKwJ9dKNzNdWSSI3yJlp+vcYlo0zOCArsGLnEFp1FUXMjskLjsGT4aTgtbYwSHnvxtIoNwVM25+qPahN83yJWLJgL7nEUPAf2ycaTI0/Bp0NORjQ3RuZSh9Kf78oSGW01kchr2SdyKJeyMkNpzszQySaq0ujIH78TIFJwte7dNwGPv/U93njvY1UO3ek6UigTp3shoAcIo7jf44M7r8SydUVqFGZfCmkX1TT5njoiDf948gN89vWP9o9dvtaMZe4X3+Lu2R9j6lAunTF93fGEJ4vief7WIlx3ydGYderxKg9PMVNpzxYmYhl56mv9LaNRfa2/9b1ewjAYFK1CaFtjTRZS3pWg37X/tr92zEM/k/s6DZVQN/ujmb4nyBbDEglfFXMmwFlIkxVby12oTX9lIlA4Q3hr8HEYF522d3CwF0/WlW57+j39LfflqfpnxV0EigifUM5Mjk0ahpWjZ+HKhOHcD1JJpTyNSvjONs48QB3LNZnTEM29IqqNtpmLzs0z334nQKRYAmQNO/PkoSm47KbZ+Hber54prUnF7xE4/shDcN81M7FgfT4iQmQHekuSxTJrNDc0nnLPM1ixZr1ibjKDcSWo+OygS7i/5LTb/4tx2QlO9R7FVbWYmJWKv14yS/mDkve6MzN1BaOeErctZu1e+bhcRYa+tiKPTKq1BVy83GuuwRNpkzEpJmPvzK0zbUaEiQgf6QYiSGSG8fCwE/FI34OVoJL55fjQWHwybCYOTxxsKZaDYHOvrB17yy8EiJLODvQKYLK2OGx4Iq57eDY2b93hFrNwSLYb/nTgoH5QAm9QJJ1MdBqyG/viWafihGnDsLqwnO5DqLy1K7PSh3BZKZ6jr7seewHFZeVqiVPe7Uiw6E1604lhGf71+ItIjgxUCmL7dWyhRRjPhsJqPHLT5Z3We3SELtfiWMvaXpHbe+5apt0ytkDgCRhkVC9he10FfqOFFHoFotZudCMuSMRMF9xEeAx9VkmQNzwlwCQd4ZMiRMK5mfDqrIOwY9wFWMYZyddjz8VxnJ1IHJmxeCpPJtdu8AsBUs81b1nPdiy47M6OCgvG0vwS3POf55WnWr3c0W7JekwER1S6vmDeokjagIzyRUF+z98vQzlHdPJb/JLpIFdiJTWQivZ3v16KF+a8pwRPR/QhwgQkXhNnMU+/8j+8/9MqGmxEqfR0DtLpZelq8eqdePn2izFj8niVtV420nR07beVWjtcnNKjC+X04f5xUyDwBAxaCJU01GAJ92pEsW0q5bUVxijWRQkV50fSdUoc9RQS2qse66sufVlmIxYhkc7ZyOioFMQFhSnBYRFYnihtx0nqUgEiAjyAHTo1MR7FdBnhCLhAUUtrnGnc+fvCOz/j+TnvW6Q6I+oRQceL2l1j6qbbXel3jW49QBg9fDDevvFimtfuVLMQ+1SknYi+YsqIdNzw8Nv4xEV9yEdffofbHnkX04akKH2bbnfSHmXT3fyNBfjr2YcpCybJV60p+7Zf2hd3H9f7V9uwB6Kj1eFphBqp+xDXKWEUS+JBVwf5LffHBUcjPFDvI+8olTqVjn3LUFtyVgp3NlrLrKP1ALxjqXUuVpcKkBDa1/++vQRnHn8obr/gFCxdsdOy7m1XJunc4i9rytgM/P2RN/HV97/YPTWXXYGArdt4N/c/HHs47r72VKUPCadvMGHw9qFezg4ZmoTLHniO53Vs3ucSp9ZfrFq3EaffNxtjhyej1s5cV9INYnssqa7DjGGZuO6K8yBmsvo9+3y7/toKhAMeXU+X7yhwpeiuxG2vBMKsnQWthavnMpYsM1mC/nb2RufuiWgSkWFZbvWOoOoIhV0qQGS9G/m1iIkIw9kzT8QFMw/A/NwS5TJibx1YSyGuvkf0j8fZ/3wKq9dtsjIL71VQR8DzTZyuaxxtlc/bFFn0IXIyIfeHnHs6jpo4CLllVQhx0IeIE0I5AiC/qgZ3P/Y8ysrpD4imuY6zU8vSVW/IeTR30K9WEDdqBTGtZvHrZQ2yNCCdYX1RDe6//lKl99Dv6Tj+861rQH/7D2X+SIknUQrn7nHQRfsuChL7zYA1wrCom5hXX8aTB8XvLoOteVl+98C/XSpAlJCIDkI1D9iR0d5tf70IQxJiUFpTp0aD9niLN1ixytlNu3ZRnsppbpY18/2gluyB2E+uRRCIwltOrfzX3y7B9uom7OaMw1EfUiuuTtLi8eZXv+Oltz9Uoz8RQFqIyLf8FmHzwhvv491fVmFcUoxF72HlLNKCwkTvsXA7Xrz5fBzgof0e3q8q0/bbw9hTwkNWQiTIMbODKUB2c6ZhvwtbnBwm8f5v1TtRUFum4u4PtdOlAkTVCVEWlwsSsukD6+nb/oT1efTOSt2IfZBfog8ZkhiDt7/8DbNff0d5rO2I8tQ+ne537X/N0FcUCeOXdatJY0fi7X9ciiXrCnlKnqWt6HqUKEofQpPvax+agy+/+1k/ajEA/OSr73HjvW9ganaSRe9hjSVlUfs9tu/C3648Fmf+4Tj1RAugvYn51YWvasCvCu0WMZ5GKiE4AqMDuLOfAsR+b7ksYcmmQI5y8MbO5artKYW3GiW7RXq3eKlLBYgFIVsVS6c9ZPokPMNR4ALu/pVDhuyDZhZTqTy9kcrTuV98Z//YXPcwBJT8sJbppKMPw40XHoP567g/xIk+RJY4Rw7og9P/+TTWbdpimXUo/0+9lH7kj/c+h1Gjk+nhV69WW1YYgrmMKn6upsp+j0t72H4PW9fqYS3DWXHaLmzbT5yl4/yeVlHLoU4DeU45JUWLGYi8JeeR9KEZ7z2FS/EZj7OVoJZje7AQ8QMBonBWf/So71zqQ2T37/wthWp0qO/rmOJcb/yIFG4mexbLVq2z6kNsjEHHM9/eQaDl3NA7eehUVQfk8mUIhcbV3NB35MSBKKis5smNLZuuHPQUHhKMqtoa/PuZV5XJt/jYKuE+kQeeehmhXJcOpQNCWQrVQUaIUpac0lru97gC/ZTfNTH1bZm2jm++/RmBtltl209cK4/mQ4fEZXH0YTlawD4F8UZWIy2Ku8aP3/g5Pi5Yox5LO5OZtCjXPSHM7PPs6ms/6Cm26tXMQvQhV9Pr6fTBGSisrKFbC/vVRssGQzlylu70cOu/n0VRSanq9B3dTNbVoLuWvw0f197rObG1PiQ1OVHpQzaXU0nJzqg6prWY0kflxMSpPIb4uTd+wqv/+0gd/vQCTb/lyOThSbGQgYdGUzqymOwuXrIDL9x4AaZOGKNSUstmfg+dtRS6MG3R297ztt4z950ioJn/aLooQUgsCmjSK/6o7EMtRYQcQSu+qU5c/xHu3fA1NsipiGygesCiBIkSJjpF+xS617UfCJCWIGormozUZDx8w+XYXMIq4dSwBbMgxrKZbCgV7p8sWo+nXnyTTvDkECqb8rR7VcO+qG2Jz75i9uRncna4jAAnjxuFV+nY8LdFO5Ti2x4d6criR23MqFQ8995XuOvfT+P5j77FWP5Wfq6sAMk74iTxF/q5upYz3TNOPlY9kfRFEPl/sJbavvD+T3SXUegpmPRMIjU0Gk+nTKBDzzp6iG7dYOQI2gjuVE/jqYG35i3A4OVz8NjmH7C2spBH71oGPjJQUfNftjktULoMoE5k7AcCpDX1ehQ4beIYvHXXlfhtbYFz5akcQkWl6J1PfYj3eRiQBHmXddKDQusG2oMK1+Gi2KNw+knH4Po/H4/523apWYSz6u7FpapH5v6AECV4WmYjx+fuounvoUP74u/c7xEe5q/7PVrSbftlRcMeFNtDc+WAgCdh2mNN7NS0sZgYkYLNTfU8NKo1GxWrrDx+MukhF9yhfs32nzBs+Su4ZfVH+CB/JXLrylHPZbC9MxOrIJJBjHwsy13OWrZD4br4Z+uSdzFBOnsBUcLJ3Ex2yyVkFmusmwwdMK3lTGTCsBScdcczWMwDdiTIjMWEnoeADA5kY5/oQ/580Vk8wTINBVSAiyLcvlmoa3b0UX2iFAj2zyQNib1pawX+ee3FSE9NUmkavUfPay9SIk8KD0t6lplwYnA4HhlwuLjSQCmXshKcCBGJv528KJxLWqkUJMlsef8uWolTuLQ15PdX8CeeZf7OjiVYWLIFWyhQpJ1K+1RtVL75z98FiR8IEOdVbGEWPEiISw2iPD3pwBHYVlLZejMZBY0cAtSvTxhupj4kN7/Qog+xCiCpRBN6DgJKH8K67ZueohTfOWW1iknYL3FKaaX6xZeavfCQazHZXbQ2Hy/dcxn3e4xVwPiXnytFkvnjIQSkzu3bgCeSFd4kDWwGTxj8eNCJaNjTiF3UeaS3IURqSMFOChJqQpAeFMEDocJQTRfsL+xag9M3zsWUVW/gpBVv4fqV7+GJrfOxpGw7CuvFXbtl6V4tdfFdfxQmfiBA2q5ey0ZBHjDFzWT/VM71AngAEA8bstsjIuJHXHynxETg65U5eOy513mIToPSmehZjCcajUnDfxBQHZjkTJkwGi9cfz4WUx8S7rBL3ZFaaWVhHIyIn6u/n3skTj/5GBVF2ojwg+4Zui3hPoNbEPIGSnusjeb4pKH4fOhp9MIbitymGmRTiMS0kaMcAyYnCcrSVijjxfFAqr7BMejXOxQr6srw7+I1+MuWbzFh+atIXvoK7lj7KT7NX4UCnjIowaKE969ZiR8IkH1Xr1aqjx42CK/ddCmWLcprfdgQwRXl6fT+SXjo2c/w5vufKsA1o1E/zJ8eg4C0GD04OOMPx+Ivlx6J+duLWzldtC9wEJcaimjRd/DIfmpGG678XFl2qdvHM9fdA4F9cw3vl0G1QWs2R/Mcjg2jzsIZsdnY1FCBcs5G+lFARLUhSGQwI558SylItlGgbON3NHexq9kJzzZP4AwltLEWDxYuw/HrP8Qpy+bgvo3f4XfOTCqoT9GCRPcB75e27Rz8QIC0TZzjk5OOPhQP332O7bAhuwhSodUUIhPHpuPCf72AXxb9rp7KmrkJPQ8BvcQZHhaK6688H0fSAWJxVR1np62btLQNcYGSs6sad/31ArvzPbqaDXWyXmSdbj8NHS15R+O5A6MWIsLIB0YkYPaIU/HekD9gelgfbG2sQiUFSSqFSAaFSWwbwkTyFRor+FdmJ7n8LuGnme+kcLmrH4XJ/LpS3JL7M8ZzZnLBiv/hk4JVqKbeRfqA5O3NMraHS+ve1t4bXfBcAyWzxgvPOhXnHDkBv+4sVUsS9n3IskYIDEyOxHUPPoutO/KMPsQL9dWVDdZZcRoaGrjnw7K06Yy2vfe4+XDN+s2qw+mZrbP0/P/e3hL5P6k9nEIRImowQ0YUyaNsT0kdjQ9Gn4XXs4/F1PBE7GyuxQ6eYV62uwFZFCKiJ5ElrnC+13J3mw0oGfLytHvkW2cnMZydJFMJ35fC5P2KbThh7fv406r3sZ77SyRvLchsKfjuqlsIEIFDVRJnE/Gx0fjH1Rejb0wkqurqWzhdFCBFcdonilJ7az7uf+IlVFXXdnN9iP8xC8G5q4OMvERHVlZRhbsfnY2fthQghua4zW3MOKVdjE+LxZV3vYjvuv0Ryf5QA13dAvwrf1lWkrmAtEux0JqVMQGfjTkLP4+chbtTJ2FSaDxyKExyZYmLCvQaCocYFiGLAiWTH8cNibp00vvFPqvAKkwS6Soli8LkldKNGLL8dXxRtE5F7Soh0m0EiKCkR42DBvTD7NuuxOrNJU6dLoo+ZFp6Hzz96neY897HFoClgv2PFyva9v3HMAtHfKSTyoBCwiv0wPsKd5pPS49Xm0sd4+rf8o6oU4cOjMfl9zyN9Zu3Wgcl3bJRWIplxUCXcX/67miv6Gg8T2AncwFpl1qQxFKxPj2+P24ffBTeHX0Gfh15Fl4dcCxOj8tGfz4r3tOEHC51bW+s5J6QJrXUlcT3I9WcwjlFRRQkOfykU5CAe1CO4WxkbsFqFVly9nXoVgLEHpxDZ0zB4zefiwWruD9EnOvZPZRGI0Jk8oRMXP7Aq/h23kLrU/tYdi/49WV3pNk3gP44fzGufuQt7k7PYH23PtHSkYpGzk6iqTPZVFqBh55+hbPTGjWLsQgXx9j+/NvaJrrniMgjwHa0V0i8jsb1CGFMZK8gYf1I25JPZkg0JtPs95y+k/DyiFOwiOeZfzNsJl7MOhJ3JY3HHuo7dlCQFFJ5XsUNhv05K1GnHLZBlOhLEunYMZI73k/a+CkWlG5TOfu6LXc7AaIkPCtEpowXnXUKrp51KHckF1l2JPO+DgJkI8+AGJkRgwv/+STWb9pqHXF2N6W6L8dQGj3//dYnBG7augNX3fc0hqRFoYl1bVf1avwmmwvVgWV2RREk5fyQqTwiefacH/HaO3PVU92m7KKayx6EQFf1IGlX+iP8SHS00lDDePBUAs9NP6zPAFzQdwpuG3Y8to05G/NGzMINKeNoZRqCLRQmtVSUy/JWW9ZcMhsJZ1riQv6sDZ+hoL7KMgOy7wxersduJ0AED6kUYSRigXPt5ediXGYSLXBq6aG15VkR4qE1gh5at3HE+eB/X7aOOFufWOdljDuZvE0odjKhbv+6dEJZxpR9Po/PnoOVebsQGx6KRtazfZD2sbigHNvKayDmu/b9iY8ss9Pxmbjy/tfsZqf2Kfj7tZUldhVn9Hd47OjzF4ikTcqgl8zLssQlf9kwRagIE84MjcEBCdm4b8ixWDl6Fl7KOgppnLXI8lYll7ecuUuRYhZSiAzgfpItNQX4KH+FXcl9c9ktBYhAo/Uh4oL7P7dciQ3FVJbzvlSUDnKp9SHPfzCfh1C9p5SsEkcqr3sEW3l8Ra/kKJ+2EGrrvrfp00jIPp/HXvwa0zITUEMPvPq+5B/KQcTSHSV47caLcNWJB+G3nCKL00U7oqXumzg7HdE3Btc99Bxytu3YOyjxdhk8mr5dmTyabg9LzN9gUktcstBFPmRRvlt3mVuFycDwPjifM5PfxszC8xQkAdwbUtBUi1TORpwFmYmAFlqPFC7H9voKlS7Fk7OoHr/nnCKPZ7OvBDtTUAvrmDFlPF6//RIsWp6ndiTb5yZCRDyxTh2RimsfnIMvvp1n/7jLr+0Fnj0xCpXAXvT4KftXfRtkVNTA3f3hTvZUSLsUV/q+DkrgszJ//W05LnzgJUwYm6aWo7TwkPFAOHVhC7nT/KYzj8BZp56Ai2edhqH9k1HOI5Idzw+RWUskrbZ+31aI+5/k7LSGAxCWq/sMLFgDuvC+rgyTn0cRkGoUQaJ5gdqOwAadEhKFiyhI1ow+E2fGZGEnhUiKEyEi3n8H0IR4TU0R1pTuULRJf/BF8D0n8GCpRDjoDn/qCUfihsuOVa4qnJ1YV0+GMXpQAmbd8wzWbszxmxFngJx1EuCEE0gDCAngefG1CjHduDwIX5tJNVNoVZLpRnHfhMbXFnkPgoODbT99cCXnvEj58wqKcOv/zUZ2PK3o+VutKVvzFwFRUFGNg0f3x18vmsUOyWUB+st65tYrsW5npfot7UUHuVaz0/6JePbdeXjrg8/UI8mndZn1W/7ybeUOPmIS/lJqd+gQiOyq3Z0kfP6OFibSDuUziDOSJ0b8ARfGDUQ+95Q4FyJCZi98X751rw8tXzQPPxAgnate6fDCSELJ1K699BwcPX4QcsurWjldbOKRp6EcodbV1+EfdLq4q7TML0acgTwlTwkQhyGDcgMYEYSi4rIWjNIXrbmRZ6tsLypFdEhQ67zZKkNCQnxBhspDOpDs92jgUtV/np+Db5ZuQmJUOGdINr2HtAFpyDkV9bjv+suQmpygdGSSwEHTJuKFWy/EIlrryQzFvlNJyxPrrUnDU3DJvS/hh/mL5JVuEKx9pnNdpxuUs/MkdmeIpF1b+JsclRuKW7MPR2JoHPK5wz3cQSxWCv+gVdbTFdt5cFq9BTgHntJ5NFun4AcCpDVRrt4RiS2j1JSkBNx3w2XY1sA1bkeni2xJcmLdOJ5M978fV+D5199V+hBZtujKEBoaCmp6WzA2oWcPy0MLAGzYsmMvM/T2yFi3t/r6esxbsx0RocFOBAj99kRFWCDTL/gAwLlffocH6Ods6qAUxfRZ5SqIQBBHiouW5uKl68/DNOvJgvbLUX/kgVFX/vFgzM8ptFrr2QiWIgjUQ1Kj8Of7nqH3gp1+Mzu1UWmu3EVA2kd3D725bCWD5OzweNxHKy3wIKtk3QGshVMDTsYrbahEdaN42vJN6Fru6cEy6tMIx40chndvuRRLl+XTuR6Xh+yC8By1bDE4BTfd/xY++Owb29MuammpKUlAdHCrHdTC1DLDgrExhw7UuNvaF0G3yXU0eUZVPXUdspxjy1ldN+zGkKy+6qbdI1skD15pk90lK9Zg5j3PYfyIlBabBYUecc8ujhT/csEREEEhQQtaNXqjtV4ELbVuvOp8TB6QQn1IS+8FEl9mM7ERoVi5o4iznNdRSw8H9gJI4vhl8HYF+GWhWxLVnrLYOs5o+VI3/KXLcUCfgUBwNHJo4suthHuDaEqVvy3ez23wDb+QzHuMANmLJC9OPvYw3HPD6TyEKo+D+JbLFhKvjjORsaNTMPPuZ/H7yrXqVYsLDDGx820Y1D8DEZEhNEWVdX5b3s20rEiJCsXcpTlYvma9eqAZoy2WZ6+E4UqYt3AJfZ+3Fr4q/zB6DeUhTBK8SY/MKIWJF5eW465Hn0cyyelNk1x7vYeY6FZQIAxP7cPly7MRpjzs7lYzCEUg/2hB0C8jDQ9yeWtNXoVaMdRllXhSbNkfMq1vAv7v+a/oveAT9brE8WYZVSZu/fF1K3WLSK+9JKWXumnidwm90/JAIF63xMRi0E//VPQjpZic/UjIa5R5MWErbxgQHocTg6LZ+ZpbuT/RmxjqKER8FXqUANEdXqyELj/vjzjriHFYXVim3Hzbtx8x4Qyk8jo1tDfufGQ2yjnCj4qgYra0oQUT90Ul9ImLxZi0BJ7pLuaoNgki9Arz4wP8umS5YpyaGXqDLs2Yt+zIw+e/LMWQlGgl1HRekndFbT2OGJeNsDDL2MeeCet4nvgWpi0zShHqs+e8i4/mrcaAPtGEwmaRJkyfenOsyS3HEzddjqy+6YrZK8wciZDIDAdTH/Lczedh0WKeH8KZS0uWw9kp62DKuHRccv/Le705O8ZxTLprflvbia25dA0Z7eQqbUp/2psptJOUw2NLrchGuy08gwM88c+66r83XqD0JQ7C+gRY9HXyhqfgkvapP7rf7M3YaxcW6qUc4cFcQhYGYRcs5ZM49OTbqmXbRfTwpR8IkJZAdLZ8wtRk6aNPXAxuv/oShJDZ1ZIJy2hVB4FZDqHqFxeJj75bif++/BbyikqAAVGtNqXpd7z1HRkZgVMPo6lefnmrjZAyU5qYnYibXvqUO+m3KBK8MSKWtih6JAli5vzr0m2I45KOvWPCEO6vWL+xGH84ZCIS+8SpuN6Wtp998yNueuR/mDI0RZliW0lUfUcs7RauyMPj183CoTMmW+hp46/qVtYON4vmvVddeDjm5xZTd9JSiEgUGVxkJYTjb/c/gx15BQoXaU/+Fax9xrNdx2NFtAgLDgJYYfojgyPFdD2Qi+ad1XT78XxNIRtvEDfbtQRDrSVwZhIZRB0jg6cEmJRBeIz+6H7jjX7ZEipL+QTHZirRHfuetHHLLIxlJh6+Cjau6qscfZCPHqkPG5SFl2+9HCtXFfLcbAuD1NnLLzk/ZAItcJ798Fu8/sn3GJcco/Y/6Dje/NaCLjAgABNHDwOKqHNoSaJilL1E8DU14s0PPld7QnTZPEmbPkN+7YbNuOHFDzF+WDINDuxG+8xMMdGoEAwdxDVY628HctX9zv7Reg8xtb7ovtk0vU5UHpZ1utKNQoMDsDi/FOecNBnnzTxJPdIdW8dz/NZ4K+8Fl52DUSl9UFpd12JgIe+IPiQ5Ohy/bt6JR7nbvaa76EMcC9xFv4VRW2bSvbC2qgg/F67Dgl2b6eOpxsJ0SZenmPmWKh4SW7sLafQHVWc36palHDkOFkHhCKPLEEvwTGuVdrSd55d/xZMCv8hbgZXleZDhhWpfDkLMmrFHvypoYSWbBSk1OdOwBWHknIupEC+OFn0U/ECAeKZi28LrqEMOwH/uPJ+HUBW00odIzuIvKzY0CDXV1Wr0KQ3BV0HnNXjgABx75HCaH1e38t/UQEY+iWvzd734Kb764Ze9pHlqxCMMW4RSJd3ePzL7DVTwO4BCzT59WU7aRWZ7/ISBGDNiiKJB076XIA9cSJ5CS3llFe6lK/5d3NwnptcyK9BBjjOup+BPpCXYzX++UFmEaaGj47T1rYVvdr8MPMn9IesLK53qQ2RgMY37Q/796pd456PPVXJSXh/wh7ZId7hvbaO+a6oO+Tv/KbUkwqORzPv57QsxjAcgzVj9JqatfgMnL3sDX1CYSJA4thpVtzr8R96TUX8jU3g9fxkTC2jBSCUh8R2Vx+WtqVQ2Z1JnIMFT3fqH4k3ou+x1HLX2fzhm/bsYteJVPLzxO5STsQtdu1l2d8umCG3jj+6Pv5Zuwa8NZcigD6wqu5yEkTcw76DgKMQF71cCxBtwS4OxTJmlUi848w+4/KTpPCOkyLL27ZBlMxlUAEf6vu6PmsZUmh/PPPZgbNte3mpELKSKF9kx/eJw3D+exOJlq1TZpJ3pRiXX7gQtPBq5nPfMy2/i2bm/YAodDdbxtw6Sfwj1RZs37sKsk49AQnws71im8TqOJ76lLFooiZPDVz9agKkpccr02r5eQijclq8uwLM3XoLhgwYoDEQwuBoOnDIB//37OVj0245Wpr2Sn1jrTeTS2fm3PYv5v5FRMeiZmvrRpX8cGnCX0mLJXCjS9fRG7hJcsvETJLNfDQyORXZgBBZwl/Qxa9/BR1bX4yKN3SmFroMfizbgiZK1SKYfqF0OKYWKtKD/qAMiU5UXXKHQMiuy0OrqX93PVlcV4pB1H3H9uwKDg+OQxU9mryDcuONHXL32Y55dXkUhQj7CsnlSNyIGNZKuHGf70k6etErg6llE+4XVcCkzl7bOjUxRzhhVGXWFuFpgF+K73vNcSLxjUb1XSmFIwiRFQX7jVRdgVHoCymTZQrSvDqGrR5eHHzgF4IFHMrrW66qaRBFwstQ1iEr/C257BEtpOSZl0+XT8Tr6LR1CPsJ4ZYnmCZquXv/4u5jCPRayV8a+RuSI2AruSh86MgPCdCWQHK+Fr39agD8/NAdTRqVb9ntYc5L6EYu6BWvz8K9rZ+LoQw90iwbBTDOEc2aegCvOOxS/UB8S5qBUVwyAcbMyonHnoy9gJ3fBC15iHdb1wVpD/kCKBsPagcqol7hj5xIE8NCjpt4B2EhroU1kgGncCBfbOwQnb/oci8stvsdcESJSVBndCyPdyJP4Lsj5hlIhgMs21AloGqzfyk8CBcgRfQapO7q+HaK5/PNLEX4UEoO5RLSe5crhZydTyQ6Owcsl63D6ircxv3SrjF5VH5Z8OyNIRMTK+wEss9hVPZ4zD++Ub0Em8y+y4q0LoUx4Sc9xsf0RwdmJ5N0ZoanTbe+7NSdt741u9lwvW4iVzuN0uriukMtEVubrF0UhLRLEzHT2FTOxdENhK2YmMWRtPob7GeprajDpqrvxKRXMMnPQo29pMPYflSj/SDuzv68alrX8OdtycfsDT+BvD5BhDxa9R0vzP3k3jJv0Vq8twi0XnMKzxJNVWo4CTufl7rdeghJ6/nr/MxhGpi1mzZo/yncI6dhWUok/HDQKl507U+1R0S5OXM1XC95IGVj86QJMykhSQlJcwOsgmIuhRRL1IV+uyMEjz71GY4wG4m0TQDqu+bYh0NxMyyi629hD5l5Ohq9DHq+DyNjQzFHy+k+wsabYMghiBGGSqo3qyNZvqXe5L8+lPkR4bOJ7M9d+iB11ZUgR5fneVmJ5KZoxt3GkPjEiHZPi+lpT8sxXfQO1DCSk3i5P6TEiINPp8PAnzrKmr3oTj2z+HrlWp4bSVxz7n7Rs3bY1Zaqsct+KhaXMFkEkM5vb132G2/J+RSqFx3Y7XOV9OYAqh7OPKJ56OIFnjvgy2HqML3P1eV7S/CxmnC/cfAEW/ra9ldNFn5NkzVAok0Yj4eRjD8fJB49ETnEFp6Etd6eLnBEz1pjwEAwPD8Txl92HBx5/fq91ljBF+w8TVenKe/b35Vr2Vrz36dc45S934P8+noepo9NbCw/SE0qmvb6oHGecOBEnHX2ootHTf6TsaiZUW4dHn3ud+zRKEO3goj2ANDeRmec27sEd11ykrMAsy2+CnnvBMpvYjf6ZaXjg7xdj7ZpdHOm1HLNJ6rKUNT0rCQ899Sne/fhLlZn7ubpHa+u3HNlP6xhddScwMAhTych2O3G3IV5jU2lWu5bM/yiO1r/ZtUGRKUxWtVH+EsapBYrgLPfluYii73ZtxEEr38YyMmo5kU/ODHcMCYyL3XX4G3ds96ESXdqXpOGJEBUmh9DKWeat05MDnvr0DkYCl7T+tn0eJi6bg1e3L6Kgs3jHVeUjHZZyWtqZ0GYrq2XGoONJmWXJ6mMq649a/ibuz1+CNC7XyYzHMSRK+eho8V+JI9E/LNajZXbMy/G3HwgQ73cGwVcz6bNOOQ7XX3Ec5m9xrg9xBMgXv6XRCENM4J6QW/98PvJLaFPC36Iwtg9SDpmJiL5myshU3P7yx5h8yS2497Hn8POipdhVUqq8ysqSF1uqaqyCruysLquoVE4kn5/zHi678R6cdtmDaKbLkslpccoazT4feSeIyzXiVHFX3W7ccMU5iImO9HjDtO/c4szwP299j2n96KKdTFvKKkFokeWlpUvz8CZdtI8dMVTRoWdeKpKbfwR3CYceMBlP33sxFq7LR7jDxlOJIfSMH5+Oc+9/Eb9RByXE+cdSliKffwQlJ6GN205idvqWYCn1GcOlqhtSxpKJN5KZWivRmrr82klGm0RGm8NR9RFr3sMd67/AmsoCiHWRLEUJ49QCpYHlKuWS2JKy7bhhzVwctuZd5PHQpOTeoRCG3TJ1IIkzlM1NdTg1JhvHpAzvdJkcEzgqaSh3gUdhExm7dmhoT0Mx6S3jSxlcvsuvr8R5mz/Hocvn4E7OHr4oWo+dtWUsTx3PQ7fs1BDMdFnZqNR9Ke8GWq89t20Bzl/2Fk5c/wGW15YgnScW5jmp5wSWOYf0pEck4/T08Y4ke/13y+3GXs+u6zLQTDqUB0z99ZJZmL9qE3ILi9EnMkwtVdg3hK6gUjPESWNH4u37/ow/Xvkwpk3M5MygWY1SNE3SJ0VA1PIUsslktqIzufXpD4DZH2FUVjIOGj0Yg/unIT4mWrldr6iqxtadhVi8ejO+WrcNKK5BEk/xm8q065i2fOzLLjxHXJjIcs6C+Tvw8ZzbMH7UMI8LD10e+Z6/eCku+ucLmDQkmZv5bPQILREUHuLD6uY/n4hTjzvC/rVOX2umJ9+zTjsBv6/ZiGe+XoQpafEthFgzGaPooDLo3PLGh57Fyw/finS6oLEXgJ0mxqUE7GtMXnT8bU2sjdsuZeVKZGt+R6WMwPklG/By8Tr0JePbZp0paHlWSEYYzeUs8RFx987FuLtwGQ6NTMOJkenUJ0QpplreXI+NFDKvVm7DpuoiykgKHs46alnWAqv6WKcnJIpzwV7sE3wZN2cdjDgKMhndC4PubJD2IUHO6fhq0PE4kor0fNLXl7MpXTadhyxp7SCtoSxfUkAUNnIp667834ACKr85g5gansgZWhwGibUUnR+GcKmvjgKlnEt7Gxoq8AH3teTUFrOTc2skn/ULCKeRAJTA1Hnob7E26y3Y9tqDNwYciVSaLPu6TfqBAOl8BWtA2/u2LFvsQUZqMh65+QpMuuxOxNLflCxdSGPr6qAr/5TjDsdjd+3C1Tc9jynT+6l9EGLK6oiUMH8p0xT69hJLjbqGerz+3UKUlXCttoQNsIlliqNKMT4Mg6PDMD4xCkEpsTSL3a0YpGN5BQLZcBnEDSkLvs3B7Gf+jOOOONgxmkd+67IWFpfgNiqp+yVHcN1cRrGWZQmpDRFihZU1OHhYX/zpgjMQxI1/lqUrz02c9cBCGVpceT7mrdiEUhoNRNKRpJxoKUFwF31IJjeefrNovXJ18rcrzlcCWpdDRfTZH0GHVHmAOXqSZFmYkX4kStxbsw7By5U7sI17mBJ4VsUua73q/CooPIT5yMi6hs++q8zFd2U5FBQUAqqhS/m4o4OK90Qy3iCWtYDxnO2yln0faXxpY3MNXh1wLCbGZDAdzwgPTa8VcRyRMAgLAk7H1PVzsa2+HAOo+xAh0lJ7yH0oLN820hBNPU0MBUUDr8sp+BZU5WEBPeaKlRinafzml6pHKS8RIXYiXKM5i5F3tqoImgrbdwzLywU6nhFSjTmDTsCBPB5XyqyFnS2md6881xPbpVO1inZjeTuCVoJOHDMS/7v9MvrC4rKFgwVOCxp8SLZUvjAkGe1eQVcszz5yJX5dSe+wJCjMwTGkplE6rCi/ZWlL3suOj8KUIamYNj0L0w4agKkj0zGR5rDiWVfNXBjX8QhYnZbgIAz611X5mPPKdTjvjJNV3t5gkrqhf/LVj/j2p7U0QItUTFrToqb2/LGZJ00+cN1lyKACX40oKTA9HUQISxnF0OIJDizW05w62CEfqQNl2ktjgxte/AQ787kDmoGvdUGwa5SK+bQmQjM8XxMn9SZYDopIwA+DucmTv3dxT4Ze8rGnR1ioLEXJtrgoLmulc1SeHRLHWUgc+tP8N4VMVM4Pl6UhUcI7WltJWqI078fPxqYKPN73EJydOVFuczCivjz2R5KzoLwHU6ic3zTqLJwZm43NjVWQnSZpXEpy1jJFUIrSW2ZdMreOZDkTqZvJ5B6V/iznAJZXyiq/5X4YBU4105NZjLzjLGQwr2oK2p2cpbycfRzOTBunonm6zM7ydrznrMyOcTzy21l9KnhUzTgHyiMZ7yORk44+DLdddRJ+odPFSFn7dkqGM8r3kWgnH6kRMQkJpsC4+OzT8Paj12DJtjKsoDJbzFhleamtIAxWhIM4BpRTGOUjTE9OFxTh4bR4TEx8h0navxaUYimdDc79740QXVEQBZI3hIekKaG+oQE//Po7krnHRUb4umTyWJauFtNn1ewbzsWUCaNVfC101A8v/Tn4gEl44sZzsGC57A9p6YhT6O5N01QU85xqbnaUoPi3l2hpL1mFo+rBGjnbG63v2J55/coKykEcFX865ESCtEct+fQj43MWRDCINZUIk01kjPLZwo8oyWt53zIPbP2mHPFaz3ibm6rwZN/DcFnWDNWGpKVb1NSt3+nMHQumllnWALpWf3bEqXi63+E0qW1CHi3PUpmr6GFkRuQYpMXTAYna/CfGBCJUpIybrWWV33JfyutMUEreYqrbn58dzEtMpOcOORnnZUzgHRFu3ikzk95ncF6j+3zFvYe9aZ2BKJuPFgFUZgPU1iKwjdG1ezm1/5Y9k776krNxxmFjsYWWT2omYuFtrA5ZTiV9PBUwWM7s8GHQozj5Pv3Eo7HszQcxc9JwzF/I08YoEITOYFppdSZIoxNLL0mrmuap83/egj8dNgmr3n4YJxx5sEraG8KjBc0EWQ6vCuW+HKFHggiPSHoG+IXWWH+68LAWLtp1HEtMz/6VNqHKy2Qv4MzrqlmHYH5ecauBhTL1ZecNkoPAGKyyUF377I8ViOgouukIp7dZh0GF/Ba3OH1io9USp8/osmYk5En/kXBs4hDMH/5HHk4Wja1kfDJbaOtsb8sb7f+V2Uw/jvd30pFiPWco7ww6CX+i8Ahm2pY69GZLsfAFGaxFcWnu8v7TsGz0ubg2cRRyaf1VSJqiWIT+pDG5DWHSfgltMSJYpr6SFr/LdjdgC5fpzosfjLWjz8EJyRZDga4SHkKlzwTIsCEDaTBdIzouZR4qI/5qWgeRg2HCaM9bTNiqwPmVMGdl+cSd1bddfRF20iu0bJiLpk5EmLOMyGvqeDM6FAdPn+w8ES/e1QxNshg9fDAe/9cNeOPJa5HUJxYLlu7Aql0V9LgeoM48EaYmugspE/+3GBVLV5K05JnEkbhyTkoImfYieipesDwXA9KS8M4LN+LB267F8MHZqhN6U3gIPRKCadAwY9JYbP2Oh1cRbxFoMWwP64rKMCIxDtdTJyG6Cakn/Y560Ut/JA/JKyI8DNdedi76REdhKwcW0iYEs1iaUM/7aROuOP1ApFGPJsFaFC9R5DxZC3rA2JFDcfaBo/HL6lxl3i34icWaHLC1/PPVOOf4Q2g9J+xMgn7L8svbfyU3Neclo50a1w8rR8/CDcnjsLW5VjH+vqRHBEE8v0UB3tZwSPQkss+hjzW+vJdPJr21uRqXxQ/leeFn47S0Mao43myzjnhJf1Ll49/R0al4YPiJ+HnEmfhrwkhaYnF20ViJAtKZxPJnKmHSCwmkXT4yk5AyiXAI40fKL7/lvpRT4gg2UtZqWrNt4zJZPg+ROjkqA18OnYmnRpyCIZGJln5Kwrwx23Isb1u/ueveu2MoXal1NBl95NnXcMuNrwND2ajruQLKOd37j/0Nf+D+BwkyavFtM5cRJKd+bAxf/TAfR/3lQbp059JEYrgcX8hF7z34H5n2zBOOstBnjat++OiPYCImvdpKq7C4FN/P+xWffDcfr3z2G59ygh8XhqSQQCST0YWQ0Unjlo+AKeamsoO3njqSQp6dUSC4i5KdzPvCI8fhhMMPoICcRO/F4qJE4tvyUje89EfjvqukDP96bDYeu5suIsaShh3VGDipL+bc+3eIRZqO5yUynCar8/x1yQpceMdjWLMgB0igW/C11bjq5mNwHQWb7B/R8Zwm4uWbOu+NOVtx3b1P4sPXeBzvEPYrabcVzXj4H7Nw6bmnI5rennVcL5PkNHnVftlvpD2Kr6af6UvqzZ3L8GzZBjY2LtaI51gqy0WHEMLxrLXZKl4gdMuSTj6XecQKS0yDJe4lcYNwZuoYTOemOdGRSDxp613BSO3LJwCIHzAxS/6F5VxYkYsXq3bwJnmKKMhZRsuIQ3/LG5rjMSUph1KsyzX7KcEIDk3EHbFZmMGDpMbFZnDWo/bZW/SBAlYXB68LECmfbsByrvWC35ZiyYp16vCfGZPHYoTMTCQOP10Bh32+shN6/aYcbNiaSy+ewZjOtfehHJELXfbxhF5fB42hzlccDubtLOBRrquwePka5OUXYUXuLm78q7QI52p2NmmQkWxwPARqYHwExmQmIi0lkd5/h2Py2BEcRaeQwVBYMqhOyG9fjPRVhtY8Jb8abiJcvHQFNm7JRWpSHzWyTk1O1NG69Du/qBgreaBXZVUNsjJTMYiOLyPCQve26a4kTreJsvJK+gdbi7WbtiEyIgwjh2Rj5NDBamlLx+lKOiVvZQBhZXhitrqufCe+Lc3BD6Wb8R1NXSs4M1ECQgSFEgjsdcJwaSo7iFZYo0JicER8NmbE9kN2dArCxULLIV11o4v+CH8QrNXAzUpDBQVeQU0piriZ8JfKnVjDDZA13MdSxE1/W2lYIAr2QpY3iuVMp/BM4dJoChXp0aHRmMB9HVOi0mlAGYNM/tZB9VOBpku4pabC9u0TASLZ2Tdk3T40GfbP9D1ffqv8JUNrA3cUFl1Nnz0WQouFVJu4babivJLehLfl5qOsvIJ6BVpaUbdA1NVafXBwMKK5EbBfeiqiOCIVpbkOztLTz3zx3Ra2bd33BU06j7ZoaOu+fs+X3/uiZV/PfEmjzssZk1WHQnGD3faaEp7lXctJCU+1IFMVY4XeAYGI4uFJ/amwzqAOJYT3dBCBJN3VXxippsuybCc9z6pDtT6Q32JqL8JRdpiXcsOjmNM3UpiKryvZNyKzi5jAEJaLemErL1Kv8x2+6Zfl9ZkAESCkQUvQo1x/a+CqUfoxfQo86x/BTj56acv+WUeutV5B10VH3vFWHPt2YX/trfxcSddGDwfIsheHHdsfMLMvg41Gy6DCsR3bx/WHa2GywgrsR+sdpctfBYcz+nU5pVbcaTNSVgnu4KRe9MEfnwoQH5Rnv8xCMxApvLXNyZUVCwtT2TugEQZofWK+DAJdjYBqpWy0urU6o0e11x7Qbm1ltF7ZbliKbSmouu4ufdQIEGct1twzCBgEDAIGgXYRsC2GtxvVRDAIGAQMAgYBg4ANASNAbFiYK4OAQcAgYBBwAQEjQFwAy0Q1CBgEDAIGARsCRoDYsDBXBgGDgEHAIOACAkaAuACWiWoQMAgYBAwCNgSMALFhYa4MAgYBg4BBwAUEjABxASwT1SBgEDAIGARsCBgBYsPCXBkEDAIGAYOACwgYAeICWCaqQcAgYBAwCNgQMALEhoW5MggYBAwCBgEXEDACxAWwTFSDgEHAIGAQsCFgBIgNC3NlEDAIGAQMAi4gYASIC2CZqAYBg4BBwCBgQ8AIEBsW5sogYBAwCBgEXEDACBAXwDJRDQIGAYOAQcCGgBEgNizMlUHAIGAQMAi4gIARIC6AZaIaBAwCBgGDgA0BI0BsWJgrg4BBwCBgEHABASNAXADLRDUIGAQMAgYBGwJGgNiwMFcGAYOAQcAg4AICRoC4AJaJahAwCBgEDAI2BIwAsWFhrgwCBgGDgEHABQSMAHEBLBPVIGAQMAgYBGwIGAFiw8JcGQQMAgYBg4ALCBgB4gJYJqpBwCBgEDAI2BAwAsSGhbkyCBgEDAIGARcQMALEBbBMVIOAQcAgYBCwIWAEiA0Lc2UQMAgYBAwCLiBgBIgLYJmoBgGDgEHAIGBDwAgQGxbmyiBgEDAIGARcQMAIEBfAMlENAgYBg4BBwIaAESA2LMyVQcAgYBAwCLiAgBEgLoBlohoEDAIGAYOADYFAXu62/TRXBgGDgEHAIGAQ6BgCIkDMLKRjWJlYBgGDgEHAIGCHgAiQj+1+m0uDgEHAIGAQMAh0CIH/B8jYfATgk/9NAAAAAElFTkSuQmCC;" parent="1" vertex="1">
          <mxGeometry x="-240" y="293.92" width="30" height="30.08" as="geometry" />
        </mxCell>
        <mxCell id="uHENw2KwoiWeEk6VIMy3-2" style="edgeStyle=orthogonalEdgeStyle;rounded=0;orthogonalLoop=1;jettySize=auto;html=1;entryX=0;entryY=0.5;entryDx=0;entryDy=0;flowAnimation=1;" edge="1" parent="1" source="uHENw2KwoiWeEk6VIMy3-1" target="272sHSoe-_pz2Ps7QQTc-22">
          <mxGeometry relative="1" as="geometry" />
        </mxCell>
        <mxCell id="uHENw2KwoiWeEk6VIMy3-1" value="Report Website" style="rounded=1;whiteSpace=wrap;html=1;" vertex="1" parent="1">
          <mxGeometry x="-340" y="360" width="130" height="60" as="geometry" />
        </mxCell>
        <mxCell id="uHENw2KwoiWeEk6VIMy3-3" value="" style="shape=image;aspect=fixed;image=data:image/png,iVBORw0KGgoAAAANSUhEUgAAANMAAADvCAMAAABfYRE9AAAAtFBMVEX///8AhT4ATCwAq04Apj3z+/f6/fsAOwoARyoArk8AgT76+/sAqUfz9/UARR4AgzkAfCrT3dnT7t0AeiQASCbT5tvk8OkAPxUANwCRwKK01MB3s40hjk5MnmuiyrHG39CI0KLi6ear3b2ywroAlkWTqZ5gwoRzyJJlqn5AbFaY1a5ujX1NdWEAo0rJ6dW54sghsVw7l18/uG0IZTcrYEUNXDdRvHkKez9ig3IGbjljn3pAe1zzJHBHAAAJqUlEQVR4nO2daVvbOBSFvSUpwcQucULIBoQGwlK2MpR2/v//Gtlk8SJdrZYlP3M+z6PxW90j33OVBMf5X2LqPK0u/959rq+afhBlOr0JgyDsfxsMeu/XTT+MEnVugtD3/aP+N8/zkrNBC6juM6IdE1Lv7nvTzySnZz/w/SKTl/Q+T5p+LnGdvu2I8kyeN+itm340QXVut2VXYfK8M89KW93nicpMVtrqYCQCk5dMHqyy1eitRIRhQrYa2GOropHITBbZ6h5DRGBCtnq0oF96fqmUHcSE3lam22r8gd0kgAnZ6sxkW2GNRGVCtno39lxfhUQimAkVoJm2eiIYiYUpe1sdN01QFtlIbEzp28qsc717SSFiYDLMVqsQLDtWJlSAptjqqdoICTJlKcQAW22juSImRJU0bSsGI3EyoXapWVutyolCBROy1WdjtjplMhI/U3PtEquRRJgashU+UShjaiDcV6K5eibNMzMuIwkzoQKc6LIVlCjUMmkL97xGkmLSYit+I0ky1T4zG30IEkkw1TszEzOSPFONthI0kgqmmsI9JZrXzFTHzIwazWtnUt0EShlJGZPScA/OuHQyKbOVrJFUMqXtkvzMbMyXKGpnkp+ZsUdzfUyStmKZcTXAJDEzE0kUephEZ2bKjFQLE6LibpcUGqkmJu6ZGceMqzkmrpmZWiPVx8TeLnHOuBplYnxbySUK7UwM4V44mjfHRJmZ1WKk2pmgz5mpSBTNMBHDfV1G0sKECvCucq4/1WYkPUzZzKxbQFLeNuhnQrZ6z58VNzVvkh4mLxkc6u+2fiQtTF7i7XZqpQFJD5M3eNye4TqQNDF5k6+m4rbu40EnU3Knb5t0MXm977rcpI8puwO50VJ62piS9JR40YKkjcnzHKcrU3phGGRi2GpGpmRwhjRIxJEGxzJMYfBye796fl7d37xQuZiYkt77wzXS+q43EGXqSTAFweX40F2NV28wFQvT5HEfWU/WE8G9kmAKLsut/QjMX3SmZFAI4Sd3YlslzBSGp5gINgZyMpUpeS8n8M8zvUxjDJKTBkthJq86VHgU2SlRpgC3S5lOScvRmCaY6c+xRqaql+hQFKbBA26xa4HqE2QKu7gH2OqJ7zsoW03wU2J+JEGmENgmh9RAwkxf7XRVa/7qE2MKnkAm5xK3JMxE+vSNQPEJMnVgJucD856Cmc4IU++rniamkMbkvDB+9+7wIISZ94mufaIzdZQx6fITnQlzotvP5DyXl20BU+XwawNTebbbCibnDfy+u51MHT8P1Q4mZ5xfuiVMhXa2LUz5iNgaptwtUHuYDodfi5i6u3a2RUzOuIVMu8OvVUzbLN8upq92tmVM2RVX25jSLN86JtTOto4JZfn2MaEsbydTh3DZkekytpLpFBxm/oVGdQYzvQFMDnTvZzBTcAMwHXvkG1qDmcCbKeeKXH0mM/nBCoD6PrGSCbgWRVqToMxmIl5fZ3oglJ/pTC8AE+kq3XAmP/wAmLrv2MPPdCY/uAWg8LdkxjNRDj/cdab5TPAt9jUGygIm+PBbV8vPCiYfamc/K09qA5Mfgu1s5fCzgoly+CUlKDuY/OAegLoqNUmWMPnBMwB1XYSyhckPRgDUunCiW8Pkg4dfoZ21hwk+/PJZ3h4mH8zyJ7ksbxETJcsfHtgipqOfwykAdcjyFjH9cN0YOvz27aw1TD/dVDFLlreD6eiLyHWjOfQp522Wt4FpT5RCLQCmbTtrA9OP/oHJjWcA05UdTPlNyjRcAlDZ4Wc4U4UohboAoNJ21mimo2LZ7csPzPI9s5l+YIDSc8KFDr/PgcFMmLLbQb0CTM6/uG8KmcEU48puV30bgKnTN5VpFJORENQ5ADUmLGk4kwu2swSZzgS3s5YyuS73ByvMZ4rm7WNyI+jws5QJPvwsZYLbWUuZ3CHX4WcHkxtB7aytTGCWt5OJkuXtZIKzfENMPyWZ3Jj58Ov84v5lGgEmFM0jWSY4yxeYot//8P6dG16mozTIyjPBWb7A5Lq/a2bKhg0KmCKX7Q8WpEyu+6c+pt1ESAETJcuXmNw+h614mA4zLhVMcJYvM6ECZLYVO1N+xqWEia2d3TOx24qdKT/jUsPElOVzTK7LVoCMTKXRqiImlixfYHL7LAXIxFQZFqtiikgLkZiYbMXAdFQdrZIe5YKTieHw61SW/ONRqBiYMMPimMA05WWit7NjzJIUW9GYcHcUiInQ2ZxHuP8aFK2dxf4zwbaCmfBE6F+XcAq/8jPRsvwMv+RvoAAhJsKtS8rk4utkyI9EaWe7xGom2wpiIty6pIqxb5aNwDa58IlO2KZUxHaJyEQqu50w8XsktE1o10n2RAcpuCTBVgQmRATcurjY86r8JuEQyVNj2pJYW2GZyEY6qNKBjufiTG78iqu/i4i+JCaF4JiOACPlHmNReElNGf7/gKJ4UwmJM6a3XdVWVSaakXKPcb6nGi0EvZRbbvi6zP+M6TnzP1K5XSozUY1UeIx4cb6cTpezeSy1SfvlhvPFLF1wuZkPeVYs2qrIhGntKI8RxUhyZVdcL1uQf8V8AQ6OHeewS6xlZ6AOtkrenf0vpjAbyVDtbJX92OdlmJVd088kr692qZf+4uIogBshi5QWYJK1OG+h5WV3UP/X9sc+T7mjnMHqb/8c3lT6jWmMDrOoTVt2Kt+GLtoBFRfiwoarGTFT0bA03Lhwbd+q2K1my6WSTrQpRfi7x469BRgNN6SR7ujVzgLE5+SdphbaKnYpFyTdc8tsFbHcY40XFtkKGYntttseW8FGKmqpLo/XKKqRiurOjC/AaHjO8WGsTGOze8AoXvB8Zm6ni7m5VPGc9dM9ZZnaLhEaITZ1NgZSRfGM10hFGXeuR0MhIxVlVrsUzwW+9YGROe1SFEkYqaixGSkEBVmBX9IkygBbRfGrvJGKarpd4myE2NRou8SUKETUWLsERHN5TRtpl3gShYj0t0txVIORitLcLtVmpKJG+mzFHM3lpatdEk8UItLRLilshNhUe7sknShEVG+7pCJRiGga1UWl10gF1TS01W6kosbyn56qENXZCLFJ8XRJcMalWipTiKpoLq2OqhQSDbU0QmxCKUSeKoobN1JR8u1S3YlCRHLnuoZEISKJFKIpUYhIsF3SmChEJNIumWikgrjbpYYbITZxtUvRsIFEISLmdsmQRohNbO1Sg4lCRAztktRlXzOitEuNRHN5AUNbJZd9zYh0rtdyR6FL2I8EWmikoirtkgHRXF6oXYpyRKY3QoxaztOvNGVfblpY9UYCNVrOFovNbGrrYde8/gPnipHK00EhWQAAAABJRU5ErkJggg==;" vertex="1" parent="1">
          <mxGeometry x="-240" y="400" width="31" height="35.11" as="geometry" />
        </mxCell>
      </root>
    </mxGraphModel>
  </diagram>
</mxfile>
